G04 #@! TF.GenerationSoftware,KiCad,Pcbnew,7.0.8*
G04 #@! TF.CreationDate,2023-11-11T13:49:26+01:00*
G04 #@! TF.ProjectId,PCE,5043452e-6b69-4636-9164-5f7063625858,1.3*
G04 #@! TF.SameCoordinates,Original*
G04 #@! TF.FileFunction,Soldermask,Top*
G04 #@! TF.FilePolarity,Negative*
%FSLAX46Y46*%
G04 Gerber Fmt 4.6, Leading zero omitted, Abs format (unit mm)*
G04 Created by KiCad (PCBNEW 7.0.8) date 2023-11-11 13:49:26*
%MOMM*%
%LPD*%
G01*
G04 APERTURE LIST*
G04 Aperture macros list*
%AMRoundRect*
0 Rectangle with rounded corners*
0 $1 Rounding radius*
0 $2 $3 $4 $5 $6 $7 $8 $9 X,Y pos of 4 corners*
0 Add a 4 corners polygon primitive as box body*
4,1,4,$2,$3,$4,$5,$6,$7,$8,$9,$2,$3,0*
0 Add four circle primitives for the rounded corners*
1,1,$1+$1,$2,$3*
1,1,$1+$1,$4,$5*
1,1,$1+$1,$6,$7*
1,1,$1+$1,$8,$9*
0 Add four rect primitives between the rounded corners*
20,1,$1+$1,$2,$3,$4,$5,0*
20,1,$1+$1,$4,$5,$6,$7,0*
20,1,$1+$1,$6,$7,$8,$9,0*
20,1,$1+$1,$8,$9,$2,$3,0*%
G04 Aperture macros list end*
%ADD10C,0.150000*%
%ADD11C,2.650000*%
%ADD12C,1.575000*%
%ADD13C,2.150000*%
%ADD14C,2.717800*%
%ADD15C,1.775000*%
%ADD16C,3.000000*%
%ADD17RoundRect,0.200000X-0.800000X1.300000X-0.800000X-1.300000X0.800000X-1.300000X0.800000X1.300000X0*%
%ADD18RoundRect,0.219512X0.480488X-0.230488X0.480488X0.230488X-0.480488X0.230488X-0.480488X-0.230488X0*%
%ADD19RoundRect,0.219512X-0.480488X0.230488X-0.480488X-0.230488X0.480488X-0.230488X0.480488X0.230488X0*%
%ADD20RoundRect,0.219512X-0.230488X-0.480488X0.230488X-0.480488X0.230488X0.480488X-0.230488X0.480488X0*%
%ADD21RoundRect,0.060000X-1.440000X-0.240000X1.440000X-0.240000X1.440000X0.240000X-1.440000X0.240000X0*%
%ADD22RoundRect,0.150000X-1.050000X-0.600000X1.050000X-0.600000X1.050000X0.600000X-1.050000X0.600000X0*%
%ADD23RoundRect,0.150000X0.600000X-1.050000X0.600000X1.050000X-0.600000X1.050000X-0.600000X-1.050000X0*%
%ADD24O,1.350000X1.350000*%
%ADD25C,1.600000*%
%ADD26RoundRect,0.200000X0.800000X-1.300000X0.800000X1.300000X-0.800000X1.300000X-0.800000X-1.300000X0*%
%ADD27RoundRect,0.150000X-0.600000X1.050000X-0.600000X-1.050000X0.600000X-1.050000X0.600000X1.050000X0*%
%ADD28R,0.500000X2.400000*%
%ADD29R,2.400000X0.500000*%
%ADD30R,0.400000X1.100000*%
%ADD31RoundRect,0.200000X-1.175000X-0.800000X1.175000X-0.800000X1.175000X0.800000X-1.175000X0.800000X0*%
%ADD32C,1.500000*%
%ADD33RoundRect,0.219512X0.230488X0.480488X-0.230488X0.480488X-0.230488X-0.480488X0.230488X-0.480488X0*%
%ADD34RoundRect,0.060000X-0.940000X-0.540000X0.940000X-0.540000X0.940000X0.540000X-0.940000X0.540000X0*%
%ADD35RoundRect,0.080000X-0.720000X-0.795000X0.720000X-0.795000X0.720000X0.795000X-0.720000X0.795000X0*%
%ADD36C,2.000000*%
%ADD37RoundRect,0.060000X0.240000X-1.440000X0.240000X1.440000X-0.240000X1.440000X-0.240000X-1.440000X0*%
%ADD38O,1.700000X1.700000*%
%ADD39R,0.900000X2.000000*%
%ADD40R,0.900000X2.500000*%
%ADD41RoundRect,1.050000X0.000000X-0.825000X0.000000X0.825000X0.000000X0.825000X0.000000X-0.825000X0*%
%ADD42RoundRect,0.200000X0.300000X0.300000X-0.300000X0.300000X-0.300000X-0.300000X0.300000X-0.300000X0*%
%ADD43C,1.000000*%
%ADD44RoundRect,0.250000X0.250000X0.250000X-0.250000X0.250000X-0.250000X-0.250000X0.250000X-0.250000X0*%
%ADD45RoundRect,0.326087X-0.473913X0.423913X-0.473913X-0.423913X0.473913X-0.423913X0.473913X0.423913X0*%
%ADD46O,2.000000X3.000000*%
%ADD47RoundRect,0.200000X-0.800000X1.175000X-0.800000X-1.175000X0.800000X-1.175000X0.800000X1.175000X0*%
%ADD48C,4.500000*%
%ADD49RoundRect,0.070000X0.630000X0.630000X-0.630000X0.630000X-0.630000X-0.630000X0.630000X-0.630000X0*%
%ADD50RoundRect,0.060000X-0.240000X1.190000X-0.240000X-1.190000X0.240000X-1.190000X0.240000X1.190000X0*%
%ADD51RoundRect,0.200000X0.300000X-0.300000X0.300000X0.300000X-0.300000X0.300000X-0.300000X-0.300000X0*%
%ADD52RoundRect,0.250000X0.250000X-0.250000X0.250000X0.250000X-0.250000X0.250000X-0.250000X-0.250000X0*%
%ADD53R,0.500000X2.200000*%
%ADD54R,2.200000X0.500000*%
%ADD55O,2.000000X2.000000*%
%ADD56RoundRect,0.478260X-0.671740X-0.621740X0.671740X-0.621740X0.671740X0.621740X-0.671740X0.621740X0*%
%ADD57RoundRect,0.100000X-0.100000X0.950000X-0.100000X-0.950000X0.100000X-0.950000X0.100000X0.950000X0*%
%ADD58RoundRect,0.100000X-0.950000X0.100000X-0.950000X-0.100000X0.950000X-0.100000X0.950000X0.100000X0*%
%ADD59RoundRect,0.200000X-1.300000X-0.800000X1.300000X-0.800000X1.300000X0.800000X-1.300000X0.800000X0*%
%ADD60RoundRect,0.325000X0.325000X0.753750X-0.325000X0.753750X-0.325000X-0.753750X0.325000X-0.753750X0*%
%ADD61RoundRect,0.142500X0.142500X0.936250X-0.142500X0.936250X-0.142500X-0.936250X0.142500X-0.936250X0*%
%ADD62RoundRect,0.200000X1.300000X0.800000X-1.300000X0.800000X-1.300000X-0.800000X1.300000X-0.800000X0*%
%ADD63C,2.500000*%
%ADD64C,3.500000*%
%ADD65R,1.600000X1.600000*%
%ADD66R,0.500000X3.000000*%
%ADD67R,3.000000X0.500000*%
%ADD68C,1.900000*%
%ADD69RoundRect,0.075000X0.925000X0.675000X-0.925000X0.675000X-0.925000X-0.675000X0.925000X-0.675000X0*%
%ADD70R,0.400000X2.250000*%
%ADD71R,2.250000X0.400000*%
%ADD72RoundRect,0.060000X-0.540000X0.940000X-0.540000X-0.940000X0.540000X-0.940000X0.540000X0.940000X0*%
%ADD73RoundRect,0.080000X-0.795000X0.720000X-0.795000X-0.720000X0.795000X-0.720000X0.795000X0.720000X0*%
%ADD74RoundRect,0.062500X0.562500X0.562500X-0.562500X0.562500X-0.562500X-0.562500X0.562500X-0.562500X0*%
G04 APERTURE END LIST*
D10*
X257625000Y-215450000D02*
X259800000Y-215450000D01*
X259800000Y-217625000D01*
X257625000Y-217625000D01*
X257625000Y-215450000D01*
G36*
X257625000Y-215450000D02*
G01*
X259800000Y-215450000D01*
X259800000Y-217625000D01*
X257625000Y-217625000D01*
X257625000Y-215450000D01*
G37*
D11*
X104000000Y-115500000D02*
G75*
G03*
X104000000Y-115500000I-1325000J0D01*
G01*
D12*
X341087500Y-149000000D02*
G75*
G03*
X341087500Y-149000000I-787500J0D01*
G01*
D13*
X177375000Y-103900000D02*
G75*
G03*
X177375000Y-103900000I-1075000J0D01*
G01*
D11*
X85600000Y-133900000D02*
G75*
G03*
X85600000Y-133900000I-1325000J0D01*
G01*
D14*
X163131500Y-85064600D02*
G75*
G03*
X163131500Y-85064600I-1358900J0D01*
G01*
D10*
X332325000Y-158200000D02*
X334500000Y-158200000D01*
X334500000Y-160375000D01*
X332325000Y-160375000D01*
X332325000Y-158200000D01*
G36*
X332325000Y-158200000D02*
G01*
X334500000Y-158200000D01*
X334500000Y-160375000D01*
X332325000Y-160375000D01*
X332325000Y-158200000D01*
G37*
D15*
X115537500Y-189475000D02*
G75*
G03*
X115537500Y-189475000I-887500J0D01*
G01*
D16*
X76975000Y-165850000D03*
X76975000Y-145850000D03*
D17*
X346125000Y-208050000D03*
X346125000Y-213050000D03*
D18*
X245625000Y-154250000D03*
X245625000Y-152350000D03*
D19*
X193350000Y-117275000D03*
X193350000Y-119175000D03*
D20*
X297575000Y-199875000D03*
X299475000Y-199875000D03*
X195575000Y-160525000D03*
X197475000Y-160525000D03*
D21*
X325300000Y-173145000D03*
X325300000Y-174415000D03*
X325300000Y-175685000D03*
X325300000Y-176955000D03*
X331500000Y-176950000D03*
X331500000Y-175685000D03*
X331500000Y-174415000D03*
X331500000Y-173145000D03*
D22*
X121212200Y-50774600D03*
X124812200Y-50774600D03*
D19*
X259675000Y-148325000D03*
X259675000Y-150225000D03*
D18*
X288100000Y-179700000D03*
X288100000Y-177800000D03*
D23*
X180925000Y-104825000D03*
X180925000Y-101225000D03*
D24*
X303050000Y-161575000D03*
X301050000Y-161575000D03*
X299050000Y-161575000D03*
X297050000Y-161575000D03*
X295050000Y-161575000D03*
X293050000Y-161575000D03*
X291050000Y-161575000D03*
X289050000Y-161575000D03*
D20*
X195575000Y-167700000D03*
X197475000Y-167700000D03*
D18*
X314150000Y-200800000D03*
X314150000Y-198900000D03*
D25*
X192785000Y-213591200D03*
X195325000Y-213591200D03*
X197865000Y-213591200D03*
D19*
X236900000Y-168325000D03*
X236900000Y-170225000D03*
D26*
X200950000Y-123625000D03*
X200950000Y-118625000D03*
D27*
X211325000Y-196600000D03*
X211325000Y-200200000D03*
D28*
X267475000Y-208475000D03*
X268475000Y-208475000D03*
X269475000Y-208475000D03*
X270475000Y-208475000D03*
X271475000Y-208475000D03*
X272475000Y-208475000D03*
X273475000Y-208475000D03*
X274475000Y-208475000D03*
X275475000Y-208475000D03*
X276475000Y-208475000D03*
X277475000Y-208475000D03*
X278475000Y-208475000D03*
X279475000Y-208475000D03*
X280475000Y-208475000D03*
X281475000Y-208475000D03*
X282475000Y-208475000D03*
X285475000Y-208475000D03*
X284475000Y-208475000D03*
X283475000Y-208475000D03*
D29*
X287725000Y-206325000D03*
X287725000Y-205325000D03*
X287725000Y-204325000D03*
X287725000Y-203325000D03*
X287725000Y-202325000D03*
X287725000Y-201325000D03*
X287725000Y-200325000D03*
X287725000Y-199325000D03*
X287725000Y-198325000D03*
X287725000Y-197325000D03*
X287725000Y-196325000D03*
X287725000Y-195325000D03*
X287725000Y-194325000D03*
D28*
X285475000Y-192175000D03*
X284475000Y-192175000D03*
X283475000Y-192175000D03*
X282475000Y-192175000D03*
X281475000Y-192175000D03*
X280475000Y-192175000D03*
X279475000Y-192175000D03*
X278475000Y-192175000D03*
X277475000Y-192175000D03*
X276475000Y-192175000D03*
X275475000Y-192175000D03*
X274475000Y-192175000D03*
X273475000Y-192175000D03*
X272475000Y-192175000D03*
X271475000Y-192175000D03*
X270475000Y-192175000D03*
X269475000Y-192175000D03*
X268475000Y-192175000D03*
X267475000Y-192175000D03*
D29*
X265225000Y-194325000D03*
X265225000Y-195325000D03*
X265225000Y-196325000D03*
X265225000Y-197325000D03*
X265225000Y-198325000D03*
X265225000Y-199325000D03*
X265225000Y-200325000D03*
X265225000Y-201325000D03*
X265225000Y-202325000D03*
X265225000Y-203325000D03*
X265225000Y-204325000D03*
X265225000Y-205325000D03*
X265225000Y-206325000D03*
D30*
X142475000Y-193050000D03*
X143275000Y-193050000D03*
X144075000Y-193050000D03*
X144875000Y-193050000D03*
X144875000Y-191150000D03*
X144075000Y-191150000D03*
X143275000Y-191150000D03*
X142475000Y-191150000D03*
D31*
X120875000Y-63150000D03*
X125075000Y-63150000D03*
D27*
X135750000Y-114900000D03*
X135750000Y-118500000D03*
D18*
X167000000Y-59675000D03*
X167000000Y-57775000D03*
D20*
X191575000Y-161725000D03*
X193475000Y-161725000D03*
D32*
X95100000Y-65600000D03*
X90100000Y-65600000D03*
X95100000Y-63100000D03*
X90100000Y-63100000D03*
D18*
X171000000Y-53325000D03*
X171000000Y-51425000D03*
D33*
X119475000Y-189275000D03*
X117575000Y-189275000D03*
D18*
X80175000Y-145425000D03*
X80175000Y-143525000D03*
D19*
X285675000Y-174225000D03*
X285675000Y-176125000D03*
D25*
X232460800Y-169545000D03*
X232460800Y-172085000D03*
X232460800Y-174625000D03*
D19*
X191875000Y-82200000D03*
X191875000Y-84100000D03*
D34*
X296150000Y-179725000D03*
D35*
X292300000Y-180725000D03*
D34*
X296150000Y-181725000D03*
D19*
X162560000Y-65979000D03*
X162560000Y-67879000D03*
D24*
X249450000Y-220700000D03*
X251450000Y-220700000D03*
D32*
X95100000Y-58425000D03*
X90100000Y-58425000D03*
X95100000Y-55925000D03*
X90100000Y-55925000D03*
D18*
X168600000Y-53325000D03*
X168600000Y-51425000D03*
X301200000Y-181650000D03*
X301200000Y-179750000D03*
D24*
X282325000Y-220700000D03*
X284325000Y-220700000D03*
X286325000Y-220700000D03*
X288325000Y-220700000D03*
X290325000Y-220700000D03*
X292325000Y-220700000D03*
X294325000Y-220700000D03*
X296325000Y-220700000D03*
X298325000Y-220700000D03*
X300325000Y-220700000D03*
D18*
X318900000Y-215575000D03*
X318900000Y-213675000D03*
D20*
X187975000Y-74100000D03*
X189875000Y-74100000D03*
D25*
X192850000Y-185275000D03*
X177610000Y-185275000D03*
X177610000Y-192895000D03*
X192850000Y-192895000D03*
X182425000Y-208965000D03*
X182425000Y-206425000D03*
X182425000Y-203885000D03*
D36*
X339625000Y-173100000D03*
X339625000Y-178075000D03*
D37*
X260520000Y-165875000D03*
X261790000Y-165875000D03*
X263060000Y-165875000D03*
X264330000Y-165875000D03*
X264325000Y-159675000D03*
X263060000Y-159675000D03*
X261790000Y-159675000D03*
X260520000Y-159675000D03*
D36*
X111375000Y-69575000D03*
X116350000Y-69575000D03*
D19*
X239200000Y-168325000D03*
X239200000Y-170225000D03*
D30*
X238850000Y-190550000D03*
X239650000Y-190550000D03*
X240450000Y-190550000D03*
X241250000Y-190550000D03*
X241250000Y-188650000D03*
X240450000Y-188650000D03*
X239650000Y-188650000D03*
X238850000Y-188650000D03*
D32*
X95100000Y-51225000D03*
X90100000Y-51225000D03*
X95100000Y-48725000D03*
X90100000Y-48725000D03*
D38*
X314080000Y-168650000D03*
X316620000Y-168650000D03*
X319160000Y-168650000D03*
X321700000Y-168650000D03*
X324240000Y-168650000D03*
X326780000Y-168650000D03*
X329320000Y-168650000D03*
X331860000Y-168650000D03*
X334400000Y-168650000D03*
X336940000Y-168650000D03*
X339480000Y-168650000D03*
X342020000Y-168650000D03*
D18*
X112950000Y-180650000D03*
X112950000Y-178750000D03*
X91821000Y-85262800D03*
X91821000Y-83362800D03*
D20*
X76662200Y-130683000D03*
X78562200Y-130683000D03*
D36*
X141875000Y-61400000D03*
X141875000Y-66375000D03*
D25*
X219750000Y-201425000D03*
X217210000Y-201425000D03*
D18*
X251250000Y-144650000D03*
X251250000Y-142750000D03*
D39*
X203975000Y-86600000D03*
D40*
X205475000Y-86350000D03*
D41*
X205475000Y-83725000D03*
D39*
X206975000Y-86600000D03*
D19*
X286500000Y-181812500D03*
X286500000Y-183712500D03*
D42*
X182950000Y-75100000D03*
D43*
X182650000Y-75100000D03*
X185650000Y-76100000D03*
D44*
X185350000Y-76100000D03*
D43*
X185650000Y-74100000D03*
D44*
X185350000Y-74100000D03*
D22*
X192027400Y-55499000D03*
X195627400Y-55499000D03*
D36*
X123800000Y-194850000D03*
D33*
X180345200Y-50342800D03*
X178445200Y-50342800D03*
D18*
X335625000Y-213525000D03*
X335625000Y-211625000D03*
D25*
X185630000Y-208965000D03*
X185630000Y-206425000D03*
X185630000Y-203885000D03*
D34*
X330875000Y-181625000D03*
D35*
X327025000Y-182625000D03*
D34*
X330875000Y-183625000D03*
D24*
X283450000Y-161575000D03*
X281450000Y-161575000D03*
X279450000Y-161575000D03*
X277450000Y-161575000D03*
X275450000Y-161575000D03*
X273450000Y-161575000D03*
X271450000Y-161575000D03*
X269450000Y-161575000D03*
D20*
X195575000Y-162925000D03*
X197475000Y-162925000D03*
D25*
X192055000Y-208975000D03*
X192055000Y-206435000D03*
X192055000Y-203895000D03*
D22*
X143175000Y-99875000D03*
X146775000Y-99875000D03*
D20*
X157500000Y-174425000D03*
X159400000Y-174425000D03*
D18*
X135325000Y-192625000D03*
X135325000Y-190725000D03*
D25*
X205700000Y-132900000D03*
D45*
X205700000Y-133350000D03*
X205700000Y-135950000D03*
D25*
X205700000Y-136400000D03*
D19*
X184875000Y-120475000D03*
X184875000Y-122375000D03*
D46*
X71127600Y-65375800D03*
D16*
X73627600Y-62875800D03*
X73627600Y-57875800D03*
D46*
X71127600Y-55375800D03*
D16*
X81127600Y-67875800D03*
X81127600Y-60375800D03*
X81127600Y-52875800D03*
X83627600Y-65375800D03*
X83627600Y-55375800D03*
D19*
X123725000Y-165975000D03*
X123725000Y-167875000D03*
D18*
X190119000Y-60487600D03*
X190119000Y-58587600D03*
D19*
X109067600Y-61000600D03*
X109067600Y-62900600D03*
D24*
X257450000Y-220700000D03*
X259450000Y-220700000D03*
X261450000Y-220700000D03*
X263450000Y-220700000D03*
X265450000Y-220700000D03*
X267450000Y-220700000D03*
X269450000Y-220700000D03*
X271450000Y-220700000D03*
X273450000Y-220700000D03*
X275450000Y-220700000D03*
D19*
X208975000Y-106475000D03*
X208975000Y-108375000D03*
D33*
X286275000Y-157175000D03*
X284375000Y-157175000D03*
D19*
X187750000Y-104100000D03*
X187750000Y-106000000D03*
D47*
X228175000Y-214300000D03*
X228175000Y-218500000D03*
D36*
X315675000Y-173150000D03*
X315675000Y-178125000D03*
D19*
X230925000Y-163575000D03*
X230925000Y-165475000D03*
D20*
X217525000Y-106800000D03*
X219425000Y-106800000D03*
D18*
X278425000Y-180875000D03*
X278425000Y-178975000D03*
D19*
X238850000Y-163512500D03*
X238850000Y-165412500D03*
X184925000Y-104100000D03*
X184925000Y-106000000D03*
D48*
X189225000Y-220950000D03*
X182375000Y-221700000D03*
X175825000Y-220950000D03*
D32*
X183775000Y-217950000D03*
X181125000Y-217950000D03*
X185875000Y-217950000D03*
X183775000Y-215450000D03*
X179075000Y-217950000D03*
X185875000Y-215450000D03*
X181575000Y-215450000D03*
X179075000Y-215450000D03*
D18*
X90805000Y-114843600D03*
X90805000Y-112943600D03*
D20*
X166875000Y-55550000D03*
X168775000Y-55550000D03*
D24*
X336475000Y-220700000D03*
X338475000Y-220700000D03*
X340475000Y-220700000D03*
X342475000Y-220700000D03*
X344475000Y-220700000D03*
X346475000Y-220700000D03*
X348475000Y-220700000D03*
D22*
X102848000Y-55981600D03*
X106448000Y-55981600D03*
X160275000Y-217250000D03*
X163875000Y-217250000D03*
D36*
X189705000Y-174300000D03*
X189705000Y-179380000D03*
D19*
X187675000Y-120475000D03*
X187675000Y-122375000D03*
D20*
X162425000Y-94500000D03*
X164325000Y-94500000D03*
D33*
X199075000Y-173850000D03*
X197175000Y-173850000D03*
D20*
X159175000Y-50150000D03*
X161075000Y-50150000D03*
D18*
X328450000Y-217175000D03*
X328450000Y-215275000D03*
D36*
X99025000Y-86325000D03*
D31*
X148425000Y-65550000D03*
X152625000Y-65550000D03*
D49*
X137380000Y-53575000D03*
X138650000Y-51035000D03*
X139920000Y-53575000D03*
X141190000Y-51035000D03*
X142460000Y-53575000D03*
X143730000Y-51035000D03*
X145000000Y-53575000D03*
X146270000Y-51035000D03*
X147540000Y-53575000D03*
X148810000Y-51035000D03*
X150080000Y-53575000D03*
X151350000Y-51035000D03*
X152620000Y-53575000D03*
X153890000Y-51035000D03*
D17*
X198650000Y-80350000D03*
X198650000Y-85350000D03*
D18*
X142100000Y-197400000D03*
X142100000Y-195500000D03*
D36*
X135225000Y-73150000D03*
X140200000Y-73150000D03*
D19*
X259675000Y-152325000D03*
X259675000Y-154225000D03*
D33*
X183891000Y-50342800D03*
X181991000Y-50342800D03*
D19*
X245625000Y-148350000D03*
X245625000Y-150250000D03*
X90627200Y-88585000D03*
X90627200Y-90485000D03*
D18*
X86950000Y-180700000D03*
X86950000Y-178800000D03*
X330500000Y-217175000D03*
X330500000Y-215275000D03*
D22*
X85223800Y-101879400D03*
X88823800Y-101879400D03*
D20*
X137650000Y-99875000D03*
X139550000Y-99875000D03*
D17*
X268350000Y-172725000D03*
X268350000Y-177725000D03*
D50*
X179610000Y-77525000D03*
X178340000Y-77525000D03*
X177070000Y-77525000D03*
X175800000Y-77525000D03*
X174530000Y-77525000D03*
X173260000Y-77525000D03*
X171990000Y-77525000D03*
X170720000Y-77525000D03*
X169450000Y-77525000D03*
X168180000Y-77525000D03*
X166910000Y-77525000D03*
X165640000Y-77525000D03*
X165640000Y-87825000D03*
X166910000Y-87825000D03*
X168180000Y-87825000D03*
X169450000Y-87825000D03*
X170720000Y-87825000D03*
X171990000Y-87825000D03*
X173260000Y-87825000D03*
X174530000Y-87825000D03*
X175800000Y-87825000D03*
X177070000Y-87825000D03*
X178340000Y-87825000D03*
X179610000Y-87825000D03*
D33*
X159400000Y-172300000D03*
X157500000Y-172300000D03*
D51*
X240025000Y-183250000D03*
D43*
X240025000Y-182950000D03*
X239025000Y-185950000D03*
D52*
X239025000Y-185650000D03*
D43*
X241025000Y-185950000D03*
D52*
X241025000Y-185650000D03*
D17*
X200914000Y-52211600D03*
X200914000Y-57211600D03*
D18*
X131775000Y-116450000D03*
X131775000Y-114550000D03*
D36*
X177695000Y-209050000D03*
X177695000Y-203970000D03*
D18*
X82245200Y-85262800D03*
X82245200Y-83362800D03*
D53*
X250900000Y-195050000D03*
X250100000Y-195050000D03*
X249300000Y-195050000D03*
X248500000Y-195050000D03*
X247700000Y-195050000D03*
X246900000Y-195050000D03*
X246100000Y-195050000D03*
X245300000Y-195050000D03*
X244500000Y-195050000D03*
X243700000Y-195050000D03*
X242900000Y-195050000D03*
X242100000Y-195050000D03*
X241300000Y-195050000D03*
X240500000Y-195050000D03*
X239700000Y-195050000D03*
X238900000Y-195050000D03*
X238100000Y-195050000D03*
X237300000Y-195050000D03*
X236500000Y-195050000D03*
X235700000Y-195050000D03*
X234900000Y-195050000D03*
X234100000Y-195050000D03*
X233300000Y-195050000D03*
X232500000Y-195050000D03*
D54*
X230550000Y-197200000D03*
X230550000Y-198000000D03*
X230550000Y-198800000D03*
X230550000Y-199600000D03*
X230550000Y-200400000D03*
X230550000Y-201200000D03*
X230550000Y-202000000D03*
X230550000Y-202800000D03*
X230550000Y-203600000D03*
X230550000Y-204400000D03*
X230550000Y-205200000D03*
X230550000Y-206000000D03*
X230550000Y-206800000D03*
X230550000Y-207600000D03*
X230550000Y-208400000D03*
X230550000Y-209200000D03*
D53*
X232500000Y-211350000D03*
X233300000Y-211350000D03*
X234100000Y-211350000D03*
X234900000Y-211350000D03*
X235700000Y-211350000D03*
X236500000Y-211350000D03*
X237300000Y-211350000D03*
X238100000Y-211350000D03*
X238900000Y-211350000D03*
X239700000Y-211350000D03*
X240500000Y-211350000D03*
X241300000Y-211350000D03*
X242100000Y-211350000D03*
X242900000Y-211350000D03*
X243700000Y-211350000D03*
X244500000Y-211350000D03*
X245300000Y-211350000D03*
X246100000Y-211350000D03*
X246900000Y-211350000D03*
X247700000Y-211350000D03*
X248500000Y-211350000D03*
X249300000Y-211350000D03*
X250100000Y-211350000D03*
X250900000Y-211350000D03*
D54*
X252850000Y-209200000D03*
X252850000Y-208400000D03*
X252850000Y-207600000D03*
X252850000Y-206800000D03*
X252850000Y-206000000D03*
X252850000Y-205200000D03*
X252850000Y-204400000D03*
X252850000Y-203600000D03*
X252850000Y-202800000D03*
X252850000Y-202000000D03*
X252850000Y-201200000D03*
X252850000Y-200400000D03*
X252850000Y-199600000D03*
X252850000Y-198800000D03*
X252850000Y-198000000D03*
X252850000Y-197200000D03*
D55*
X76175000Y-140250000D03*
X78675000Y-140250000D03*
D24*
X308000000Y-174550000D03*
X308000000Y-172550000D03*
X308000000Y-170550000D03*
X308000000Y-168550000D03*
X308000000Y-166550000D03*
X308000000Y-164550000D03*
D19*
X145725000Y-163200000D03*
X145725000Y-165100000D03*
D56*
X334725000Y-182650000D03*
X339925000Y-182650000D03*
D22*
X101222400Y-61569600D03*
X104822400Y-61569600D03*
D21*
X249325000Y-148570000D03*
X249325000Y-149840000D03*
X249325000Y-151110000D03*
X249325000Y-152380000D03*
X255525000Y-152375000D03*
X255525000Y-151110000D03*
X255525000Y-149840000D03*
X255525000Y-148570000D03*
D17*
X131000000Y-51450000D03*
X131000000Y-56450000D03*
D19*
X157600000Y-202675000D03*
X157600000Y-204575000D03*
D36*
X95786800Y-199675000D03*
X100761800Y-199675000D03*
D22*
X207125000Y-148125000D03*
X210725000Y-148125000D03*
D16*
X76975000Y-170425000D03*
X76975000Y-191425000D03*
D36*
X336750000Y-156525000D03*
X336750000Y-159775000D03*
X340000000Y-156525000D03*
X340000000Y-159775000D03*
D20*
X245500000Y-156475000D03*
X247400000Y-156475000D03*
D18*
X216125000Y-128750000D03*
X216125000Y-126850000D03*
D25*
X95165000Y-69925000D03*
X92625000Y-69925000D03*
X90085000Y-69925000D03*
D20*
X204150000Y-90675000D03*
X206050000Y-90675000D03*
D18*
X171800000Y-60100000D03*
X171800000Y-58200000D03*
D22*
X84814000Y-116662200D03*
X88414000Y-116662200D03*
D37*
X83545000Y-95850000D03*
X84815000Y-95850000D03*
X86085000Y-95850000D03*
X87355000Y-95850000D03*
X87350000Y-89650000D03*
X86085000Y-89650000D03*
X84815000Y-89650000D03*
X83545000Y-89650000D03*
D33*
X194312500Y-135400000D03*
X192412500Y-135400000D03*
D24*
X243775000Y-179025000D03*
X241775000Y-179025000D03*
X239775000Y-179025000D03*
X237775000Y-179025000D03*
X235775000Y-179025000D03*
X233775000Y-179025000D03*
X231775000Y-179025000D03*
X229775000Y-179025000D03*
D19*
X200575000Y-103700000D03*
X200575000Y-105600000D03*
X288100000Y-174200000D03*
X288100000Y-176100000D03*
X283250000Y-174225000D03*
X283250000Y-176125000D03*
D25*
X208650000Y-132900000D03*
D45*
X208650000Y-133350000D03*
X208650000Y-135950000D03*
D25*
X208650000Y-136400000D03*
D30*
X137675000Y-193050000D03*
X138475000Y-193050000D03*
X139275000Y-193050000D03*
X140075000Y-193050000D03*
X140075000Y-191150000D03*
X139275000Y-191150000D03*
X138475000Y-191150000D03*
X137675000Y-191150000D03*
D18*
X150900000Y-114825000D03*
X150900000Y-112925000D03*
D17*
X250100000Y-173200000D03*
X250100000Y-178200000D03*
D22*
X192850000Y-89400000D03*
X196450000Y-89400000D03*
D18*
X326075000Y-217175000D03*
X326075000Y-215275000D03*
D19*
X280850000Y-174225000D03*
X280850000Y-176125000D03*
X331600000Y-188450000D03*
X331600000Y-190350000D03*
D22*
X301125000Y-166375000D03*
X304725000Y-166375000D03*
D25*
X188825000Y-208955000D03*
X188825000Y-206415000D03*
X188825000Y-203875000D03*
D18*
X90805000Y-108432600D03*
X90805000Y-106532600D03*
D19*
X206125000Y-199912500D03*
X206125000Y-201812500D03*
X284125000Y-181812500D03*
X284125000Y-183712500D03*
D57*
X221900000Y-154500000D03*
X221250000Y-154500000D03*
X220600000Y-154500000D03*
X219950000Y-154500000D03*
X219300000Y-154500000D03*
X218650000Y-154500000D03*
X218000000Y-154500000D03*
X217350000Y-154500000D03*
X216700000Y-154500000D03*
X216050000Y-154500000D03*
X215400000Y-154500000D03*
X214750000Y-154500000D03*
X214100000Y-154500000D03*
X213450000Y-154500000D03*
X212800000Y-154500000D03*
X212150000Y-154500000D03*
X211500000Y-154500000D03*
X210850000Y-154500000D03*
X210200000Y-154500000D03*
X209550000Y-154500000D03*
X208900000Y-154500000D03*
X208250000Y-154500000D03*
X207600000Y-154500000D03*
X206950000Y-154500000D03*
X206300000Y-154500000D03*
X205650000Y-154500000D03*
X205000000Y-154500000D03*
X204350000Y-154500000D03*
X203700000Y-154500000D03*
X203050000Y-154500000D03*
D58*
X201350000Y-156450000D03*
X201350000Y-157100000D03*
X201350000Y-157750000D03*
X201350000Y-158400000D03*
X201350000Y-159050000D03*
X201350000Y-159700000D03*
X201350000Y-160350000D03*
X201350000Y-161000000D03*
X201350000Y-161650000D03*
X201350000Y-162300000D03*
X201350000Y-162950000D03*
X201350000Y-163600000D03*
X201350000Y-164250000D03*
X201350000Y-164900000D03*
X201350000Y-165550000D03*
X201350000Y-166200000D03*
X201350000Y-166850000D03*
X201350000Y-167500000D03*
X201350000Y-168150000D03*
X201350000Y-168800000D03*
D57*
X203050000Y-170750000D03*
X203700000Y-170750000D03*
X204350000Y-170750000D03*
X205000000Y-170750000D03*
X205650000Y-170750000D03*
X206300000Y-170750000D03*
X206950000Y-170750000D03*
X207600000Y-170750000D03*
X208250000Y-170750000D03*
X208900000Y-170750000D03*
X209550000Y-170750000D03*
X210200000Y-170750000D03*
X210850000Y-170750000D03*
X211500000Y-170750000D03*
X212150000Y-170750000D03*
X212800000Y-170750000D03*
X213450000Y-170750000D03*
X214100000Y-170750000D03*
X214750000Y-170750000D03*
X215400000Y-170750000D03*
X216050000Y-170750000D03*
X216700000Y-170750000D03*
X217350000Y-170750000D03*
X218000000Y-170750000D03*
X218650000Y-170750000D03*
X219300000Y-170750000D03*
X219950000Y-170750000D03*
X220600000Y-170750000D03*
X221250000Y-170750000D03*
X221900000Y-170750000D03*
D58*
X223600000Y-168800000D03*
X223600000Y-168150000D03*
X223600000Y-167500000D03*
X223600000Y-166850000D03*
X223600000Y-166200000D03*
X223600000Y-165550000D03*
X223600000Y-164900000D03*
X223600000Y-164250000D03*
X223600000Y-163600000D03*
X223600000Y-162950000D03*
X223600000Y-162300000D03*
X223600000Y-161650000D03*
X223600000Y-161000000D03*
X223600000Y-160350000D03*
X223600000Y-159700000D03*
X223600000Y-159050000D03*
X223600000Y-158400000D03*
X223600000Y-157750000D03*
X223600000Y-157100000D03*
X223600000Y-156450000D03*
D33*
X184700000Y-84275000D03*
X182800000Y-84275000D03*
D18*
X121325000Y-167875000D03*
X121325000Y-165975000D03*
D33*
X143537500Y-112250000D03*
X141637500Y-112250000D03*
D16*
X199725000Y-72325000D03*
X204700000Y-72325000D03*
D18*
X202975000Y-102375000D03*
X202975000Y-100475000D03*
D33*
X199075000Y-176050000D03*
X197175000Y-176050000D03*
D25*
X209900000Y-139700000D03*
D45*
X209900000Y-140150000D03*
X209900000Y-142750000D03*
D25*
X209900000Y-143200000D03*
D36*
X183125000Y-68700000D03*
X178045000Y-68700000D03*
D18*
X140075000Y-197400000D03*
X140075000Y-195500000D03*
D24*
X326475000Y-158325000D03*
X324475000Y-158325000D03*
X322475000Y-158325000D03*
X320475000Y-158325000D03*
X318475000Y-158325000D03*
X316475000Y-158325000D03*
X314475000Y-158325000D03*
D20*
X195575000Y-158125000D03*
X197475000Y-158125000D03*
D36*
X307175000Y-148975000D03*
D22*
X121212200Y-56769000D03*
X124812200Y-56769000D03*
D18*
X218900000Y-124725000D03*
X218900000Y-122825000D03*
X333250000Y-213525000D03*
X333250000Y-211625000D03*
D20*
X159175000Y-55775000D03*
X161075000Y-55775000D03*
D59*
X165698800Y-69519800D03*
X170698800Y-69519800D03*
D31*
X148425000Y-58750000D03*
X152625000Y-58750000D03*
D33*
X224225000Y-115100000D03*
X222325000Y-115100000D03*
D24*
X308200000Y-154425000D03*
X306200000Y-154425000D03*
D18*
X245625000Y-144650000D03*
X245625000Y-142750000D03*
D19*
X282025000Y-170250000D03*
X282025000Y-172150000D03*
D18*
X321725000Y-217175000D03*
X321725000Y-215275000D03*
X335675000Y-209550000D03*
X335675000Y-207650000D03*
D27*
X158925000Y-96150000D03*
X158925000Y-99750000D03*
D18*
X324025000Y-217175000D03*
X324025000Y-215275000D03*
D19*
X141825000Y-56575000D03*
X141825000Y-58475000D03*
D18*
X157600000Y-209800000D03*
X157600000Y-207900000D03*
D20*
X195575000Y-165325000D03*
X197475000Y-165325000D03*
D25*
X214050000Y-132900000D03*
D45*
X214050000Y-133350000D03*
X214050000Y-135950000D03*
D25*
X214050000Y-136400000D03*
D18*
X202575000Y-128762500D03*
X202575000Y-126862500D03*
D17*
X275900000Y-167750000D03*
X275900000Y-172750000D03*
D25*
X202900000Y-132900000D03*
D45*
X202900000Y-133350000D03*
X202900000Y-135950000D03*
D25*
X202900000Y-136400000D03*
D60*
X221080400Y-181166800D03*
D61*
X219490000Y-181165550D03*
X218220000Y-181165550D03*
X216950000Y-181165550D03*
X215680000Y-181165550D03*
X214410000Y-181165550D03*
X213140000Y-181165550D03*
X211870000Y-181165550D03*
X210600000Y-181165550D03*
X209330000Y-181165550D03*
X208060000Y-181165550D03*
X206790000Y-181165550D03*
X205520000Y-181165550D03*
D60*
X203884600Y-181166800D03*
X203884600Y-191733200D03*
D61*
X205520000Y-191731950D03*
X206790000Y-191731950D03*
X208060000Y-191731950D03*
X209330000Y-191731950D03*
X210600000Y-191731950D03*
X211870000Y-191731950D03*
X213140000Y-191731950D03*
X214410000Y-191731950D03*
X215680000Y-191731950D03*
X216950000Y-191731950D03*
X218220000Y-191731950D03*
X219490000Y-191731950D03*
D60*
X221080400Y-191733200D03*
D27*
X122600000Y-112825000D03*
X122600000Y-116425000D03*
D19*
X284475000Y-170250000D03*
X284475000Y-172150000D03*
X250100000Y-168375000D03*
X250100000Y-170275000D03*
X86950000Y-168850000D03*
X86950000Y-170750000D03*
X262050000Y-152325000D03*
X262050000Y-154225000D03*
D18*
X136100000Y-197400000D03*
X136100000Y-195500000D03*
D32*
X144875000Y-176650000D03*
D22*
X297400000Y-155400000D03*
X301000000Y-155400000D03*
D20*
X195575000Y-155750000D03*
X197475000Y-155750000D03*
D36*
X252400000Y-128375000D03*
D19*
X197000000Y-103700000D03*
X197000000Y-105600000D03*
D33*
X118725000Y-171375000D03*
X116825000Y-171375000D03*
D19*
X335600000Y-193200000D03*
X335600000Y-195100000D03*
X241625000Y-168325000D03*
X241625000Y-170225000D03*
D36*
X271920000Y-154825000D03*
X277000000Y-154825000D03*
X104300000Y-102150000D03*
X104300000Y-107125000D03*
D18*
X118625000Y-114050000D03*
X118625000Y-112150000D03*
D20*
X191575000Y-156925000D03*
X193475000Y-156925000D03*
D18*
X218900000Y-128750000D03*
X218900000Y-126850000D03*
D62*
X91933400Y-75946000D03*
X86933400Y-75946000D03*
D42*
X136225000Y-58000000D03*
D43*
X135925000Y-58000000D03*
X138925000Y-59000000D03*
D44*
X138625000Y-59000000D03*
D43*
X138925000Y-57000000D03*
D44*
X138625000Y-57000000D03*
D20*
X183600000Y-88275000D03*
X185500000Y-88275000D03*
D25*
X216850000Y-132900000D03*
D45*
X216850000Y-133350000D03*
X216850000Y-135950000D03*
D25*
X216850000Y-136400000D03*
D63*
X124600000Y-70650000D03*
X124600000Y-75625000D03*
D22*
X183150000Y-80300000D03*
X186750000Y-80300000D03*
D18*
X187731400Y-60487600D03*
X187731400Y-58587600D03*
D47*
X224150000Y-206700000D03*
X224150000Y-210900000D03*
D33*
X147775000Y-197650000D03*
X145875000Y-197650000D03*
D25*
X238850000Y-147975000D03*
D45*
X238850000Y-148425000D03*
X238850000Y-151025000D03*
D25*
X238850000Y-151475000D03*
D18*
X299150000Y-181650000D03*
X299150000Y-179750000D03*
D37*
X112395000Y-60650000D03*
X113665000Y-60650000D03*
X114935000Y-60650000D03*
X116205000Y-60650000D03*
X116200000Y-54450000D03*
X114935000Y-54450000D03*
X113665000Y-54450000D03*
X112395000Y-54450000D03*
D64*
X105580000Y-216265000D03*
D16*
X105580000Y-207795000D03*
X73560000Y-216395000D03*
D64*
X73440000Y-207795000D03*
D16*
X97660000Y-214085000D03*
X97660000Y-210085000D03*
X89610000Y-214085000D03*
X89610000Y-210085000D03*
X85610000Y-214085000D03*
X85610000Y-210085000D03*
X81610000Y-214085000D03*
X81610000Y-210085000D03*
D51*
X335225000Y-188225000D03*
D43*
X335225000Y-187925000D03*
X334225000Y-190925000D03*
D52*
X334225000Y-190625000D03*
D43*
X336225000Y-190925000D03*
D52*
X336225000Y-190625000D03*
D65*
X207375000Y-58770000D03*
X209915000Y-58770000D03*
X212455000Y-58770000D03*
X214995000Y-58770000D03*
X217535000Y-58770000D03*
X220075000Y-58770000D03*
X222615000Y-58770000D03*
X225155000Y-58770000D03*
X227695000Y-58770000D03*
X227695000Y-51150000D03*
X225155000Y-51150000D03*
X222615000Y-51150000D03*
X220075000Y-51150000D03*
X217535000Y-51150000D03*
X214995000Y-51150000D03*
X212455000Y-51150000D03*
X209915000Y-51150000D03*
X207375000Y-51150000D03*
D20*
X191575000Y-164250000D03*
X193475000Y-164250000D03*
X191575000Y-166500000D03*
X193475000Y-166500000D03*
D33*
X306675000Y-212225000D03*
X304775000Y-212225000D03*
X151400000Y-174475000D03*
X149500000Y-174475000D03*
D20*
X155925000Y-163725000D03*
X157825000Y-163725000D03*
D25*
X192772800Y-216791600D03*
X195312800Y-216791600D03*
X197852800Y-216791600D03*
D16*
X72344400Y-89002600D03*
X75844400Y-89002600D03*
X75844400Y-97002600D03*
D22*
X84814000Y-111099600D03*
X88414000Y-111099600D03*
D18*
X169375000Y-59675000D03*
X169375000Y-57775000D03*
D19*
X98196400Y-60594200D03*
X98196400Y-62494200D03*
D18*
X166200000Y-53325000D03*
X166200000Y-51425000D03*
D27*
X154875000Y-112900000D03*
X154875000Y-116500000D03*
D47*
X86614000Y-123553800D03*
X86614000Y-127753800D03*
D19*
X186537600Y-51805800D03*
X186537600Y-53705800D03*
X286900000Y-170250000D03*
X286900000Y-172150000D03*
D20*
X198400000Y-101425000D03*
X200300000Y-101425000D03*
D19*
X81838800Y-100131800D03*
X81838800Y-102031800D03*
D18*
X338850000Y-190350000D03*
X338850000Y-188450000D03*
D33*
X143050000Y-200075000D03*
X141150000Y-200075000D03*
D47*
X180924200Y-54237200D03*
X180924200Y-58437200D03*
D18*
X185293000Y-60487600D03*
X185293000Y-58587600D03*
D66*
X215850000Y-89725000D03*
X214600000Y-89725000D03*
D67*
X212450000Y-93725000D03*
X212450000Y-94975000D03*
X212450000Y-96225000D03*
X212450000Y-97475000D03*
X212450000Y-98725000D03*
D66*
X214600000Y-102725000D03*
X215850000Y-102725000D03*
X217100000Y-102725000D03*
X218350000Y-102725000D03*
D67*
X220450000Y-98725000D03*
X220450000Y-97475000D03*
X220450000Y-96225000D03*
X220450000Y-94975000D03*
X220450000Y-93725000D03*
D66*
X218350000Y-89725000D03*
X217100000Y-89725000D03*
D19*
X338000000Y-211625000D03*
X338000000Y-213525000D03*
D18*
X296450000Y-176075000D03*
X296450000Y-174175000D03*
D33*
X151400000Y-172125000D03*
X149500000Y-172125000D03*
D36*
X112110000Y-93475000D03*
D64*
X123650000Y-87725000D03*
D36*
X114650000Y-93475000D03*
D64*
X105650000Y-87725000D03*
D36*
X117190000Y-93475000D03*
D18*
X154875000Y-99600000D03*
X154875000Y-97700000D03*
X218900000Y-117500000D03*
X218900000Y-115600000D03*
D25*
X211275000Y-132900000D03*
D45*
X211275000Y-133350000D03*
X211275000Y-135950000D03*
D25*
X211275000Y-136400000D03*
D22*
X85223800Y-83515200D03*
X88823800Y-83515200D03*
D18*
X338050000Y-209550000D03*
X338050000Y-207650000D03*
D51*
X234475000Y-163300000D03*
D52*
X233475000Y-165700000D03*
X235475000Y-165700000D03*
D18*
X162100000Y-174300000D03*
X162100000Y-172400000D03*
X316950000Y-183425000D03*
X316950000Y-181525000D03*
D19*
X157700000Y-90187500D03*
X157700000Y-92087500D03*
D18*
X148125000Y-114825000D03*
X148125000Y-112925000D03*
D25*
X195305000Y-208975000D03*
X195305000Y-206435000D03*
X195305000Y-203895000D03*
D32*
X252425000Y-159175000D03*
D51*
X99034600Y-55162600D03*
D43*
X99034600Y-54862600D03*
X98034600Y-57862600D03*
D52*
X98034600Y-57562600D03*
D43*
X100034600Y-57862600D03*
D52*
X100034600Y-57562600D03*
D36*
X112100000Y-103475000D03*
X117075000Y-103475000D03*
D23*
X180875000Y-122000000D03*
X180875000Y-118400000D03*
D66*
X215850000Y-70925000D03*
X214600000Y-70925000D03*
D67*
X212450000Y-74925000D03*
X212450000Y-76175000D03*
X212450000Y-77425000D03*
X212450000Y-78675000D03*
X212450000Y-79925000D03*
D66*
X214600000Y-83925000D03*
X215850000Y-83925000D03*
X217100000Y-83925000D03*
X218350000Y-83925000D03*
D67*
X220450000Y-79925000D03*
X220450000Y-78675000D03*
X220450000Y-77425000D03*
X220450000Y-76175000D03*
X220450000Y-74925000D03*
D66*
X218350000Y-70925000D03*
X217100000Y-70925000D03*
D33*
X152225000Y-163725000D03*
X150325000Y-163725000D03*
D62*
X81102200Y-75946000D03*
X76102200Y-75946000D03*
D27*
X257350000Y-174650000D03*
X257350000Y-178250000D03*
D33*
X199075000Y-171700000D03*
X197175000Y-171700000D03*
D19*
X138075000Y-195500000D03*
X138075000Y-197400000D03*
D18*
X144600000Y-58475000D03*
X144600000Y-56575000D03*
D27*
X298850000Y-203675000D03*
X298850000Y-207275000D03*
D68*
X177700000Y-179350000D03*
X177700000Y-174350000D03*
D32*
X224050000Y-139450000D03*
X224050000Y-136950000D03*
X224050000Y-134450000D03*
D18*
X174200000Y-60100000D03*
X174200000Y-58200000D03*
D36*
X145140000Y-82725000D03*
D64*
X133600000Y-88475000D03*
D36*
X142600000Y-82725000D03*
D64*
X151600000Y-88475000D03*
D36*
X140060000Y-82725000D03*
D18*
X124050000Y-181075000D03*
X124050000Y-179175000D03*
D34*
X303300000Y-171750000D03*
D35*
X299450000Y-172750000D03*
D34*
X303300000Y-173750000D03*
D19*
X156375000Y-196350000D03*
X156375000Y-198250000D03*
D38*
X348300000Y-162185000D03*
X348300000Y-164725000D03*
X348300000Y-167265000D03*
X348300000Y-169805000D03*
X348300000Y-172345000D03*
X348300000Y-174885000D03*
X348300000Y-177425000D03*
X348300000Y-179965000D03*
X348300000Y-182505000D03*
X348300000Y-185045000D03*
X348300000Y-187585000D03*
X348300000Y-190125000D03*
D36*
X146925000Y-73150000D03*
X151900000Y-73150000D03*
D69*
X81381600Y-117385600D03*
X81381600Y-115385600D03*
X81381600Y-113385600D03*
X81381600Y-111385600D03*
X81381600Y-109385600D03*
D70*
X320075000Y-210325000D03*
X320875000Y-210325000D03*
X321675000Y-210325000D03*
X322475000Y-210325000D03*
X323275000Y-210325000D03*
X324075000Y-210325000D03*
X324875000Y-210325000D03*
X325675000Y-210325000D03*
X326475000Y-210325000D03*
X327275000Y-210325000D03*
X328075000Y-210325000D03*
X328875000Y-210325000D03*
D71*
X331375000Y-207825000D03*
X331375000Y-207025000D03*
X331375000Y-206225000D03*
X331375000Y-205425000D03*
X331375000Y-204625000D03*
X331375000Y-203825000D03*
X331375000Y-203025000D03*
X331375000Y-202225000D03*
X331375000Y-201425000D03*
X331375000Y-200625000D03*
X331375000Y-199825000D03*
X331375000Y-199025000D03*
D70*
X328875000Y-196525000D03*
X328075000Y-196525000D03*
X327275000Y-196525000D03*
X326475000Y-196525000D03*
X325675000Y-196525000D03*
X324875000Y-196525000D03*
X324075000Y-196525000D03*
X323275000Y-196525000D03*
X322475000Y-196525000D03*
X321675000Y-196525000D03*
X320875000Y-196525000D03*
X320075000Y-196525000D03*
D71*
X317575000Y-199025000D03*
X317575000Y-199825000D03*
X317575000Y-200625000D03*
X317575000Y-201425000D03*
X317575000Y-202225000D03*
X317575000Y-203025000D03*
X317575000Y-203825000D03*
X317575000Y-204625000D03*
X317575000Y-205425000D03*
X317575000Y-206225000D03*
X317575000Y-207025000D03*
X317575000Y-207825000D03*
D20*
X162425000Y-92500000D03*
X164325000Y-92500000D03*
D72*
X306725000Y-209525000D03*
D73*
X305725000Y-205675000D03*
D72*
X304725000Y-209525000D03*
D18*
X303600000Y-181650000D03*
X303600000Y-179750000D03*
D33*
X195920400Y-59944000D03*
X194020400Y-59944000D03*
D25*
X215425000Y-139700000D03*
D45*
X215425000Y-140150000D03*
X215425000Y-142750000D03*
D25*
X215425000Y-143200000D03*
D32*
X252500000Y-165550000D03*
D25*
X212700000Y-139700000D03*
D45*
X212700000Y-140150000D03*
X212700000Y-142750000D03*
D25*
X212700000Y-143200000D03*
D36*
X132200000Y-61100000D03*
X132200000Y-66075000D03*
D19*
X190652400Y-50180200D03*
X190652400Y-52080200D03*
D18*
X188595000Y-55306000D03*
X188595000Y-53406000D03*
D34*
X314100000Y-181475000D03*
D35*
X310250000Y-182475000D03*
D34*
X314100000Y-183475000D03*
D36*
X238920000Y-217875000D03*
X244000000Y-217875000D03*
D20*
X191575000Y-159350000D03*
X193475000Y-159350000D03*
D27*
X296175000Y-165850000D03*
X296175000Y-169450000D03*
X292900000Y-200075000D03*
X292900000Y-203675000D03*
D74*
X115070000Y-125985000D03*
X116340000Y-128525000D03*
X117610000Y-125985000D03*
X118880000Y-128525000D03*
X120150000Y-125985000D03*
X121420000Y-128525000D03*
X122690000Y-125985000D03*
X123960000Y-128525000D03*
X125230000Y-125985000D03*
X126500000Y-128525000D03*
X127770000Y-125985000D03*
X129040000Y-128525000D03*
X130310000Y-125985000D03*
X131580000Y-128525000D03*
X132850000Y-125985000D03*
X134120000Y-128525000D03*
X135390000Y-125985000D03*
X136660000Y-128525000D03*
X137930000Y-125985000D03*
X139200000Y-128525000D03*
X140470000Y-125985000D03*
X141740000Y-128525000D03*
X143010000Y-125985000D03*
X144280000Y-128525000D03*
X145550000Y-125985000D03*
X146820000Y-128525000D03*
X148090000Y-125985000D03*
X149360000Y-128525000D03*
X150630000Y-125985000D03*
X151900000Y-128525000D03*
X153170000Y-125985000D03*
X154440000Y-128525000D03*
X155710000Y-125985000D03*
X156980000Y-128525000D03*
X158250000Y-125985000D03*
X159520000Y-128525000D03*
X160790000Y-125985000D03*
X162060000Y-128525000D03*
M02*
