M48
INCH,TZ
T1C0.0118
T2C0.0157
T3C0.0315
T4C0.0315
T5C0.0354
T6C0.0394
T7C0.0433
T8C0.0472
T9C0.0492
T10C0.0591
T11C0.0630
T12C0.0669
T13C0.0787
T14C0.0945
%
G90
G05
T1
X33455Y-59931
X33937Y-59931
X34872Y-47825
X35778Y-49567
X36486Y-69508
X36978Y-69508
X37057Y-76742
X37480Y-69508
X37982Y-69508
X38484Y-69508
X38986Y-65758
X38986Y-69508
X39478Y-65758
X39478Y-71014
X39980Y-65758
X40010Y-70787
X40098Y-39459
X40305Y-39075
X40482Y-65758
X40492Y-70502
X41703Y-65709
X41850Y-73583
X41998Y-39459
X42018Y-66033
X42156Y-39075
X42175Y-73268
X42185Y-73898
X42333Y-65719
X42451Y-53632
X42451Y-54252
X42638Y-66024
X42766Y-53947
X42766Y-54557
X42776Y-53337
X42854Y-52864
X42930Y-27620
X43366Y-25335
X43366Y-25955
X44193Y-63209
X44360Y-64646
X44360Y-66978
X44360Y-67608
X44360Y-68238
X44665Y-64311
X44665Y-66663
X44665Y-67293
X44665Y-67923
X44823Y-62746
X44833Y-63209
X44980Y-64646
X45295Y-63051
X45295Y-64311
X45610Y-64646
X45620Y-63671
X45925Y-64311
X46083Y-63691
X46870Y-63366
X46870Y-64311
X46998Y-54557
X47185Y-63681
X47185Y-64616
X47313Y-54724
X47500Y-63356
X47500Y-64311
X47618Y-54892
X47953Y-42293
X48071Y-41211
X48091Y-58031
X48130Y-64311
X48258Y-42126
X48268Y-57707
X48445Y-64616
X48563Y-41959
X48563Y-57411
X48750Y-39783
X48760Y-64311
X48888Y-55699
X48888Y-59104
X48898Y-43228
X48907Y-42136
X49075Y-64616
X49213Y-43081
X49213Y-59252
X49222Y-60049
X49380Y-64311
X49390Y-55699
X49518Y-42923
X49537Y-59892
X49665Y-43435
X49803Y-65413
X49843Y-42776
X49852Y-59567
X49852Y-60197
X49892Y-55699
X50020Y-64774
X50089Y-77343
X50108Y-65728
X50138Y-60394
X50148Y-55453
X50157Y-57677
X50167Y-58317
X50305Y-43435
X50335Y-57992
X50394Y-55699
X50413Y-65413
X50561Y-77343
X50581Y-76900
X50758Y-65728
X50797Y-40207
X50807Y-43435
X50807Y-55650
X50856Y-78130
X50876Y-76732
X51024Y-76398
X51083Y-65413
X51142Y-55758
X51181Y-78445
X51191Y-77815
X51289Y-67746
X51289Y-71063
X51299Y-38002
X51299Y-70433
X51309Y-43435
X51437Y-59577
X51604Y-70748
X51614Y-71388
X51752Y-72008
X51801Y-43435
X51890Y-55797
X52067Y-71693
X52087Y-72313
X52293Y-38002
X52303Y-43435
X52392Y-55797
X52402Y-72628
X52805Y-43435
X52894Y-55797
X53297Y-38002
X53307Y-43435
X53337Y-58622
X53396Y-55797
X53632Y-57864
X53681Y-43356
X53681Y-58760
X53799Y-39921
X53819Y-37963
X53967Y-57697
X53996Y-58602
X54104Y-55797
X54134Y-66801
X54193Y-43386
X54281Y-58455
X54311Y-57520
X54587Y-58622
X54591Y-74051
X54754Y-60197
X54892Y-58465
X54902Y-74350
X55049Y-60030
X55187Y-58622
X55226Y-74065
X55364Y-59872
X55374Y-58937
X55531Y-59577
X55531Y-74370
X55846Y-74065
X55984Y-48573
X56171Y-74370
X56289Y-47933
X56299Y-56742
X56398Y-60650
X56447Y-48563
X56476Y-74065
X56634Y-57047
X56762Y-47982
X56772Y-48711
X56772Y-56732
X56772Y-59724
X56791Y-70719
X56791Y-74370
X56929Y-49035
X56929Y-59409
X57047Y-59006
X57215Y-66801
X57254Y-70886
X57283Y-72766
X57303Y-58494
X57333Y-62638
X57549Y-56781
X57667Y-55817
X57697Y-57087
X57854Y-49035
X57854Y-56142
X57884Y-62402
X57953Y-66467
X57972Y-56467
X57992Y-59134
X58199Y-66781
X58307Y-48071
X58327Y-40384
X58327Y-62402
X58553Y-47825
X58789Y-56614
X58829Y-69311
X58967Y-56260
X59114Y-40079
X59114Y-55945
X59281Y-55630
X59291Y-56407
X59311Y-48061
X59557Y-47825
X59587Y-56093
X59616Y-55522
X59632Y-55170
X59911Y-55315
X59911Y-55778
X60069Y-54764
X60226Y-55472
X60236Y-62392
X60315Y-48051
X60561Y-47795
X60669Y-26585
X60719Y-62392
X61161Y-26594
X61270Y-58346
X61289Y-54882
X61299Y-54528
X61319Y-48061
X61319Y-48711
X61555Y-47697
X61654Y-56102
X61801Y-48543
X61811Y-60187
X62274Y-48406
X62293Y-59390
X62579Y-54528
X62608Y-55157
X62687Y-36762
X62736Y-36289
X62864Y-54262
X62864Y-54882
X62864Y-55512
X62913Y-59222
X63031Y-56102
X63061Y-35837
X63484Y-36447
X64000Y-25476
X64370Y-62697
X64380Y-64439
X65217Y-35522
X65305Y-43553
X65561Y-38720
X65561Y-43248
X65591Y-36142
X65708Y-35541
X65797Y-43563
X65827Y-38474
X66053Y-43258
X66073Y-36132
X66073Y-38740
X66230Y-35522
X66309Y-43563
X66319Y-38474
X66565Y-36132
X66565Y-43258
X66575Y-38740
X66732Y-35531
X66791Y-43947
X66811Y-45128
X67057Y-36132
X67067Y-38740
X67067Y-42313
X67215Y-35531
X67303Y-44183
X67303Y-45295
X67549Y-42854
X67559Y-36132
X67579Y-38740
X67815Y-42244
X67815Y-45285
X67825Y-51063
X67825Y-69429
X67844Y-78091
X67844Y-78898
X68061Y-36250
X68071Y-38740
X68071Y-43642
X68307Y-48986
X68307Y-78406
X68317Y-35935
X68327Y-45443
X68553Y-36270
X68573Y-43543
X68632Y-78573
X68789Y-35945
X68819Y-45472
X69035Y-36191
X69055Y-60482
X69065Y-38740
X69075Y-42224
X69232Y-60787
X69311Y-49498
X69315Y-45486
X69409Y-61122
X69498Y-78130
X69547Y-42224
X69557Y-36122
X69813Y-35600
X69813Y-45236
X69813Y-49754
X69862Y-62697
X70039Y-42215
X70049Y-35906
X70069Y-45482
X70315Y-35591
X70315Y-45177
X70315Y-49990
X70364Y-78248
X70541Y-35906
X70541Y-42215
X70565Y-45439
X70728Y-33701
X70815Y-45218
X70817Y-50492
X70817Y-49980
X71053Y-48977
X71053Y-49606
X71398Y-35817
X71565Y-50177
X71732Y-38839
X71781Y-33701
X71811Y-42215
X71821Y-48976
X71870Y-36496
X72077Y-50433
X72264Y-36496
X72313Y-49035
X72549Y-50502
X72687Y-38829
X72815Y-48967
X72874Y-36663
X73189Y-36417
X74518Y-60531
X74646Y-36506
X74695Y-62411
X74833Y-61142
X74833Y-61624
X74833Y-62736
X74833Y-63199
X74833Y-63671
X74833Y-64144
X74833Y-64665
X74833Y-65079
X74833Y-65551
X74833Y-66024
X74843Y-50148
X74843Y-58878
X74843Y-59272
X74843Y-59656
X74843Y-60069
X74843Y-60689
X74843Y-62096
X74961Y-36811
X75010Y-47628
X75039Y-43327
X75049Y-45384
X75108Y-37677
X75374Y-40758
X75433Y-38002
X75719Y-59833
X76161Y-58268
X76339Y-58583
X76457Y-39459
X76496Y-58888
X76594Y-50482
X76594Y-56083
X76604Y-48268
X76624Y-38002
X76624Y-44449
X76634Y-42244
X76634Y-43189
X76634Y-43819
X76644Y-45079
X76644Y-59203
X76654Y-45709
X76654Y-48858
X76732Y-56909
X76742Y-47323
X76752Y-50157
X76772Y-44764
X76781Y-48543
X76791Y-43504
X76791Y-44134
X76801Y-45394
X76801Y-47894
X76949Y-47589
X77096Y-36280
X77116Y-58258
X77195Y-68366
X77195Y-69311
X77205Y-67441
X77254Y-58583
X77372Y-56909
X77451Y-58888
X77579Y-38002
X77589Y-59203
X77697Y-57077
X77746Y-60472
X77756Y-59528
X77894Y-39262
X77913Y-60157
X77913Y-66575
X78061Y-60640
X78209Y-39104
X78219Y-62303
X78221Y-66746
X78533Y-39242
X78671Y-56083
X78839Y-38169
X79163Y-38465
X79163Y-39104
X79281Y-35974
X79311Y-59331
X79331Y-59783
X79478Y-37539
X79596Y-39104
X79636Y-54341
X79695Y-59242
X79882Y-73720
X79882Y-74341
X79892Y-73081
X80089Y-38494
X80108Y-59134
X80197Y-74045
X80207Y-73396
X80207Y-77490
X80217Y-72776
X80256Y-64724
X80364Y-65226
X80404Y-54341
X80463Y-59104
X80531Y-77165
X80561Y-39252
X80709Y-38770
X80837Y-77323
X81033Y-51358
X81112Y-37421
X81201Y-41132
X81319Y-73091
X81467Y-77638
X81526Y-41309
X81565Y-51201
X81841Y-41161
X81969Y-35354
X82022Y-37882
X82037Y-38425
X82047Y-38888
X82146Y-51033
X82530Y-34970
X82746Y-35344
X82815Y-37490
X82815Y-37884
X82825Y-38435
X82825Y-38898
X82894Y-42136
X82923Y-51033
X83317Y-51033
X83337Y-74488
X83602Y-36348
X83671Y-34085
X83770Y-51033
X83947Y-50640
X83986Y-39370
X83996Y-34724
X84006Y-34252
X84183Y-50344
X84508Y-74035
X84577Y-50335
X84990Y-73691
X85069Y-20974
X85138Y-41427
X85276Y-74026
X85394Y-38199
X85463Y-37815
X85463Y-41270
X85472Y-34409
X85571Y-73720
X85778Y-44400
X85856Y-74035
X85915Y-76535
X85935Y-69744
X85974Y-44715
X86161Y-45000
X86191Y-68671
X86201Y-73711
X86250Y-69429
X86506Y-43858
X86644Y-65699
X86806Y-73588
X86831Y-43543
X86831Y-44173
X86870Y-48366
X86870Y-69429
X86890Y-48858
X86900Y-35748
X86909Y-42274
X86969Y-62402
X86988Y-43848
X87047Y-41949
X87116Y-69774
X87288Y-73095
X87293Y-72539
X87293Y-74341
X87490Y-36014
X87510Y-51811
X87598Y-68996
X87598Y-72933
X87618Y-36850
X87628Y-36407
X87648Y-21476
X87677Y-37333
X87677Y-37874
X87677Y-38376
X87687Y-38868
X87766Y-75453
X87894Y-73632
X87913Y-40463
X87923Y-72293
X87953Y-51811
X87982Y-39990
X87992Y-39350
X88051Y-68996
X88091Y-60217
X88091Y-75620
X88386Y-38868
X88386Y-60059
X88396Y-75453
X88484Y-39429
X88543Y-38376
X88691Y-68307
X88701Y-37844
X88720Y-45709
X88720Y-59902
X88760Y-68681
X88780Y-34793
X88839Y-74035
X88839Y-74528
X88848Y-69065
X88858Y-37323
X88888Y-73553
X88898Y-51348
X88907Y-50719
X88937Y-75384
X88976Y-36417
X89016Y-59734
X89055Y-63976
X89085Y-50118
X89124Y-64528
X89203Y-51033
X89222Y-49311
X89222Y-49803
X89252Y-73789
X89252Y-74281
X89311Y-48671
X89331Y-71348
X89341Y-69911
X89360Y-59567
X89478Y-71742
X89498Y-51654
X89498Y-55315
X89656Y-72146
X89675Y-74970
X89695Y-59419
X89705Y-78022
X89892Y-78425
X89980Y-59262
X90285Y-59104
X90561Y-71978
X90581Y-58947
X90728Y-71663
X90915Y-71358
X90955Y-73691
X91083Y-61939
X91220Y-61624
X91378Y-61319
X91545Y-60994
X91693Y-60689
X91693Y-77480
X91781Y-75886
X91831Y-60344
X91841Y-78494
X92008Y-60049
X92165Y-59744
X92165Y-76073
X92234Y-78573
X92500Y-77431
X93110Y-78730
X93278Y-75886
X93406Y-79134
X93465Y-77451
X93602Y-72116
X93720Y-78878
X93878Y-75679
X93976Y-78583
X94350Y-75689
X94370Y-77461
X94852Y-77697
X94941Y-71565
X95305Y-71585
X96073Y-57815
X96161Y-72785
X96250Y-73661
X96378Y-74537
X96526Y-72559
X96624Y-74331
X96673Y-73199
X96870Y-79104
X96969Y-73474
X97047Y-73091
X97195Y-75994
X97205Y-83917
X97244Y-86703
X97254Y-74429
X97510Y-73543
X97520Y-75896
X97835Y-75984
X97864Y-74065
X98110Y-77835
X98750Y-77628
X98780Y-81486
X98858Y-78583
X98888Y-74990
X99075Y-84301
X99478Y-76526
X99577Y-84311
X100433Y-78268
X100433Y-78642
X100502Y-81102
X100679Y-80157
X100827Y-79449
X100906Y-81683
X101634Y-78947
X101841Y-78652
X101860Y-79242
X102018Y-80541
X102244Y-80876
X102559Y-80610
X102569Y-84232
X102648Y-78957
X102894Y-80846
X102894Y-81467
X103031Y-79813
X103041Y-78967
X103041Y-79350
X103602Y-80837
X103602Y-81329
X104453Y-71787
X104833Y-71722
X105108Y-83356
X105394Y-79823
X105482Y-76555
X105541Y-78711
X105541Y-79104
X105551Y-79498
X105699Y-72795
X105945Y-79892
X105994Y-71014
X106073Y-65374
X106083Y-72638
X106083Y-81201
X106230Y-79675
X106299Y-71319
X106329Y-80236
X106476Y-77126
X106476Y-77530
X106624Y-80118
X106693Y-71161
X106720Y-82870
X106870Y-81240
X106969Y-80364
X107037Y-71388
X107037Y-80748
X107274Y-74892
X107638Y-71319
X107667Y-74892
X108022Y-70925
X108061Y-74892
X108268Y-69882
X108287Y-80994
X108356Y-70600
X108445Y-69094
X108455Y-74892
X108848Y-74892
X109242Y-74892
X109242Y-81309
X109252Y-86959
X109616Y-70039
X109636Y-74892
X109724Y-76565
X110039Y-74892
X110089Y-83563
X110148Y-76555
X110413Y-83720
X110423Y-74892
X110423Y-81398
X110472Y-67992
X110827Y-76654
X111014Y-77136
X111102Y-68159
X111102Y-69656
X111447Y-74892
X111575Y-68159
X111880Y-77136
X112156Y-74892
X112254Y-80768
X112390Y-78520
X112559Y-80443
X112717Y-74892
X112913Y-81565
X112913Y-82067
X112953Y-82510
X113002Y-68159
X113159Y-74951
X113209Y-82805
X113238Y-81811
X113406Y-82313
X113425Y-72441
X113435Y-68051
X113937Y-67992
X113957Y-69724
X113957Y-70207
X114065Y-79085
X114075Y-79734
X114242Y-83612
X114478Y-70207
X114715Y-72697
X114740Y-82310
X114843Y-76959
X114872Y-67982
X114990Y-69262
X115128Y-82283
X115187Y-72864
X115187Y-73720
X115266Y-67992
X115423Y-82480
X115669Y-82146
X115935Y-68799
X115984Y-70197
X116063Y-82933
X116122Y-75620
X116201Y-68002
X116240Y-76880
X116250Y-73573
X116250Y-76260
X116329Y-75335
X116457Y-73100
X116486Y-75925
X116506Y-76575
X116860Y-83366
X116929Y-83868
X117067Y-82224
X117136Y-73356
X117343Y-70354
X117352Y-68012
X117352Y-69724
X117451Y-83228
X117470Y-83632
X117520Y-69400
X117618Y-73494
X117667Y-69104
X117835Y-70354
X117923Y-84203
X118031Y-73967
X118268Y-73593
X118268Y-83661
X118484Y-82264
X118484Y-82687
X118524Y-83081
X118622Y-70374
X119577Y-70325
X121319Y-74498
X121427Y-72234
X121762Y-79459
X121791Y-73091
X121909Y-73809
X121914Y-74158
X121939Y-83858
X122028Y-82608
X122156Y-80030
X122165Y-80413
X122411Y-81053
X122480Y-80650
X122549Y-85128
X122657Y-84429
X122726Y-84803
X122766Y-61703
X122953Y-81201
X122982Y-73002
X123268Y-81988
X123839Y-81933
X123848Y-81191
X124291Y-76476
X124596Y-76329
X124911Y-76132
X125945Y-76604
X126890Y-74163
X127274Y-78199
X127343Y-76309
X127579Y-72648
X127746Y-76309
X128051Y-84173
X128140Y-76309
X128514Y-72648
X128543Y-74419
X128543Y-84173
X128563Y-76339
X128858Y-74606
X128878Y-85896
X128996Y-76309
X129163Y-74429
X129636Y-81506
X130118Y-85906
X130561Y-77244
X131201Y-78986
X131358Y-81339
X131506Y-76545
X131545Y-82589
X131663Y-81033
X132136Y-84488
X133071Y-84488
X133711Y-81801
T2
X27805Y-39951
X27805Y-40738
X27972Y-18091
X27972Y-19350
X27972Y-20620
X27972Y-26909
X27972Y-28642
X27972Y-29902
X27972Y-32254
X27972Y-33199
X28110Y-38947
X28278Y-48297
X28278Y-50650
X28278Y-53022
X28278Y-55374
X28278Y-58356
X28278Y-60876
X28278Y-63386
X28278Y-66220
X28278Y-68406
X28278Y-71093
X28278Y-73445
X28278Y-76575
X28278Y-79104
X28819Y-38947
X28819Y-39537
X29240Y-30990
X29242Y-18730
X29380Y-79744
X29547Y-77215
X30167Y-87943
X30492Y-19980
X30512Y-17461
X30797Y-80994
X30830Y-41200
X30830Y-41830
X31460Y-41200
X31460Y-41830
X31752Y-48278
X31752Y-50659
X31752Y-53022
X31772Y-18720
X32234Y-80994
X32380Y-40730
X32390Y-31950
X32490Y-36467
X32520Y-87943
X32830Y-46710
X33010Y-32270
X33031Y-17461
X33150Y-41180
X33190Y-29600
X33307Y-80994
X33327Y-34144
X33330Y-30680
X33330Y-38860
X33790Y-42470
X33950Y-38900
X33957Y-34144
X34360Y-65738
X34360Y-71752
X34750Y-42320
X34892Y-57726
X34892Y-58986
X35040Y-41830
X35167Y-87943
X35197Y-34134
X35210Y-36190
X35551Y-17461
X35640Y-32215
X36801Y-30679
X37441Y-23927
X37570Y-21090
X37697Y-87943
X38071Y-17461
X38878Y-17461
X39163Y-19193
X39290Y-25010
X39616Y-55364
X39616Y-56939
X39616Y-58524
X39616Y-74705
X40170Y-23060
X40187Y-87943
X41181Y-74705
X41181Y-76250
X41211Y-64016
X41240Y-69646
X41841Y-64321
X42008Y-45778
X42180Y-23920
X42441Y-64321
X42640Y-21410
X42667Y-19035
X42726Y-76250
X42805Y-17461
X42810Y-22030
X43012Y-18091
X43031Y-87943
X43041Y-64321
X43514Y-82717
X44016Y-77835
X44055Y-20315
X44469Y-72008
X44547Y-69488
X44685Y-20315
X44695Y-25030
X44715Y-17461
X45000Y-19850
X45250Y-20295
X45266Y-87943
X45630Y-69006
X45630Y-70285
X45650Y-73720
X45856Y-22352
X45866Y-22913
X46053Y-77835
X46102Y-66811
X46447Y-73720
X46565Y-70285
X46594Y-69006
X46713Y-45630
X46732Y-66801
X47008Y-25640
X47037Y-57579
X47037Y-73711
X47215Y-17461
X47810Y-23460
X48071Y-87943
X48268Y-43602
X48290Y-21090
X48711Y-23524
X48839Y-69803
X48839Y-72008
X49685Y-23435
X49705Y-17461
X49715Y-45610
X49803Y-21693
X49813Y-20463
X50236Y-87943
X50827Y-84419
X52224Y-17461
X52549Y-75758
X53533Y-86142
X53582Y-76534
X53612Y-78278
X53612Y-80335
X53720Y-83947
X53829Y-74331
X54094Y-67785
X54094Y-69035
X54528Y-79222
X54715Y-45413
X54754Y-17461
X54931Y-86152
X55000Y-68415
X55000Y-69665
X55207Y-22815
X55335Y-87943
X55404Y-81102
X55502Y-39114
X55728Y-83445
X56152Y-45098
X56654Y-81093
X56663Y-83848
X56801Y-76870
X56880Y-77805
X57106Y-17461
X57254Y-45630
X57372Y-63494
X57402Y-47923
X57421Y-65699
X57549Y-26112
X57608Y-83789
X58140Y-21850
X58287Y-76713
X58524Y-83799
X58632Y-64459
X58661Y-65659
X58976Y-62372
X58996Y-67106
X59134Y-37687
X59222Y-76870
X59291Y-60167
X59311Y-83494
X59577Y-67077
X59596Y-62392
X59596Y-63494
X59685Y-73100
X59764Y-17461
X59793Y-74331
X59911Y-37687
X60246Y-81250
X60335Y-77185
X60335Y-79242
X60354Y-87943
X60404Y-79843
X60404Y-80463
X60413Y-77815
X60413Y-78425
X60482Y-83494
X60659Y-64459
X60728Y-37687
X60817Y-24203
X60817Y-86781
X60945Y-65344
X61142Y-23770
X61437Y-62589
X61467Y-23258
X61476Y-85541
X61496Y-22638
X61496Y-65344
X61604Y-22008
X61624Y-33159
X61624Y-37382
X61722Y-84577
X62106Y-19665
X62126Y-45719
X62126Y-62520
X62126Y-65344
X62136Y-67096
X62431Y-17461
X62579Y-45413
X62677Y-71516
X62741Y-67141
X62785Y-64429
X62785Y-77313
X62795Y-79705
X63012Y-87943
X63071Y-35404
X63120Y-75463
X63199Y-86781
X63228Y-31949
X63238Y-69291
X63573Y-65344
X63878Y-67087
X64183Y-19656
X64183Y-30207
X64183Y-38199
X64478Y-71516
X64478Y-75463
X64478Y-83642
X64774Y-86781
X64823Y-17461
X65128Y-21516
X65128Y-22628
X65138Y-23563
X65295Y-83642
X65295Y-85522
X65492Y-57018
X65502Y-55600
X65581Y-87943
X65748Y-73248
X65955Y-29222
X66053Y-70394
X66398Y-19646
X66654Y-71654
X66998Y-21998
X67352Y-17461
X68130Y-19813
X68268Y-21988
X68455Y-68809
X68612Y-24350
X68720Y-54400
X68720Y-55699
X68898Y-28455
X68947Y-19882
X68947Y-29222
X69035Y-21988
X69751Y-19820
X69852Y-17461
X69911Y-24350
X69980Y-58022
X69990Y-54400
X70148Y-56457
X70443Y-25148
X70610Y-58504
X70994Y-24744
X71063Y-57559
X72008Y-20600
X72362Y-17461
X72648Y-22303
X72795Y-57559
X72825Y-40502
X73002Y-42254
X73376Y-22303
X73583Y-19793
X73622Y-34094
X73760Y-54242
X73819Y-59193
X73898Y-55177
X73898Y-56427
X73910Y-22320
X73917Y-40266
X73917Y-46220
X74065Y-62096
X74370Y-19813
X74892Y-17461
X75492Y-23091
X75512Y-34252
X75800Y-30807
X76191Y-55128
X76604Y-20423
X76752Y-31604
X76801Y-46171
X76811Y-46772
X76939Y-41506
X77431Y-17274
X77697Y-88091
X77746Y-50256
X77746Y-51181
X77904Y-42274
X77913Y-45049
X77913Y-45837
X78179Y-41201
X78789Y-49833
X79124Y-45207
X79380Y-86732
X79380Y-88091
X79577Y-31122
X79754Y-51230
X79764Y-41201
X79931Y-17274
X80089Y-23219
X80266Y-55108
X80315Y-68091
X80640Y-83386
X80640Y-86161
X80679Y-23219
X80679Y-45207
X80709Y-62224
X80709Y-64163
X80719Y-66033
X80837Y-80945
X81211Y-46014
X81211Y-46929
X81250Y-88091
X81526Y-42717
X81526Y-44006
X81998Y-59518
X82224Y-83386
X82224Y-86171
X82274Y-41319
X82323Y-81850
X82333Y-79498
X82451Y-17274
X83425Y-72421
X83425Y-79646
X84006Y-44636
X84045Y-57854
X84045Y-61900
X84055Y-66033
X84911Y-17274
X85089Y-42047
X85089Y-51201
X85197Y-30787
X85423Y-38622
X85679Y-77343
X85807Y-47254
X85925Y-42717
X85945Y-55128
X86122Y-85541
X86211Y-64321
X86211Y-66033
X86250Y-47598
X86250Y-51181
X86526Y-63356
X86604Y-88130
X86831Y-76535
X86841Y-49961
X86860Y-46171
X86870Y-61880
X86880Y-49321
X86988Y-64311
X87303Y-68209
X87451Y-17274
X87943Y-60778
X88031Y-41093
X88307Y-67352
X88317Y-80423
X88986Y-62116
X89075Y-88071
X89439Y-76250
X89951Y-17274
X90502Y-83425
X91535Y-17569
X91555Y-88071
X91850Y-19311
X91850Y-20886
X91860Y-81880
X92205Y-79626
X92795Y-82195
X92805Y-80797
X92972Y-86762
X93130Y-23927
X93130Y-24498
X93140Y-22274
X93140Y-22825
X93140Y-23386
X93455Y-57677
X93888Y-68671
X93888Y-69478
X94065Y-88071
X94134Y-82195
X94675Y-20079
X94675Y-21506
X94675Y-23081
X94675Y-25423
X94675Y-28110
X94675Y-30472
X94675Y-33150
X94675Y-35659
X94675Y-38189
X94675Y-40846
X94675Y-43209
X94675Y-45896
X94675Y-48248
X94675Y-69478
X94843Y-49980
X95472Y-50610
X95591Y-74183
X95807Y-59970
X95807Y-61614
X95945Y-83996
X96693Y-62224
X96900Y-88071
X97037Y-80000
X97323Y-55620
X97697Y-80039
X98012Y-56545
X98140Y-50276
X98268Y-55620
X98337Y-81299
X99104Y-88071
X99154Y-59085
X99154Y-59793
X99705Y-59242
X100000Y-60787
X100049Y-70394
X100089Y-68789
X100404Y-66585
X100679Y-50276
X101644Y-88071
X101673Y-75128
X101673Y-76496
X102087Y-64094
X102283Y-68632
X102283Y-76417
X102461Y-75098
X102874Y-64114
X102874Y-71171
X102913Y-68947
X102923Y-76260
X103041Y-61594
X103248Y-75089
X103278Y-50276
X103278Y-51073
X103563Y-76033
X103661Y-63947
X104094Y-68937
X104144Y-52165
X104163Y-88071
X104439Y-66447
X105000Y-66545
X105069Y-65522
X105236Y-53100
X105866Y-53730
X106033Y-83346
X106654Y-53730
X106654Y-56417
X106801Y-58780
X106969Y-88071
X107185Y-72264
X107421Y-79321
X107569Y-58287
X109173Y-88071
X110089Y-79321
X110089Y-80315
X110098Y-58287
X111102Y-72264
X112352Y-88071
X112608Y-58287
X114060Y-78540
X114280Y-81340
X114419Y-72234
X114560Y-77440
X114990Y-88071
X115167Y-58287
X115800Y-81510
X116299Y-61781
X116939Y-67982
X117805Y-58287
X118317Y-88071
X118327Y-79469
X118622Y-66811
X118967Y-81969
X119242Y-61781
X119882Y-79587
X120325Y-58287
X120384Y-63917
X120866Y-88071
X121004Y-85915
X121624Y-82933
X122884Y-70512
X123051Y-58287
X123189Y-70039
X123533Y-85738
X124173Y-88071
X124498Y-83543
X124980Y-77569
X125236Y-58287
X125423Y-72520
X125984Y-78346
X126004Y-79301
X126014Y-81841
X126122Y-85689
X126841Y-88071
X127638Y-58287
X127746Y-79449
X128071Y-64045
X128848Y-81831
X129016Y-78199
X129291Y-68297
X129311Y-69075
X129350Y-88071
X129459Y-78671
X129459Y-79606
X129665Y-65482
X130236Y-73150
X130246Y-58287
X130541Y-62067
X131191Y-85423
X131644Y-69370
X131703Y-80384
X131801Y-68169
X131850Y-88071
X132126Y-69528
X132923Y-58287
X133406Y-73780
X133593Y-79902
X133730Y-82608
X134262Y-77638
X134262Y-79222
X134400Y-88071
X135295Y-58287
X135482Y-81142
X136270Y-84931
X136417Y-59163
X136919Y-88071
X137215Y-76437
X137234Y-80217
X137972Y-61033
X138179Y-87451
X138209Y-78789
X138789Y-77234
X138809Y-79577
X138819Y-87923
X139094Y-61033
X139094Y-63238
X139094Y-66073
X139094Y-68583
X139094Y-71093
X139094Y-73140
X139094Y-76122
X139124Y-81161
X139124Y-83514
X139124Y-86201
T3
X31909Y-58356
X33622Y-61181
X35207Y-37283
X36309Y-38081
X36742Y-45207
X38455Y-50630
X40039Y-28455
X40270Y-29890
X41526Y-51722
X42087Y-25000
X42972Y-26900
X44331Y-52736
X44331Y-54852
X45167Y-76752
X45167Y-78907
X45610Y-51732
X46250Y-61299
X46742Y-20148
X47067Y-86772
X48278Y-47028
X50837Y-83652
X53150Y-19961
X53150Y-20610
X53238Y-30354
X53455Y-23907
X56152Y-46969
X58268Y-80492
X61299Y-55531
X61752Y-27392
X61939Y-30207
X62933Y-52736
X64183Y-32943
X64183Y-35394
X64183Y-40846
X64183Y-45325
X65157Y-51703
X69803Y-63494
X72283Y-70630
X72313Y-68652
X73484Y-33130
X74557Y-30807
X74557Y-34862
X75226Y-54183
X75827Y-27047
X76447Y-33130
X76752Y-29695
X77904Y-44016
X79016Y-77441
X80886Y-31407
X81998Y-64616
X82333Y-80817
X82913Y-27972
X83071Y-21634
X83425Y-81811
X85039Y-64616
X85285Y-26220
X86024Y-80925
X88081Y-33297
X89636Y-21211
X91083Y-27323
X91270Y-53711
X91270Y-55797
X91594Y-85797
X92352Y-54705
X92352Y-56732
X92766Y-73671
X94370Y-55748
X94380Y-56909
X95370Y-64050
X99606Y-67047
X100443Y-85000
X100453Y-85935
X100797Y-53711
X101171Y-63957
X101407Y-62677
X101417Y-65177
X101594Y-54705
X103376Y-56201
X106171Y-62047
X108494Y-85000
X108504Y-85935
X110039Y-85935
X112953Y-65423
X113022Y-64370
X117864Y-64537
X119400Y-85935
X120187Y-85000
X121309Y-69882
X122923Y-78681
X123169Y-63681
X130443Y-61220
X133071Y-65482
X135236Y-63730
T4
X45303Y-49600
X45803Y-50600
X46303Y-49600
X46803Y-50600
X47303Y-49600
X47803Y-50600
X48303Y-49600
X48803Y-50600
X49303Y-49600
X49803Y-50600
X50303Y-49600
X50803Y-50600
X51303Y-49600
X51803Y-50600
X52303Y-49600
X52803Y-50600
X53303Y-49600
X53803Y-50600
X54087Y-21093
X54303Y-49600
X54587Y-20093
X54803Y-50600
X55087Y-21093
X55303Y-49600
X55587Y-20093
X55803Y-50600
X56087Y-21093
X56303Y-49600
X56587Y-20093
X56803Y-50600
X57087Y-21093
X57303Y-49600
X57587Y-20093
X57803Y-50600
X58087Y-21093
X58303Y-49600
X58587Y-20093
X58803Y-50600
X59087Y-21093
X59303Y-49600
X59587Y-20093
X59803Y-50600
X60087Y-21093
X60303Y-49600
X60587Y-20093
X60803Y-50600
X61303Y-49600
X61803Y-50600
X62303Y-49600
X62803Y-50600
X63303Y-49600
X63803Y-50600
X69925Y-72943
X69925Y-75943
X75925Y-72943
X75925Y-75943
X90463Y-70482
X91250Y-70482
X92037Y-70482
X92825Y-70482
X93612Y-70482
X94400Y-70482
X95187Y-70482
X95974Y-70482
X98209Y-86890
X98996Y-86890
X101358Y-86890
X102146Y-86890
X102933Y-86890
X103720Y-86890
X104508Y-86890
X105295Y-86890
X106083Y-63612
X106083Y-86890
X106870Y-63612
X106870Y-86890
X107657Y-63612
X107657Y-86890
X108445Y-63612
X108445Y-86890
X109232Y-63612
X110020Y-63612
X110807Y-63612
X111152Y-86890
X111594Y-63612
X111939Y-86890
X112726Y-86890
X113514Y-86890
X113799Y-63612
X114301Y-86890
X114587Y-63612
X115089Y-86890
X115374Y-63612
X115876Y-86890
X116161Y-63612
X116663Y-86890
X116949Y-63612
X117451Y-86890
X117736Y-63612
X118238Y-86890
X118524Y-63612
X119311Y-63612
X120551Y-60797
X121260Y-64783
X121260Y-65571
X121260Y-66358
X121260Y-67146
X121260Y-67933
X121260Y-68720
X121339Y-60797
X123809Y-62333
X124596Y-62333
X125384Y-62333
X126171Y-62333
X126959Y-62333
X127746Y-62333
X128533Y-62333
X132470Y-86890
X133258Y-86890
X134045Y-86890
X134833Y-86890
X135620Y-86890
X136407Y-86890
X137195Y-86890
T5
X69961Y-68642
X69961Y-70610
X70502Y-84823
X70502Y-85807
X71309Y-85807
X71486Y-84823
X72352Y-84823
X72352Y-85807
X73179Y-84823
X73179Y-85807
X81644Y-20138
X81644Y-23138
X82644Y-20138
X82644Y-23138
X83644Y-20138
X83644Y-23138
X84644Y-20138
X84644Y-23138
X85644Y-20138
X85644Y-23138
X86644Y-20138
X86644Y-23138
X87644Y-20138
X87644Y-23138
X88644Y-20138
X88644Y-23138
X89644Y-20138
X89644Y-23138
T6
X35472Y-19183
X35472Y-20167
X35472Y-22018
X35472Y-23002
X35472Y-24843
X35472Y-25827
X37441Y-19183
X37441Y-20167
X37441Y-22018
X37441Y-23002
X37441Y-24843
X37441Y-25827
X57037Y-69547
X85516Y-79301
X86516Y-79301
X99380Y-62667
X99409Y-65177
X123654Y-66398
X124654Y-66398
X125654Y-66398
X126654Y-66398
X127654Y-66398
X128654Y-66398
X129654Y-66398
X130654Y-66398
X131654Y-66398
X132654Y-66398
X133654Y-66398
X134654Y-66398
X137126Y-63852
X137126Y-64852
X137126Y-65852
X137126Y-66852
X137126Y-67852
X137126Y-68852
X137126Y-69852
X137126Y-70852
X137126Y-71852
X137126Y-72852
X137126Y-73852
X137126Y-74852
T7
X88209Y-52933
X88209Y-53917
X88209Y-54902
T8
X30305Y-67096
X30305Y-75364
X35467Y-27530
X36467Y-27530
X37467Y-27530
X37711Y-78612
X38986Y-33986
X39670Y-78612
X41063Y-40217
X41063Y-42175
X43848Y-27392
X44134Y-40738
X45807Y-27392
X46093Y-40738
X48740Y-76713
X49055Y-27815
X49055Y-29774
X52047Y-24055
X52047Y-26014
X53238Y-28799
X55197Y-28799
X55856Y-24173
X55856Y-26132
X57844Y-28799
X59803Y-28799
X69959Y-80303
X69959Y-82303
X70096Y-27047
X71821Y-80270
X71821Y-81270
X71821Y-82270
X72096Y-27047
X73083Y-80270
X73083Y-81270
X73083Y-82270
X74341Y-80266
X74341Y-81266
X74341Y-82266
X74687Y-68622
X74687Y-70622
X75612Y-80274
X75612Y-81274
X75612Y-82274
X75895Y-85351
X75900Y-84091
X76892Y-80274
X76892Y-81274
X76892Y-82274
X76895Y-85351
X76900Y-84091
X77895Y-85351
X77900Y-84091
X91520Y-66750
X91520Y-67750
X91520Y-68750
X94063Y-85778
X96063Y-85778
X99370Y-50541
X107055Y-60955
X109055Y-60955
X120935Y-58652
X124281Y-68169
X124281Y-70128
X132579Y-61624
X132579Y-62904
X133711Y-68150
X133711Y-70108
X133858Y-61624
X133858Y-62904
T9
X44138Y-36801
X45138Y-36801
X46138Y-36801
X55142Y-32569
X56142Y-32569
X57142Y-32569
T10
X28987Y-22786
X28987Y-24754
X31940Y-20817
X31940Y-23770
X31940Y-26723
X32924Y-21801
X32924Y-25739
X78632Y-28474
X80591Y-28474
T11
X28913Y-81809
X28961Y-85195
X32130Y-82711
X32130Y-84285
X33705Y-82711
X33705Y-84285
X35280Y-82711
X35280Y-84285
X38449Y-82711
X38449Y-84285
X41567Y-81809
X41567Y-85144
T12
X28482Y-35040
X29860Y-35040
X29860Y-38190
X30305Y-57421
X30305Y-65295
T13
X41594Y-34537
X48681Y-34537
X52598Y-34833
X59685Y-34833
T14
X69222Y-86988
X71801Y-87283
X74498Y-86988
T5
G00X29931Y-55217
M15
G01X30049Y-55217
M16
G05
G00X30915Y-55217
M15
G01X31033Y-55217
M16
G05
T6
G00X28003Y-21900
M15
G01X28003Y-21703
M16
G05
G00X28003Y-25837
M15
G01X28003Y-25640
M16
G05
T0
M30
