G04 #@! TF.GenerationSoftware,KiCad,Pcbnew,7.0.8*
G04 #@! TF.CreationDate,2023-11-03T12:20:07+01:00*
G04 #@! TF.ProjectId,PCE,5043452e-6b69-4636-9164-5f7063625858,rev?*
G04 #@! TF.SameCoordinates,Original*
G04 #@! TF.FileFunction,Profile,NP*
%FSLAX46Y46*%
G04 Gerber Fmt 4.6, Leading zero omitted, Abs format (unit mm)*
G04 Created by KiCad (PCBNEW 7.0.8) date 2023-11-03 12:20:07*
%MOMM*%
%LPD*%
G01*
G04 APERTURE LIST*
G04 #@! TA.AperFunction,Profile*
%ADD10C,0.100000*%
G04 #@! TD*
G04 #@! TA.AperFunction,Profile*
%ADD11C,0.050000*%
G04 #@! TD*
G04 APERTURE END LIST*
D10*
X118200000Y-226100000D02*
X69325000Y-226100000D01*
X242000000Y-42750000D02*
X242000000Y-120500000D01*
X236250001Y-53598653D02*
G75*
G03*
X238549999Y-53598653I1149999J1149998D01*
G01*
X69646800Y-41750000D02*
X241000000Y-41750000D01*
X140150000Y-92675000D02*
G75*
G03*
X140150000Y-92675000I-1550000J0D01*
G01*
X132900000Y-83525000D02*
G75*
G03*
X132900000Y-83525000I-1550000J0D01*
G01*
X181574605Y-148324801D02*
G75*
G03*
X181574609Y-150624803I1149995J-1149999D01*
G01*
X230325000Y-225700000D02*
X260775000Y-225700000D01*
X118200000Y-226100000D02*
X118200000Y-225950000D01*
X68732400Y-96316800D02*
X68732400Y-42675000D01*
X95475000Y-149600000D02*
G75*
G03*
X95475000Y-149600000I-1150000J0D01*
G01*
X348400000Y-199125000D02*
G75*
G03*
X348400000Y-199125000I-2400000J0D01*
G01*
X241000000Y-41750000D02*
X242000000Y-42750000D01*
X113000000Y-82700000D02*
G75*
G03*
X113000000Y-82700000I-1550000J0D01*
G01*
X242000000Y-120500000D02*
G75*
G03*
X247000000Y-125500000I5000000J0D01*
G01*
X69325000Y-226100000D02*
X68732400Y-225501200D01*
X352575000Y-151275000D02*
G75*
G03*
X352575000Y-151275000I-2100000J0D01*
G01*
X69975000Y-117925000D02*
X69975000Y-118925000D01*
X247000000Y-125500000D02*
X272500000Y-125500000D01*
X355500000Y-147500000D02*
X355500000Y-225100000D01*
X273500000Y-142000000D02*
G75*
G03*
X278000000Y-146500000I4500000J0D01*
G01*
X239800000Y-46475000D02*
G75*
G03*
X239800000Y-46475000I-2400000J0D01*
G01*
X126900000Y-92675000D02*
G75*
G03*
X126900000Y-92675000I-1550000J0D01*
G01*
X69975000Y-107550000D02*
X68732400Y-107550000D01*
X184575000Y-141575000D02*
G75*
G03*
X184575000Y-141575000I-1875000J0D01*
G01*
X181574608Y-150624804D02*
X183798654Y-150625196D01*
X69975000Y-107550000D02*
X69975000Y-108550000D01*
X118450000Y-225700000D02*
X153550000Y-225700000D01*
X148125000Y-92675000D02*
G75*
G03*
X148125000Y-92675000I-1550000J0D01*
G01*
X120225000Y-89125000D02*
G75*
G03*
X120225000Y-89125000I-1550000J0D01*
G01*
X68732400Y-225501200D02*
X68732400Y-118925000D01*
X354500000Y-146500000D02*
X355500000Y-147500000D01*
X69975000Y-108550000D02*
X68732400Y-108550000D01*
X181574608Y-148324804D02*
X183798654Y-148325196D01*
X273500000Y-126500000D02*
X273500000Y-142000000D01*
X153800000Y-225950000D02*
X153550000Y-225700000D01*
X132900000Y-92675000D02*
G75*
G03*
X132900000Y-92675000I-1550000J0D01*
G01*
X68732400Y-107550000D02*
X68732400Y-97688400D01*
X229925000Y-226100000D02*
X230325000Y-225700000D01*
X214650000Y-222400000D02*
G75*
G03*
X214650000Y-222400000I-1150000J0D01*
G01*
X68732400Y-117925000D02*
X68732400Y-108550000D01*
X229925000Y-226100000D02*
X153800000Y-226100000D01*
X354500000Y-226100000D02*
X261025000Y-226100000D01*
X270875000Y-130350000D02*
G75*
G03*
X270875000Y-130350000I-2400000J0D01*
G01*
X355500000Y-225100000D02*
X354500000Y-226100000D01*
X238550391Y-51374609D02*
G75*
G03*
X236250393Y-51374609I-1149999J-1149998D01*
G01*
X183798657Y-150625199D02*
G75*
G03*
X183798653Y-148325197I-1149957J1149999D01*
G01*
X126900000Y-83525000D02*
G75*
G03*
X126900000Y-83525000I-1550000J0D01*
G01*
X68732400Y-97688400D02*
G75*
G03*
X68732400Y-96316800I412000J685800D01*
G01*
X108225000Y-82700000D02*
G75*
G03*
X108225000Y-82700000I-1550000J0D01*
G01*
X69975000Y-117925000D02*
X68732400Y-117925000D01*
X261025000Y-226100000D02*
X261025000Y-225950000D01*
X83400000Y-199450000D02*
G75*
G03*
X83400000Y-199450000I-2400000J0D01*
G01*
X236250392Y-51374608D02*
X236250000Y-53598654D01*
X261025000Y-225950000D02*
X260775000Y-225700000D01*
X105950000Y-46575000D02*
G75*
G03*
X105950000Y-46575000I-2400000J0D01*
G01*
X272500000Y-125500000D02*
X273500000Y-126500000D01*
X69975000Y-118925000D02*
X68732400Y-118925000D01*
X278000000Y-146500000D02*
X354500000Y-146500000D01*
X153800000Y-226100000D02*
X153800000Y-225950000D01*
X238550392Y-51374608D02*
X238550000Y-53598654D01*
X215850000Y-216300000D02*
G75*
G03*
X215850000Y-216300000I-2400000J0D01*
G01*
X75700000Y-221550000D02*
G75*
G03*
X75700000Y-221550000I-2100000J0D01*
G01*
X68732400Y-42675000D02*
X69646800Y-41750000D01*
X118200000Y-225950000D02*
X118450000Y-225700000D01*
X96200000Y-141575000D02*
G75*
G03*
X96200000Y-141575000I-1875000J0D01*
G01*
D11*
X214330000Y-200375000D02*
X215730000Y-200375000D01*
X215730000Y-200375000D02*
X215730000Y-202475000D01*
X215730000Y-202475000D02*
X214330000Y-202475000D01*
X214330000Y-202475000D02*
X214330000Y-200375000D01*
X221130000Y-199925000D02*
X222530000Y-199925000D01*
X222530000Y-199925000D02*
X222530000Y-202925000D01*
X222530000Y-202925000D02*
X221130000Y-202925000D01*
X221130000Y-202925000D02*
X221130000Y-199925000D01*
X339125417Y-157450000D02*
G75*
G03*
X339125417Y-157450000I-750417J0D01*
G01*
X70594400Y-93002600D02*
G75*
G03*
X70594400Y-93002600I-750000J0D01*
G01*
X76594400Y-93002600D02*
G75*
G03*
X76594400Y-93002600I-750000J0D01*
G01*
M02*
