G04 #@! TF.GenerationSoftware,KiCad,Pcbnew,7.0.8*
G04 #@! TF.CreationDate,2023-11-03T12:20:07+01:00*
G04 #@! TF.ProjectId,PCE,5043452e-6b69-4636-9164-5f7063625858,rev?*
G04 #@! TF.SameCoordinates,Original*
G04 #@! TF.FileFunction,Paste,Bot*
G04 #@! TF.FilePolarity,Positive*
%FSLAX46Y46*%
G04 Gerber Fmt 4.6, Leading zero omitted, Abs format (unit mm)*
G04 Created by KiCad (PCBNEW 7.0.8) date 2023-11-03 12:20:07*
%MOMM*%
%LPD*%
G01*
G04 APERTURE LIST*
G04 Aperture macros list*
%AMRoundRect*
0 Rectangle with rounded corners*
0 $1 Rounding radius*
0 $2 $3 $4 $5 $6 $7 $8 $9 X,Y pos of 4 corners*
0 Add a 4 corners polygon primitive as box body*
4,1,4,$2,$3,$4,$5,$6,$7,$8,$9,$2,$3,0*
0 Add four circle primitives for the rounded corners*
1,1,$1+$1,$2,$3*
1,1,$1+$1,$4,$5*
1,1,$1+$1,$6,$7*
1,1,$1+$1,$8,$9*
0 Add four rect primitives between the rounded corners*
20,1,$1+$1,$2,$3,$4,$5,0*
20,1,$1+$1,$4,$5,$6,$7,0*
20,1,$1+$1,$6,$7,$8,$9,0*
20,1,$1+$1,$8,$9,$2,$3,0*%
G04 Aperture macros list end*
%ADD10RoundRect,0.292682X-0.307318X0.307318X-0.307318X-0.307318X0.307318X-0.307318X0.307318X0.307318X0*%
%ADD11RoundRect,0.292682X0.307318X-0.307318X0.307318X0.307318X-0.307318X0.307318X-0.307318X-0.307318X0*%
%ADD12RoundRect,0.200000X0.300000X-0.300000X0.300000X0.300000X-0.300000X0.300000X-0.300000X-0.300000X0*%
%ADD13C,1.000000*%
%ADD14RoundRect,0.250000X0.250000X-0.250000X0.250000X0.250000X-0.250000X0.250000X-0.250000X-0.250000X0*%
%ADD15RoundRect,0.207500X-0.207500X-1.181875X0.207500X-1.181875X0.207500X1.181875X-0.207500X1.181875X0*%
%ADD16RoundRect,0.103750X-0.103750X-1.285625X0.103750X-1.285625X0.103750X1.285625X-0.103750X1.285625X0*%
%ADD17RoundRect,0.207500X-1.181875X0.207500X-1.181875X-0.207500X1.181875X-0.207500X1.181875X0.207500X0*%
%ADD18RoundRect,0.103750X-1.285625X0.103750X-1.285625X-0.103750X1.285625X-0.103750X1.285625X0.103750X0*%
%ADD19C,1.500000*%
%ADD20RoundRect,0.150000X0.600000X-1.350000X0.600000X1.350000X-0.600000X1.350000X-0.600000X-1.350000X0*%
%ADD21RoundRect,0.060000X0.240000X-1.440000X0.240000X1.440000X-0.240000X1.440000X-0.240000X-1.440000X0*%
%ADD22R,0.400000X1.100000*%
%ADD23R,1.100000X0.400000*%
%ADD24RoundRect,0.478260X-0.621740X0.671740X-0.621740X-0.671740X0.621740X-0.671740X0.621740X0.671740X0*%
%ADD25RoundRect,0.219512X0.480488X-0.230488X0.480488X0.230488X-0.480488X0.230488X-0.480488X-0.230488X0*%
%ADD26R,0.900000X2.000000*%
%ADD27R,0.900000X2.500000*%
%ADD28RoundRect,1.050000X0.000000X-0.825000X0.000000X0.825000X0.000000X0.825000X0.000000X-0.825000X0*%
%ADD29RoundRect,0.292682X0.307318X0.307318X-0.307318X0.307318X-0.307318X-0.307318X0.307318X-0.307318X0*%
%ADD30RoundRect,0.292682X-0.307318X-0.307318X0.307318X-0.307318X0.307318X0.307318X-0.307318X0.307318X0*%
%ADD31RoundRect,0.060000X0.240000X-1.190000X0.240000X1.190000X-0.240000X1.190000X-0.240000X-1.190000X0*%
%ADD32RoundRect,0.391304X0.508696X-0.508696X0.508696X0.508696X-0.508696X0.508696X-0.508696X-0.508696X0*%
%ADD33RoundRect,0.250000X-0.550000X0.325000X-0.550000X-0.325000X0.550000X-0.325000X0.550000X0.325000X0*%
%ADD34C,1.600000*%
%ADD35RoundRect,0.326087X-0.473913X0.423913X-0.473913X-0.423913X0.473913X-0.423913X0.473913X0.423913X0*%
%ADD36R,2.300000X1.750000*%
%ADD37R,2.300000X0.500000*%
%ADD38R,1.750000X2.300000*%
%ADD39R,0.500000X2.300000*%
%ADD40R,2.300000X1.000000*%
%ADD41R,1.000000X2.300000*%
%ADD42RoundRect,0.325000X-0.325000X-0.753750X0.325000X-0.753750X0.325000X0.753750X-0.325000X0.753750X0*%
%ADD43RoundRect,0.142500X-0.142500X-0.936250X0.142500X-0.936250X0.142500X0.936250X-0.142500X0.936250X0*%
%ADD44RoundRect,0.250000X1.050000X-0.325000X1.050000X0.325000X-1.050000X0.325000X-1.050000X-0.325000X0*%
%ADD45RoundRect,0.326087X0.473913X-0.423913X0.473913X0.423913X-0.473913X0.423913X-0.473913X-0.423913X0*%
%ADD46RoundRect,0.219512X-0.480488X0.230488X-0.480488X-0.230488X0.480488X-0.230488X0.480488X0.230488X0*%
%ADD47RoundRect,0.151000X-0.604000X1.099000X-0.604000X-1.099000X0.604000X-1.099000X0.604000X1.099000X0*%
%ADD48RoundRect,0.060000X-0.240000X1.190000X-0.240000X-1.190000X0.240000X-1.190000X0.240000X1.190000X0*%
%ADD49RoundRect,0.250000X-1.050000X0.325000X-1.050000X-0.325000X1.050000X-0.325000X1.050000X0.325000X0*%
%ADD50RoundRect,0.478260X-0.621740X0.621740X-0.621740X-0.621740X0.621740X-0.621740X0.621740X0.621740X0*%
%ADD51R,4.400000X2.400000*%
%ADD52RoundRect,0.207500X0.207500X1.181875X-0.207500X1.181875X-0.207500X-1.181875X0.207500X-1.181875X0*%
%ADD53RoundRect,0.103750X0.103750X1.285625X-0.103750X1.285625X-0.103750X-1.285625X0.103750X-1.285625X0*%
%ADD54RoundRect,0.150000X-0.600000X1.350000X-0.600000X-1.350000X0.600000X-1.350000X0.600000X1.350000X0*%
%ADD55RoundRect,0.060000X-0.240000X1.440000X-0.240000X-1.440000X0.240000X-1.440000X0.240000X1.440000X0*%
%ADD56RoundRect,0.499999X-0.900001X0.650001X-0.900001X-0.650001X0.900001X-0.650001X0.900001X0.650001X0*%
%ADD57RoundRect,0.391304X-0.508696X0.508696X-0.508696X-0.508696X0.508696X-0.508696X0.508696X0.508696X0*%
G04 APERTURE END LIST*
D10*
X152525000Y-65075000D03*
X152525000Y-67475000D03*
X217075000Y-179912500D03*
X217075000Y-182312500D03*
D11*
X161075000Y-186025000D03*
X161075000Y-183625000D03*
D10*
X330050000Y-177475000D03*
X330050000Y-179875000D03*
D12*
X131150000Y-215650000D03*
D13*
X131150000Y-215350000D03*
X132150000Y-218350000D03*
D14*
X132150000Y-218050000D03*
D13*
X130150000Y-218350000D03*
D14*
X130150000Y-218050000D03*
D11*
X242500000Y-214675000D03*
X242500000Y-212275000D03*
X216600000Y-82150000D03*
X216600000Y-79750000D03*
D15*
X135320000Y-191599000D03*
D16*
X136260000Y-191599000D03*
X137060000Y-191599000D03*
X137860000Y-191599000D03*
X138660000Y-191599000D03*
X139460000Y-191599000D03*
X140260000Y-191599000D03*
X141060000Y-191599000D03*
X141860000Y-191599000D03*
X142660000Y-191599000D03*
X143460000Y-191599000D03*
X144260000Y-191599000D03*
X145060000Y-191599000D03*
X145860000Y-191599000D03*
X146660000Y-191599000D03*
X147460000Y-191599000D03*
X148260000Y-191599000D03*
X149060000Y-191599000D03*
X149860000Y-191599000D03*
X150660000Y-191599000D03*
X151460000Y-191599000D03*
X152260000Y-191599000D03*
X153060000Y-191599000D03*
D15*
X154040000Y-191599000D03*
D17*
X156496800Y-194315000D03*
D18*
X156496800Y-195255000D03*
X156496800Y-196055000D03*
X156496800Y-196855000D03*
X156496800Y-197655000D03*
X156496800Y-198455000D03*
X156496800Y-199255000D03*
X156496800Y-200055000D03*
X156496800Y-200855000D03*
X156496800Y-201655000D03*
X156496800Y-202455000D03*
X156496800Y-203255000D03*
X156496800Y-204055000D03*
X156496800Y-204855000D03*
X156496800Y-205655000D03*
D17*
X156496800Y-206655000D03*
D15*
X154040000Y-209360200D03*
D16*
X153060000Y-209360200D03*
X152260000Y-209360200D03*
X151460000Y-209360200D03*
X150660000Y-209360200D03*
X149860000Y-209360200D03*
X149060000Y-209360200D03*
X148260000Y-209360200D03*
X147460000Y-209360200D03*
X146660000Y-209360200D03*
X145860000Y-209360200D03*
X145060000Y-209360200D03*
X144260000Y-209360200D03*
X143460000Y-209360200D03*
X142660000Y-209360200D03*
X141860000Y-209360200D03*
X141060000Y-209360200D03*
X140260000Y-209360200D03*
X139460000Y-209360200D03*
X138660000Y-209360200D03*
X137860000Y-209360200D03*
X137060000Y-209360200D03*
X136260000Y-209360200D03*
D15*
X135320000Y-209360200D03*
D17*
X132868400Y-206655000D03*
D18*
X132868400Y-205655000D03*
X132868400Y-204855000D03*
X132868400Y-204055000D03*
X132868400Y-203255000D03*
X132868400Y-202455000D03*
X132868400Y-201655000D03*
X132868400Y-200855000D03*
X132868400Y-200055000D03*
X132868400Y-199255000D03*
X132868400Y-198455000D03*
X132868400Y-197655000D03*
X132868400Y-196855000D03*
X132868400Y-196055000D03*
X132868400Y-195255000D03*
D17*
X132868400Y-194315000D03*
D19*
X166825000Y-63075000D03*
D20*
X158805000Y-104875000D03*
D21*
X157090000Y-104875000D03*
X155820000Y-104875000D03*
X154550000Y-104875000D03*
X153280000Y-104875000D03*
X152010000Y-104875000D03*
D20*
X150295000Y-104875000D03*
X150295000Y-98675000D03*
D21*
X152010000Y-98675000D03*
X153280000Y-98675000D03*
X154550000Y-98675000D03*
X155820000Y-98675000D03*
X157090000Y-98675000D03*
D20*
X158805000Y-98675000D03*
D12*
X322275000Y-153125000D03*
D13*
X322275000Y-152825000D03*
X323275000Y-155825000D03*
D14*
X323275000Y-155525000D03*
D13*
X321275000Y-155825000D03*
D14*
X321275000Y-155525000D03*
D10*
X249825000Y-159975000D03*
X249825000Y-162375000D03*
X326550000Y-190275000D03*
X326550000Y-192675000D03*
D19*
X185725000Y-68700000D03*
D10*
X192925000Y-53850000D03*
X192925000Y-56250000D03*
X134375000Y-217650000D03*
X134375000Y-220050000D03*
X167550000Y-151150000D03*
X167550000Y-153550000D03*
D11*
X262250000Y-189500000D03*
X262250000Y-187100000D03*
D22*
X193475000Y-144175000D03*
X192675000Y-144175000D03*
X191875000Y-144175000D03*
X191075000Y-144175000D03*
X191075000Y-142275000D03*
X191875000Y-142275000D03*
X192675000Y-142275000D03*
X193475000Y-142275000D03*
D23*
X137075000Y-124375000D03*
X137075000Y-123575000D03*
X137075000Y-122775000D03*
X137075000Y-121975000D03*
X138975000Y-121975000D03*
X138975000Y-122775000D03*
X138975000Y-123575000D03*
X138975000Y-124375000D03*
D10*
X332425000Y-173475000D03*
X332425000Y-175875000D03*
D20*
X189675000Y-59375000D03*
D21*
X187960000Y-59375000D03*
X186690000Y-59375000D03*
D20*
X184975000Y-59375000D03*
X184975000Y-53175000D03*
D21*
X186690000Y-53175000D03*
X187960000Y-53175000D03*
D20*
X189675000Y-53175000D03*
D10*
X163575000Y-198375000D03*
X163575000Y-200775000D03*
X171500000Y-151150000D03*
X171500000Y-153550000D03*
D19*
X322475000Y-160375000D03*
D24*
X313750000Y-210450000D03*
X313750000Y-215650000D03*
D25*
X84575000Y-85275000D03*
X84575000Y-83375000D03*
D10*
X127550000Y-215650000D03*
X127550000Y-218050000D03*
X326500000Y-203800000D03*
X326500000Y-206200000D03*
X321700000Y-163900000D03*
X321700000Y-166300000D03*
D11*
X89400000Y-102250000D03*
X89400000Y-99850000D03*
X325300000Y-166300000D03*
X325300000Y-163900000D03*
D15*
X145295000Y-155599000D03*
D16*
X146235000Y-155599000D03*
X147035000Y-155599000D03*
X147835000Y-155599000D03*
X148635000Y-155599000D03*
X149435000Y-155599000D03*
X150235000Y-155599000D03*
X151035000Y-155599000D03*
X151835000Y-155599000D03*
X152635000Y-155599000D03*
X153435000Y-155599000D03*
X154235000Y-155599000D03*
X155035000Y-155599000D03*
X155835000Y-155599000D03*
X156635000Y-155599000D03*
X157435000Y-155599000D03*
X158235000Y-155599000D03*
X159035000Y-155599000D03*
X159835000Y-155599000D03*
X160635000Y-155599000D03*
X161435000Y-155599000D03*
X162235000Y-155599000D03*
X163035000Y-155599000D03*
D15*
X164015000Y-155599000D03*
D17*
X166471800Y-158315000D03*
D18*
X166471800Y-159255000D03*
X166471800Y-160055000D03*
X166471800Y-160855000D03*
X166471800Y-161655000D03*
X166471800Y-162455000D03*
X166471800Y-163255000D03*
X166471800Y-164055000D03*
X166471800Y-164855000D03*
X166471800Y-165655000D03*
X166471800Y-166455000D03*
X166471800Y-167255000D03*
X166471800Y-168055000D03*
X166471800Y-168855000D03*
X166471800Y-169655000D03*
D17*
X166471800Y-170655000D03*
D15*
X164015000Y-173360200D03*
D16*
X163035000Y-173360200D03*
X162235000Y-173360200D03*
X161435000Y-173360200D03*
X160635000Y-173360200D03*
X159835000Y-173360200D03*
X159035000Y-173360200D03*
X158235000Y-173360200D03*
X157435000Y-173360200D03*
X156635000Y-173360200D03*
X155835000Y-173360200D03*
X155035000Y-173360200D03*
X154235000Y-173360200D03*
X153435000Y-173360200D03*
X152635000Y-173360200D03*
X151835000Y-173360200D03*
X151035000Y-173360200D03*
X150235000Y-173360200D03*
X149435000Y-173360200D03*
X148635000Y-173360200D03*
X147835000Y-173360200D03*
X147035000Y-173360200D03*
X146235000Y-173360200D03*
D15*
X145295000Y-173360200D03*
D17*
X142843400Y-170655000D03*
D18*
X142843400Y-169655000D03*
X142843400Y-168855000D03*
X142843400Y-168055000D03*
X142843400Y-167255000D03*
X142843400Y-166455000D03*
X142843400Y-165655000D03*
X142843400Y-164855000D03*
X142843400Y-164055000D03*
X142843400Y-163255000D03*
X142843400Y-162455000D03*
X142843400Y-161655000D03*
X142843400Y-160855000D03*
X142843400Y-160055000D03*
X142843400Y-159255000D03*
D17*
X142843400Y-158315000D03*
D11*
X260250000Y-189500000D03*
X260250000Y-187100000D03*
D10*
X102550000Y-60000000D03*
X102550000Y-62400000D03*
D19*
X113550000Y-59800000D03*
D12*
X145700000Y-60725000D03*
D13*
X145700000Y-60425000D03*
X146700000Y-63425000D03*
D14*
X146700000Y-63125000D03*
D13*
X144700000Y-63425000D03*
D14*
X144700000Y-63125000D03*
D26*
X276925000Y-173450000D03*
D27*
X275425000Y-173200000D03*
D28*
X275425000Y-170575000D03*
D26*
X273925000Y-173450000D03*
D11*
X294025000Y-186475000D03*
X294025000Y-184075000D03*
D10*
X287070800Y-191662200D03*
X287070800Y-194062200D03*
D11*
X337675000Y-202287500D03*
X337675000Y-199887500D03*
D10*
X335725000Y-206175000D03*
X335725000Y-208575000D03*
D29*
X241750000Y-136425000D03*
X239350000Y-136425000D03*
D11*
X221900000Y-182312500D03*
X221900000Y-179912500D03*
X118900000Y-54750000D03*
X118900000Y-52350000D03*
D10*
X197750000Y-49850000D03*
X197750000Y-52250000D03*
D11*
X237625000Y-210450000D03*
X237625000Y-208050000D03*
D12*
X259375000Y-141575000D03*
D13*
X259375000Y-141275000D03*
X260375000Y-144275000D03*
D14*
X260375000Y-143975000D03*
D13*
X258375000Y-144275000D03*
D14*
X258375000Y-143975000D03*
D11*
X78200000Y-79725000D03*
X78200000Y-77325000D03*
D29*
X345675000Y-173475000D03*
X343275000Y-173475000D03*
D30*
X324075000Y-171475000D03*
X326475000Y-171475000D03*
D19*
X109625000Y-73075000D03*
D10*
X261450000Y-164300000D03*
X261450000Y-166700000D03*
D11*
X89350000Y-90725000D03*
X89350000Y-88325000D03*
X142175000Y-103600000D03*
X142175000Y-101200000D03*
X251875000Y-205450000D03*
X251875000Y-203050000D03*
D12*
X87750000Y-77575000D03*
D13*
X87750000Y-77275000D03*
X88750000Y-80275000D03*
D14*
X88750000Y-79975000D03*
D13*
X86750000Y-80275000D03*
D14*
X86750000Y-79975000D03*
D19*
X277622000Y-214223600D03*
D11*
X235650000Y-192100000D03*
X235650000Y-189700000D03*
D19*
X197850000Y-85800000D03*
D10*
X326875000Y-173475000D03*
X326875000Y-175875000D03*
D11*
X89375000Y-85525000D03*
X89375000Y-83125000D03*
X318675000Y-192650000D03*
X318675000Y-190250000D03*
D19*
X264400000Y-189100000D03*
D11*
X146325000Y-217425000D03*
X146325000Y-215025000D03*
D19*
X319475000Y-160375000D03*
D11*
X288264600Y-200482200D03*
X288264600Y-198082200D03*
D22*
X194625000Y-93875000D03*
X193825000Y-93875000D03*
X193025000Y-93875000D03*
X192225000Y-93875000D03*
X192225000Y-91975000D03*
X193025000Y-91975000D03*
X193825000Y-91975000D03*
X194625000Y-91975000D03*
D11*
X249825000Y-154375000D03*
X249825000Y-151975000D03*
X86975000Y-90725000D03*
X86975000Y-88325000D03*
D31*
X184950000Y-100550000D03*
X185425000Y-100550000D03*
X183680000Y-100550000D03*
X182410000Y-100550000D03*
X181140000Y-100550000D03*
X179870000Y-100550000D03*
X178600000Y-100550000D03*
X177330000Y-100550000D03*
X176060000Y-100550000D03*
X174790000Y-100550000D03*
X173520000Y-100550000D03*
X172250000Y-100550000D03*
X170980000Y-100550000D03*
X169710000Y-100550000D03*
X168440000Y-100550000D03*
X167170000Y-100550000D03*
X165425000Y-100550000D03*
X165900000Y-100550000D03*
X165425000Y-87850000D03*
X165900000Y-87850000D03*
X167170000Y-87850000D03*
X168440000Y-87850000D03*
X169710000Y-87850000D03*
X170980000Y-87850000D03*
X172250000Y-87850000D03*
X173520000Y-87850000D03*
X174790000Y-87850000D03*
X176060000Y-87850000D03*
X177330000Y-87850000D03*
X178600000Y-87850000D03*
X179870000Y-87850000D03*
X181140000Y-87850000D03*
X182410000Y-87850000D03*
X183680000Y-87850000D03*
X184950000Y-87850000D03*
X185425000Y-87850000D03*
D11*
X286689800Y-217658800D03*
X286689800Y-215258800D03*
X234275000Y-206000000D03*
X234275000Y-203600000D03*
X255425000Y-152775000D03*
X255425000Y-150375000D03*
D10*
X120925000Y-60950000D03*
X120925000Y-63350000D03*
D11*
X220650000Y-155200000D03*
X220650000Y-152800000D03*
D10*
X330050000Y-173475000D03*
X330050000Y-175875000D03*
D19*
X346550000Y-217975000D03*
D11*
X150525000Y-67475000D03*
X150525000Y-65075000D03*
D10*
X256275000Y-154550000D03*
X256275000Y-156950000D03*
D24*
X330900000Y-209625000D03*
X330900000Y-214825000D03*
D11*
X84625000Y-102675000D03*
X84625000Y-100275000D03*
D10*
X344100000Y-213000000D03*
X344100000Y-215400000D03*
D19*
X171350000Y-50175000D03*
D10*
X163575000Y-202550000D03*
X163575000Y-204950000D03*
D19*
X325525000Y-160300000D03*
D32*
X98600000Y-116925000D03*
X98600000Y-112425000D03*
D19*
X338725000Y-217225000D03*
D11*
X289052000Y-217658800D03*
X289052000Y-215258800D03*
D10*
X169525000Y-151150000D03*
X169525000Y-153550000D03*
D33*
X322950000Y-211000000D03*
X322950000Y-214200000D03*
D19*
X219750000Y-203500000D03*
D11*
X228850000Y-196075000D03*
X228850000Y-193675000D03*
D10*
X237625000Y-212275000D03*
X237625000Y-214675000D03*
D11*
X317375000Y-200675000D03*
X317375000Y-198275000D03*
D34*
X78206600Y-82197000D03*
D35*
X78206600Y-82647000D03*
X78206600Y-85247000D03*
D34*
X78206600Y-85697000D03*
D10*
X176700000Y-168929200D03*
X176700000Y-171329200D03*
D31*
X184950000Y-117675000D03*
X185425000Y-117675000D03*
X183680000Y-117675000D03*
X182410000Y-117675000D03*
X181140000Y-117675000D03*
X179870000Y-117675000D03*
X178600000Y-117675000D03*
X177330000Y-117675000D03*
X176060000Y-117675000D03*
X174790000Y-117675000D03*
X173520000Y-117675000D03*
X172250000Y-117675000D03*
X170980000Y-117675000D03*
X169710000Y-117675000D03*
X168440000Y-117675000D03*
X167170000Y-117675000D03*
X165425000Y-117675000D03*
X165900000Y-117675000D03*
X165425000Y-104975000D03*
X165900000Y-104975000D03*
X167170000Y-104975000D03*
X168440000Y-104975000D03*
X169710000Y-104975000D03*
X170980000Y-104975000D03*
X172250000Y-104975000D03*
X173520000Y-104975000D03*
X174790000Y-104975000D03*
X176060000Y-104975000D03*
X177330000Y-104975000D03*
X178600000Y-104975000D03*
X179870000Y-104975000D03*
X181140000Y-104975000D03*
X182410000Y-104975000D03*
X183680000Y-104975000D03*
X184950000Y-104975000D03*
X185425000Y-104975000D03*
D10*
X328950000Y-185450000D03*
X328950000Y-187850000D03*
X285064200Y-191662200D03*
X285064200Y-194062200D03*
D36*
X192575000Y-129525000D03*
D37*
X192575000Y-128100000D03*
X192575000Y-127300000D03*
X192575000Y-126500000D03*
X192575000Y-125700000D03*
X192575000Y-124900000D03*
X192575000Y-124100000D03*
X192575000Y-123300000D03*
X192575000Y-122500000D03*
X192575000Y-121700000D03*
X192575000Y-120900000D03*
X192575000Y-120100000D03*
X192575000Y-119300000D03*
X192575000Y-118500000D03*
X192575000Y-117700000D03*
X192575000Y-116900000D03*
X192575000Y-116100000D03*
X192575000Y-115300000D03*
X192575000Y-114500000D03*
X192575000Y-113700000D03*
X192575000Y-112900000D03*
X192575000Y-112100000D03*
X192575000Y-111300000D03*
X192575000Y-110500000D03*
X192575000Y-109700000D03*
X192575000Y-108900000D03*
X192575000Y-108100000D03*
X192575000Y-107300000D03*
X192575000Y-106500000D03*
D36*
X192575000Y-105075000D03*
D38*
X195650000Y-102000000D03*
D39*
X197075000Y-102000000D03*
X197875000Y-102000000D03*
X198675000Y-102000000D03*
X199475000Y-102000000D03*
X200275000Y-102000000D03*
X201075000Y-102000000D03*
X201875000Y-102000000D03*
X202675000Y-102000000D03*
X203475000Y-102000000D03*
X204275000Y-102000000D03*
X205075000Y-102000000D03*
X205875000Y-102000000D03*
X206675000Y-102000000D03*
X207475000Y-102000000D03*
X208275000Y-102000000D03*
X209075000Y-102000000D03*
X209875000Y-102000000D03*
X210675000Y-102000000D03*
X211475000Y-102000000D03*
X212275000Y-102000000D03*
X213075000Y-102000000D03*
X213875000Y-102000000D03*
X214675000Y-102000000D03*
X215475000Y-102000000D03*
X216275000Y-102000000D03*
X217075000Y-102000000D03*
X217875000Y-102000000D03*
X218675000Y-102000000D03*
D38*
X220100000Y-102000000D03*
D36*
X223175000Y-105075000D03*
D37*
X223175000Y-106500000D03*
X223175000Y-107300000D03*
X223175000Y-108100000D03*
X223175000Y-108900000D03*
X223175000Y-109700000D03*
X223175000Y-110500000D03*
X223175000Y-111300000D03*
X223175000Y-112100000D03*
X223175000Y-112900000D03*
X223175000Y-113700000D03*
X223175000Y-114500000D03*
X223175000Y-115300000D03*
X223175000Y-116100000D03*
X223175000Y-116900000D03*
X223175000Y-117700000D03*
X223175000Y-118500000D03*
X223175000Y-119300000D03*
X223175000Y-120100000D03*
X223175000Y-120900000D03*
X223175000Y-121700000D03*
X223175000Y-122500000D03*
X223175000Y-123300000D03*
X223175000Y-124100000D03*
X223175000Y-124900000D03*
X223175000Y-125700000D03*
X223175000Y-126500000D03*
X223175000Y-127300000D03*
X223175000Y-128100000D03*
D40*
X223175000Y-129150000D03*
D41*
X219725000Y-132600000D03*
D39*
X218675000Y-132600000D03*
X217875000Y-132600000D03*
X217075000Y-132600000D03*
X216275000Y-132600000D03*
X215475000Y-132600000D03*
X214675000Y-132600000D03*
X213875000Y-132600000D03*
X213075000Y-132600000D03*
X212275000Y-132600000D03*
X211475000Y-132600000D03*
X210675000Y-132600000D03*
X209875000Y-132600000D03*
X209075000Y-132600000D03*
X208275000Y-132600000D03*
X207475000Y-132600000D03*
X206675000Y-132600000D03*
X205875000Y-132600000D03*
X205075000Y-132600000D03*
X204275000Y-132600000D03*
X203475000Y-132600000D03*
X202675000Y-132600000D03*
X201875000Y-132600000D03*
X201075000Y-132600000D03*
X200275000Y-132600000D03*
X199475000Y-132600000D03*
X198675000Y-132600000D03*
X197875000Y-132600000D03*
X197075000Y-132600000D03*
D38*
X195650000Y-132600000D03*
D10*
X260200000Y-146375000D03*
X260200000Y-148775000D03*
D42*
X87269600Y-174116800D03*
D43*
X88860000Y-174115550D03*
X90130000Y-174115550D03*
X91400000Y-174115550D03*
X92670000Y-174115550D03*
X93940000Y-174115550D03*
X95210000Y-174115550D03*
X96480000Y-174115550D03*
X97750000Y-174115550D03*
X99020000Y-174115550D03*
X100290000Y-174115550D03*
X101560000Y-174115550D03*
X102830000Y-174115550D03*
D42*
X104465400Y-174116800D03*
X104465400Y-184683200D03*
D43*
X102830000Y-184681950D03*
X101560000Y-184681950D03*
X100290000Y-184681950D03*
X99020000Y-184681950D03*
X97750000Y-184681950D03*
X96480000Y-184681950D03*
X95210000Y-184681950D03*
X93940000Y-184681950D03*
X92670000Y-184681950D03*
X91400000Y-184681950D03*
X90130000Y-184681950D03*
X88860000Y-184681950D03*
D42*
X87269600Y-184683200D03*
D12*
X168700000Y-145175000D03*
D13*
X168700000Y-144875000D03*
X169700000Y-147875000D03*
D14*
X169700000Y-147575000D03*
D13*
X167700000Y-147875000D03*
D14*
X167700000Y-147575000D03*
D10*
X214650000Y-179912500D03*
X214650000Y-182312500D03*
D30*
X112375000Y-65175000D03*
X114775000Y-65175000D03*
D11*
X205075000Y-171150000D03*
X205075000Y-168750000D03*
D23*
X210200000Y-91525000D03*
X210200000Y-92325000D03*
X210200000Y-93125000D03*
X210200000Y-93925000D03*
X208300000Y-93925000D03*
X208300000Y-93125000D03*
X208300000Y-92325000D03*
X208300000Y-91525000D03*
D19*
X156325000Y-90975000D03*
X187775000Y-212300000D03*
X217450000Y-135350000D03*
D12*
X106650000Y-75925000D03*
D13*
X106650000Y-75625000D03*
X107650000Y-78625000D03*
D14*
X107650000Y-78325000D03*
D13*
X105650000Y-78625000D03*
D14*
X105650000Y-78325000D03*
D11*
X82925000Y-79725000D03*
X82925000Y-77325000D03*
D19*
X306175000Y-174700000D03*
D10*
X264250000Y-195275000D03*
X264250000Y-197675000D03*
D19*
X276783800Y-198882000D03*
D12*
X98575000Y-53600000D03*
D13*
X98575000Y-53300000D03*
X99575000Y-56300000D03*
D14*
X99575000Y-56000000D03*
D13*
X97575000Y-56300000D03*
D14*
X97575000Y-56000000D03*
D11*
X253875000Y-205450000D03*
X253875000Y-203050000D03*
D10*
X258250000Y-195425000D03*
X258250000Y-197825000D03*
D19*
X268175000Y-163750000D03*
D11*
X153800000Y-147875000D03*
X153800000Y-145475000D03*
X221700000Y-139450000D03*
X221700000Y-137050000D03*
D30*
X343275000Y-175475000D03*
X345675000Y-175475000D03*
D12*
X150525000Y-60725000D03*
D13*
X150525000Y-60425000D03*
X151525000Y-63425000D03*
D14*
X151525000Y-63125000D03*
D13*
X149525000Y-63425000D03*
D14*
X149525000Y-63125000D03*
D19*
X129525000Y-60950000D03*
D11*
X208275000Y-146750000D03*
X208275000Y-144350000D03*
D19*
X260250000Y-202100000D03*
X343950000Y-217975000D03*
X309725000Y-168550000D03*
D32*
X102650000Y-116925000D03*
X102650000Y-112425000D03*
D11*
X87025000Y-102675000D03*
X87025000Y-100275000D03*
D23*
X130925000Y-124375000D03*
X130925000Y-123575000D03*
X130925000Y-122775000D03*
X130925000Y-121975000D03*
X132825000Y-121975000D03*
X132825000Y-122775000D03*
X132825000Y-123575000D03*
X132825000Y-124375000D03*
D11*
X328550000Y-206200000D03*
X328550000Y-203800000D03*
D10*
X335300000Y-199887500D03*
X335300000Y-202287500D03*
X120925000Y-49975000D03*
X120925000Y-52375000D03*
X153800000Y-149475000D03*
X153800000Y-151875000D03*
D20*
X179790000Y-59400000D03*
D21*
X178075000Y-59400000D03*
X176805000Y-59400000D03*
X175535000Y-59400000D03*
X174265000Y-59400000D03*
X172995000Y-59400000D03*
X171725000Y-59400000D03*
D20*
X170010000Y-59400000D03*
X170010000Y-53200000D03*
D21*
X171725000Y-53200000D03*
X172995000Y-53200000D03*
X174265000Y-53200000D03*
X175535000Y-53200000D03*
X176805000Y-53200000D03*
X178075000Y-53200000D03*
D20*
X179790000Y-53200000D03*
D11*
X341525000Y-210375000D03*
X341525000Y-207975000D03*
X256175000Y-143175000D03*
X256175000Y-140775000D03*
X163525000Y-186025000D03*
X163525000Y-183625000D03*
D44*
X275375000Y-166975000D03*
X275375000Y-164025000D03*
D34*
X75412600Y-104056600D03*
D45*
X75412600Y-103606600D03*
X75412600Y-101006600D03*
D34*
X75412600Y-100556600D03*
D10*
X124100000Y-54125000D03*
X124100000Y-56525000D03*
D19*
X159600000Y-130500000D03*
D12*
X156575000Y-86200000D03*
D13*
X156575000Y-85900000D03*
X157575000Y-88900000D03*
D14*
X157575000Y-88600000D03*
D13*
X155575000Y-88900000D03*
D14*
X155575000Y-88600000D03*
D10*
X293090600Y-191662200D03*
X293090600Y-194062200D03*
X314475000Y-153350000D03*
X314475000Y-155750000D03*
D19*
X244000000Y-219900000D03*
D11*
X327250000Y-156300000D03*
X327250000Y-153900000D03*
D10*
X104600000Y-53975000D03*
X104600000Y-56375000D03*
D25*
X327300000Y-202025000D03*
X327300000Y-200125000D03*
D46*
X254225000Y-155825000D03*
X254225000Y-157725000D03*
D42*
X120039600Y-133259850D03*
D43*
X121630000Y-133258600D03*
X122900000Y-133258600D03*
X124170000Y-133258600D03*
X125440000Y-133258600D03*
X126710000Y-133258600D03*
X127980000Y-133258600D03*
X129250000Y-133258600D03*
X130520000Y-133258600D03*
X131790000Y-133258600D03*
X133060000Y-133258600D03*
X134330000Y-133258600D03*
X135600000Y-133258600D03*
D42*
X137235400Y-133259850D03*
X137235400Y-143826250D03*
D43*
X135600000Y-143825000D03*
X134330000Y-143825000D03*
X133060000Y-143825000D03*
X131790000Y-143825000D03*
X130520000Y-143825000D03*
X129250000Y-143825000D03*
X127980000Y-143825000D03*
X126710000Y-143825000D03*
X125440000Y-143825000D03*
X124170000Y-143825000D03*
X122900000Y-143825000D03*
X121630000Y-143825000D03*
D42*
X120039600Y-143826250D03*
D19*
X309775000Y-176675000D03*
D11*
X141550000Y-215600000D03*
X141550000Y-213200000D03*
D20*
X138360000Y-104875000D03*
D21*
X136645000Y-104875000D03*
X135375000Y-104875000D03*
X134105000Y-104875000D03*
X132835000Y-104875000D03*
X131565000Y-104875000D03*
X130295000Y-104875000D03*
X129025000Y-104875000D03*
X127755000Y-104875000D03*
D20*
X126040000Y-104875000D03*
X126040000Y-98675000D03*
D21*
X127755000Y-98675000D03*
X129025000Y-98675000D03*
X130295000Y-98675000D03*
X131565000Y-98675000D03*
X132835000Y-98675000D03*
X134105000Y-98675000D03*
X135375000Y-98675000D03*
X136645000Y-98675000D03*
D20*
X138360000Y-98675000D03*
D10*
X114900000Y-52750000D03*
X114900000Y-55150000D03*
D11*
X82175000Y-90725000D03*
X82175000Y-88325000D03*
X143925000Y-217425000D03*
X143925000Y-215025000D03*
D31*
X184950000Y-134850000D03*
X185425000Y-134850000D03*
X183680000Y-134850000D03*
X182410000Y-134850000D03*
X181140000Y-134850000D03*
X179870000Y-134850000D03*
X178600000Y-134850000D03*
X177330000Y-134850000D03*
X176060000Y-134850000D03*
X174790000Y-134850000D03*
X173520000Y-134850000D03*
X172250000Y-134850000D03*
X170980000Y-134850000D03*
X169710000Y-134850000D03*
X168440000Y-134850000D03*
X167170000Y-134850000D03*
X165425000Y-134850000D03*
X165900000Y-134850000D03*
X165425000Y-122150000D03*
X165900000Y-122150000D03*
X167170000Y-122150000D03*
X168440000Y-122150000D03*
X169710000Y-122150000D03*
X170980000Y-122150000D03*
X172250000Y-122150000D03*
X173520000Y-122150000D03*
X174790000Y-122150000D03*
X176060000Y-122150000D03*
X177330000Y-122150000D03*
X178600000Y-122150000D03*
X179870000Y-122150000D03*
X181140000Y-122150000D03*
X182410000Y-122150000D03*
X183680000Y-122150000D03*
X184950000Y-122150000D03*
X185425000Y-122150000D03*
D11*
X249000000Y-147575000D03*
X249000000Y-145175000D03*
D10*
X109825000Y-74900000D03*
X109825000Y-77300000D03*
D11*
X156225000Y-186025000D03*
X156225000Y-183625000D03*
D10*
X261000000Y-159150000D03*
X261000000Y-161550000D03*
D11*
X166225000Y-52275000D03*
X166225000Y-49875000D03*
X154325000Y-93375000D03*
X154325000Y-90975000D03*
X179100000Y-171329200D03*
X179100000Y-168929200D03*
D25*
X114950000Y-63100000D03*
X114950000Y-61200000D03*
D10*
X114274600Y-141370200D03*
X114274600Y-143770200D03*
X284276800Y-205835400D03*
X284276800Y-208235400D03*
D33*
X284250000Y-184275000D03*
X284250000Y-187475000D03*
D19*
X153300000Y-62900000D03*
D10*
X228275000Y-213625000D03*
X228275000Y-216025000D03*
D11*
X255050000Y-161975000D03*
X255050000Y-159575000D03*
D10*
X123725000Y-60750000D03*
X123725000Y-63150000D03*
D42*
X87275577Y-158866800D03*
D43*
X88865977Y-158865550D03*
X90135977Y-158865550D03*
X91405977Y-158865550D03*
X92675977Y-158865550D03*
X93945977Y-158865550D03*
X95215977Y-158865550D03*
X96485977Y-158865550D03*
X97755977Y-158865550D03*
X99025977Y-158865550D03*
X100295977Y-158865550D03*
X101565977Y-158865550D03*
X102835977Y-158865550D03*
D42*
X104471377Y-158866800D03*
X104471377Y-169433200D03*
D43*
X102835977Y-169431950D03*
X101565977Y-169431950D03*
X100295977Y-169431950D03*
X99025977Y-169431950D03*
X97755977Y-169431950D03*
X96485977Y-169431950D03*
X95215977Y-169431950D03*
X93945977Y-169431950D03*
X92675977Y-169431950D03*
X91405977Y-169431950D03*
X90135977Y-169431950D03*
X88865977Y-169431950D03*
D42*
X87275577Y-169433200D03*
D34*
X75412600Y-82197000D03*
D35*
X75412600Y-82647000D03*
X75412600Y-85247000D03*
D34*
X75412600Y-85697000D03*
D12*
X279425000Y-164350000D03*
D13*
X279425000Y-164050000D03*
X280425000Y-167050000D03*
D14*
X280425000Y-166750000D03*
D13*
X278425000Y-167050000D03*
D14*
X278425000Y-166750000D03*
D19*
X296550000Y-156950000D03*
D10*
X240000000Y-212275000D03*
X240000000Y-214675000D03*
X195350000Y-53850000D03*
X195350000Y-56250000D03*
X78308200Y-101106600D03*
X78308200Y-103506600D03*
X343625000Y-180250000D03*
X343625000Y-182650000D03*
D47*
X280055000Y-170470000D03*
D48*
X281780000Y-170470000D03*
X283050000Y-170470000D03*
X284320000Y-170470000D03*
X285590000Y-170470000D03*
X286860000Y-170470000D03*
X288130000Y-170470000D03*
X289400000Y-170470000D03*
X290670000Y-170470000D03*
X291940000Y-170470000D03*
X293210000Y-170470000D03*
X294480000Y-170470000D03*
X295750000Y-170470000D03*
X297020000Y-170470000D03*
D47*
X298740000Y-170470000D03*
X298740000Y-180630000D03*
D48*
X297020000Y-180630000D03*
X295750000Y-180630000D03*
X294480000Y-180630000D03*
X293210000Y-180630000D03*
X291940000Y-180630000D03*
X290670000Y-180630000D03*
X289400000Y-180630000D03*
X288130000Y-180630000D03*
X286860000Y-180630000D03*
X285590000Y-180630000D03*
X284320000Y-180630000D03*
X283050000Y-180630000D03*
X281780000Y-180630000D03*
D47*
X280055000Y-180630000D03*
D10*
X345675000Y-180250000D03*
X345675000Y-182650000D03*
D11*
X285851600Y-198278600D03*
X285851600Y-195878600D03*
D12*
X169075000Y-139275000D03*
D13*
X169075000Y-138975000D03*
X170075000Y-141975000D03*
D14*
X170075000Y-141675000D03*
D13*
X168075000Y-141975000D03*
D14*
X168075000Y-141675000D03*
D10*
X257800000Y-146375000D03*
X257800000Y-148775000D03*
X345675000Y-184450000D03*
X345675000Y-186850000D03*
D11*
X245825000Y-143175000D03*
X245825000Y-140775000D03*
D12*
X157750000Y-63925000D03*
D13*
X157750000Y-63625000D03*
X158750000Y-66625000D03*
D14*
X158750000Y-66325000D03*
D13*
X156750000Y-66625000D03*
D14*
X156750000Y-66325000D03*
D12*
X123900000Y-215650000D03*
D13*
X123900000Y-215350000D03*
X124900000Y-218350000D03*
D14*
X124900000Y-218050000D03*
D13*
X122900000Y-218350000D03*
D14*
X122900000Y-218050000D03*
D10*
X173175000Y-70625000D03*
X173175000Y-73025000D03*
X247400000Y-151975000D03*
X247400000Y-154375000D03*
X318575000Y-185450000D03*
X318575000Y-187850000D03*
D11*
X249225000Y-217700000D03*
X249225000Y-215300000D03*
D20*
X119185000Y-118875000D03*
D21*
X117470000Y-118875000D03*
X116200000Y-118875000D03*
X114930000Y-118875000D03*
X113660000Y-118875000D03*
X112390000Y-118875000D03*
X111120000Y-118875000D03*
X109850000Y-118875000D03*
X108580000Y-118875000D03*
D20*
X106865000Y-118875000D03*
X106865000Y-112675000D03*
D21*
X108580000Y-112675000D03*
X109850000Y-112675000D03*
X111120000Y-112675000D03*
X112390000Y-112675000D03*
X113660000Y-112675000D03*
X114930000Y-112675000D03*
X116200000Y-112675000D03*
X117470000Y-112675000D03*
D20*
X119185000Y-112675000D03*
D10*
X260175000Y-154550000D03*
X260175000Y-156950000D03*
D11*
X258250000Y-189725000D03*
X258250000Y-187325000D03*
D19*
X116600000Y-65175000D03*
D12*
X252600000Y-145575000D03*
D13*
X252600000Y-145275000D03*
X253600000Y-148275000D03*
D14*
X253600000Y-147975000D03*
D13*
X251600000Y-148275000D03*
D14*
X251600000Y-147975000D03*
D25*
X251375000Y-142925000D03*
X251375000Y-141025000D03*
D11*
X291084000Y-194062200D03*
X291084000Y-191662200D03*
D19*
X260825000Y-199200000D03*
D10*
X332425000Y-177475000D03*
X332425000Y-179875000D03*
X239725000Y-147575000D03*
X239725000Y-149975000D03*
D11*
X250825000Y-195900000D03*
X250825000Y-193500000D03*
D29*
X208100000Y-165950000D03*
X205700000Y-165950000D03*
D10*
X255050000Y-163675000D03*
X255050000Y-166075000D03*
D11*
X82225000Y-97075000D03*
X82225000Y-94675000D03*
X254275000Y-196300000D03*
X254275000Y-193900000D03*
X308125000Y-182675000D03*
X308125000Y-180275000D03*
D49*
X215587750Y-204025000D03*
X215587750Y-206975000D03*
D20*
X138385000Y-118875000D03*
D21*
X136670000Y-118875000D03*
X135400000Y-118875000D03*
X134130000Y-118875000D03*
X132860000Y-118875000D03*
X131590000Y-118875000D03*
X130320000Y-118875000D03*
X129050000Y-118875000D03*
X127780000Y-118875000D03*
D20*
X126065000Y-118875000D03*
X126065000Y-112675000D03*
D21*
X127780000Y-112675000D03*
X129050000Y-112675000D03*
X130320000Y-112675000D03*
X131590000Y-112675000D03*
X132860000Y-112675000D03*
X134130000Y-112675000D03*
X135400000Y-112675000D03*
X136670000Y-112675000D03*
D20*
X138385000Y-112675000D03*
D19*
X334450000Y-159775000D03*
D11*
X314600000Y-205200000D03*
X314600000Y-202800000D03*
D10*
X164700000Y-139075000D03*
X164700000Y-141475000D03*
D12*
X87750000Y-72725000D03*
D13*
X87750000Y-72425000D03*
X88750000Y-75425000D03*
D14*
X88750000Y-75125000D03*
D13*
X86750000Y-75425000D03*
D14*
X86750000Y-75125000D03*
D10*
X263425000Y-158575000D03*
X263425000Y-160975000D03*
D19*
X281863800Y-217246200D03*
X296367200Y-218668600D03*
D50*
X119550000Y-212050000D03*
X119550000Y-216850000D03*
D11*
X148650000Y-217425000D03*
X148650000Y-215025000D03*
D10*
X326575000Y-185450000D03*
X326575000Y-187850000D03*
D11*
X203425000Y-92550000D03*
X203425000Y-90150000D03*
X116950000Y-63175000D03*
X116950000Y-60775000D03*
D46*
X172275000Y-143825000D03*
X172275000Y-145725000D03*
D51*
X293039800Y-198943000D03*
X293039800Y-204343000D03*
D19*
X284500000Y-166925000D03*
D10*
X258225000Y-154550000D03*
X258225000Y-156950000D03*
X324100000Y-177475000D03*
X324100000Y-179875000D03*
D19*
X292836600Y-213842600D03*
D10*
X116900000Y-52750000D03*
X116900000Y-55150000D03*
D19*
X300355000Y-218592400D03*
D46*
X253800000Y-141025000D03*
X253800000Y-142925000D03*
D19*
X292633400Y-219227400D03*
D11*
X251650000Y-217700000D03*
X251650000Y-215300000D03*
X203825000Y-87400000D03*
X203825000Y-85000000D03*
X284302200Y-217658800D03*
X284302200Y-215258800D03*
D22*
X183050000Y-160975000D03*
X182250000Y-160975000D03*
X181450000Y-160975000D03*
X180650000Y-160975000D03*
X180650000Y-159075000D03*
X181450000Y-159075000D03*
X182250000Y-159075000D03*
X183050000Y-159075000D03*
D11*
X158650000Y-186025000D03*
X158650000Y-183625000D03*
D22*
X187850000Y-154150000D03*
X187050000Y-154150000D03*
X186250000Y-154150000D03*
X185450000Y-154150000D03*
X185450000Y-152250000D03*
X186250000Y-152250000D03*
X187050000Y-152250000D03*
X187850000Y-152250000D03*
D10*
X219475000Y-179912500D03*
X219475000Y-182312500D03*
D11*
X331650000Y-166275000D03*
X331650000Y-163875000D03*
D10*
X283057600Y-191662200D03*
X283057600Y-194062200D03*
X335025000Y-178075000D03*
X335025000Y-180475000D03*
D19*
X168325000Y-149850000D03*
X284480000Y-219202000D03*
D11*
X134375000Y-215650000D03*
X134375000Y-213250000D03*
X86975000Y-97075000D03*
X86975000Y-94675000D03*
X160175000Y-88625000D03*
X160175000Y-86225000D03*
X91350000Y-77100000D03*
X91350000Y-74700000D03*
D19*
X289225000Y-159550000D03*
D10*
X224275000Y-179912500D03*
X224275000Y-182312500D03*
X244975000Y-151975000D03*
X244975000Y-154375000D03*
D19*
X265800000Y-192100000D03*
X334450000Y-156525000D03*
D46*
X112550000Y-53000000D03*
X112550000Y-54900000D03*
D10*
X150600000Y-149475000D03*
X150600000Y-151875000D03*
D11*
X86925000Y-85525000D03*
X86925000Y-83125000D03*
D10*
X252175000Y-154375000D03*
X252175000Y-156775000D03*
D46*
X172275000Y-147600000D03*
X172275000Y-149500000D03*
D10*
X204950000Y-53450000D03*
X204950000Y-55850000D03*
D11*
X154575000Y-66150000D03*
X154575000Y-63750000D03*
D12*
X169775000Y-71075000D03*
D13*
X169775000Y-70775000D03*
X170775000Y-73775000D03*
D14*
X170775000Y-73475000D03*
D13*
X168775000Y-73775000D03*
D14*
X168775000Y-73475000D03*
D10*
X282219400Y-205835400D03*
X282219400Y-208235400D03*
D11*
X267925000Y-193250000D03*
X267925000Y-190850000D03*
X84600000Y-97075000D03*
X84600000Y-94675000D03*
D10*
X324175000Y-185450000D03*
X324175000Y-187850000D03*
D46*
X112575000Y-48225000D03*
X112575000Y-50125000D03*
D10*
X197750000Y-53850000D03*
X197750000Y-56250000D03*
D17*
X127526000Y-169170000D03*
D18*
X127526000Y-170110000D03*
X127526000Y-170910000D03*
X127526000Y-171710000D03*
X127526000Y-172510000D03*
X127526000Y-173310000D03*
X127526000Y-174110000D03*
X127526000Y-174910000D03*
X127526000Y-175710000D03*
X127526000Y-176510000D03*
X127526000Y-177310000D03*
X127526000Y-178110000D03*
X127526000Y-178910000D03*
X127526000Y-179710000D03*
X127526000Y-180510000D03*
X127526000Y-181310000D03*
X127526000Y-182110000D03*
X127526000Y-182910000D03*
X127526000Y-183710000D03*
X127526000Y-184510000D03*
X127526000Y-185310000D03*
X127526000Y-186110000D03*
X127526000Y-186910000D03*
D17*
X127526000Y-187890000D03*
D52*
X124810000Y-190346800D03*
D53*
X123870000Y-190346800D03*
X123070000Y-190346800D03*
X122270000Y-190346800D03*
X121470000Y-190346800D03*
X120670000Y-190346800D03*
X119870000Y-190346800D03*
X119070000Y-190346800D03*
X118270000Y-190346800D03*
X117470000Y-190346800D03*
X116670000Y-190346800D03*
X115870000Y-190346800D03*
X115070000Y-190346800D03*
X114270000Y-190346800D03*
X113470000Y-190346800D03*
D52*
X112470000Y-190346800D03*
D17*
X109764800Y-187890000D03*
D18*
X109764800Y-186910000D03*
X109764800Y-186110000D03*
X109764800Y-185310000D03*
X109764800Y-184510000D03*
X109764800Y-183710000D03*
X109764800Y-182910000D03*
X109764800Y-182110000D03*
X109764800Y-181310000D03*
X109764800Y-180510000D03*
X109764800Y-179710000D03*
X109764800Y-178910000D03*
X109764800Y-178110000D03*
X109764800Y-177310000D03*
X109764800Y-176510000D03*
X109764800Y-175710000D03*
X109764800Y-174910000D03*
X109764800Y-174110000D03*
X109764800Y-173310000D03*
X109764800Y-172510000D03*
X109764800Y-171710000D03*
X109764800Y-170910000D03*
X109764800Y-170110000D03*
D17*
X109764800Y-169170000D03*
D52*
X112470000Y-166718400D03*
D53*
X113470000Y-166718400D03*
X114270000Y-166718400D03*
X115070000Y-166718400D03*
X115870000Y-166718400D03*
X116670000Y-166718400D03*
X117470000Y-166718400D03*
X118270000Y-166718400D03*
X119070000Y-166718400D03*
X119870000Y-166718400D03*
X120670000Y-166718400D03*
X121470000Y-166718400D03*
X122270000Y-166718400D03*
X123070000Y-166718400D03*
X123870000Y-166718400D03*
D52*
X124810000Y-166718400D03*
D10*
X106600000Y-53975000D03*
X106600000Y-56375000D03*
D30*
X329650000Y-171475000D03*
X332050000Y-171475000D03*
D11*
X84550000Y-90725000D03*
X84550000Y-88325000D03*
D12*
X205575000Y-201125000D03*
D13*
X205575000Y-200825000D03*
X206575000Y-203825000D03*
D14*
X206575000Y-203525000D03*
D13*
X204575000Y-203825000D03*
D14*
X204575000Y-203525000D03*
D19*
X328075000Y-171475000D03*
X319325000Y-165375000D03*
D10*
X217400000Y-90125000D03*
X217400000Y-92525000D03*
X126125000Y-60525000D03*
X126125000Y-62925000D03*
D12*
X98575000Y-59150000D03*
D13*
X98575000Y-58850000D03*
X99575000Y-61850000D03*
D14*
X99575000Y-61550000D03*
D13*
X97575000Y-61850000D03*
D14*
X97575000Y-61550000D03*
D19*
X281600000Y-163525000D03*
D11*
X337675000Y-198200000D03*
X337675000Y-195800000D03*
D22*
X199450000Y-93875000D03*
X198650000Y-93875000D03*
X197850000Y-93875000D03*
X197050000Y-93875000D03*
X197050000Y-91975000D03*
X197850000Y-91975000D03*
X198650000Y-91975000D03*
X199450000Y-91975000D03*
D10*
X112500000Y-56550000D03*
X112500000Y-58950000D03*
D11*
X203425000Y-96537500D03*
X203425000Y-94137500D03*
X80575000Y-75125000D03*
X80575000Y-72725000D03*
D10*
X263875000Y-164300000D03*
X263875000Y-166700000D03*
X323325000Y-195250000D03*
X323325000Y-197650000D03*
X262250000Y-195275000D03*
X262250000Y-197675000D03*
D19*
X257675000Y-203900000D03*
D12*
X138325000Y-213225000D03*
D13*
X138325000Y-212925000D03*
X139325000Y-215925000D03*
D14*
X139325000Y-215625000D03*
D13*
X137325000Y-215925000D03*
D14*
X137325000Y-215625000D03*
D30*
X97075000Y-194950000D03*
X99475000Y-194950000D03*
D19*
X295376600Y-216230200D03*
D11*
X192925000Y-52250000D03*
X192925000Y-49850000D03*
X82200000Y-102275000D03*
X82200000Y-99875000D03*
D10*
X328950000Y-190275000D03*
X328950000Y-192675000D03*
X327675000Y-163500000D03*
X327675000Y-165900000D03*
D11*
X335300000Y-198200000D03*
X335300000Y-195800000D03*
D10*
X163575000Y-206725000D03*
X163575000Y-209125000D03*
X325375000Y-195250000D03*
X325375000Y-197650000D03*
D19*
X204975000Y-88950000D03*
D25*
X114550000Y-58700000D03*
X114550000Y-56800000D03*
D19*
X163425000Y-64700000D03*
D10*
X293400000Y-157000000D03*
X293400000Y-159400000D03*
D25*
X217450000Y-138575000D03*
X217450000Y-136675000D03*
D11*
X247400000Y-158375000D03*
X247400000Y-155975000D03*
D10*
X75850000Y-77325000D03*
X75850000Y-79725000D03*
D19*
X288493200Y-219227400D03*
D11*
X219950000Y-198300000D03*
X219950000Y-195900000D03*
D10*
X286850000Y-183875000D03*
X286850000Y-186275000D03*
D11*
X253325000Y-200875000D03*
X253325000Y-198475000D03*
X150600000Y-147875000D03*
X150600000Y-145475000D03*
D19*
X253850000Y-173500000D03*
D54*
X256865000Y-171625000D03*
D55*
X258580000Y-171625000D03*
X259850000Y-171625000D03*
X261120000Y-171625000D03*
X262390000Y-171625000D03*
X263660000Y-171625000D03*
X264930000Y-171625000D03*
X266200000Y-171625000D03*
X267470000Y-171625000D03*
D54*
X269185000Y-171625000D03*
X269185000Y-177825000D03*
D55*
X267470000Y-177825000D03*
X266200000Y-177825000D03*
X264930000Y-177825000D03*
X263660000Y-177825000D03*
X262390000Y-177825000D03*
X261120000Y-177825000D03*
X259850000Y-177825000D03*
X258580000Y-177825000D03*
D54*
X256865000Y-177825000D03*
D22*
X187475000Y-160975000D03*
X186675000Y-160975000D03*
X185875000Y-160975000D03*
X185075000Y-160975000D03*
X185075000Y-159075000D03*
X185875000Y-159075000D03*
X186675000Y-159075000D03*
X187475000Y-159075000D03*
D33*
X320950000Y-189850000D03*
X320950000Y-193050000D03*
D11*
X187600000Y-189000000D03*
X187600000Y-186600000D03*
D10*
X221450000Y-168350000D03*
X221450000Y-170750000D03*
X277050000Y-178675000D03*
X277050000Y-181075000D03*
X112625000Y-125987500D03*
X112625000Y-128387500D03*
X219650000Y-136625000D03*
X219650000Y-139025000D03*
X162275000Y-139075000D03*
X162275000Y-141475000D03*
D20*
X158710000Y-118875000D03*
D21*
X156995000Y-118875000D03*
X155725000Y-118875000D03*
X154455000Y-118875000D03*
X153185000Y-118875000D03*
X151915000Y-118875000D03*
X150645000Y-118875000D03*
X149375000Y-118875000D03*
X148105000Y-118875000D03*
D20*
X146390000Y-118875000D03*
X146390000Y-112675000D03*
D21*
X148105000Y-112675000D03*
X149375000Y-112675000D03*
X150645000Y-112675000D03*
X151915000Y-112675000D03*
X153185000Y-112675000D03*
X154455000Y-112675000D03*
X155725000Y-112675000D03*
X156995000Y-112675000D03*
D20*
X158710000Y-112675000D03*
D12*
X77050000Y-72725000D03*
D13*
X77050000Y-72425000D03*
X78050000Y-75425000D03*
D14*
X78050000Y-75125000D03*
D13*
X76050000Y-75425000D03*
D14*
X76050000Y-75125000D03*
D19*
X125125000Y-58350000D03*
X248650000Y-219275000D03*
D25*
X249825000Y-200850000D03*
X249825000Y-198950000D03*
D19*
X317300000Y-219250000D03*
X194150000Y-57850000D03*
D11*
X247425000Y-200900000D03*
X247425000Y-198500000D03*
X141550000Y-220075000D03*
X141550000Y-217675000D03*
X285470600Y-203263200D03*
X285470600Y-200863200D03*
D56*
X163925000Y-144700000D03*
X163925000Y-151300000D03*
D19*
X257700000Y-206950000D03*
X318475000Y-155375000D03*
D12*
X200600000Y-85800000D03*
D13*
X200600000Y-85500000D03*
X201600000Y-88500000D03*
D14*
X201600000Y-88200000D03*
D13*
X199600000Y-88500000D03*
D14*
X199600000Y-88200000D03*
D10*
X324100000Y-173475000D03*
X324100000Y-175875000D03*
D19*
X298373800Y-216281000D03*
D11*
X321275000Y-197850000D03*
X321275000Y-195450000D03*
D20*
X162900000Y-59450000D03*
D21*
X161185000Y-59450000D03*
X159915000Y-59450000D03*
D20*
X158200000Y-59450000D03*
X158200000Y-53250000D03*
D21*
X159915000Y-53250000D03*
X161185000Y-53250000D03*
D20*
X162900000Y-53250000D03*
D10*
X111887000Y-141370200D03*
X111887000Y-143770200D03*
D12*
X113000000Y-75925000D03*
D13*
X113000000Y-75625000D03*
X114000000Y-78625000D03*
D14*
X114000000Y-78325000D03*
D13*
X112000000Y-78625000D03*
D14*
X112000000Y-78325000D03*
D10*
X119525000Y-56750000D03*
X119525000Y-59150000D03*
X338075000Y-206175000D03*
X338075000Y-208575000D03*
D11*
X291439600Y-217658800D03*
X291439600Y-215258800D03*
X245825000Y-147200000D03*
X245825000Y-144800000D03*
D10*
X288264600Y-202254000D03*
X288264600Y-204654000D03*
X205075000Y-159200000D03*
X205075000Y-161600000D03*
X260200000Y-150375000D03*
X260200000Y-152775000D03*
D44*
X138150000Y-63775000D03*
X138150000Y-60825000D03*
D11*
X277672800Y-205219000D03*
X277672800Y-202819000D03*
D19*
X268275000Y-159350000D03*
D11*
X198450000Y-80650000D03*
X198450000Y-78250000D03*
D10*
X80575000Y-77325000D03*
X80575000Y-79725000D03*
D12*
X280644600Y-197459600D03*
D13*
X280644600Y-197159600D03*
X281644600Y-200159600D03*
D14*
X281644600Y-199859600D03*
D13*
X279644600Y-200159600D03*
D14*
X279644600Y-199859600D03*
D11*
X111750000Y-63175000D03*
X111750000Y-60775000D03*
D10*
X137575000Y-217850000D03*
X137575000Y-220250000D03*
D11*
X163575000Y-196600000D03*
X163575000Y-194200000D03*
X123700000Y-52375000D03*
X123700000Y-49975000D03*
D12*
X272592800Y-197459600D03*
D13*
X272592800Y-197159600D03*
X273592800Y-200159600D03*
D14*
X273592800Y-199859600D03*
D13*
X271592800Y-200159600D03*
D14*
X271592800Y-199859600D03*
D11*
X104600000Y-62400000D03*
X104600000Y-60000000D03*
D24*
X318575000Y-210425000D03*
X318575000Y-215625000D03*
D19*
X329875000Y-158375000D03*
D11*
X122575000Y-115350000D03*
X122575000Y-112950000D03*
D19*
X316775000Y-165375000D03*
X152525000Y-68475000D03*
D10*
X257800000Y-150375000D03*
X257800000Y-152775000D03*
D44*
X271725000Y-166975000D03*
X271725000Y-164025000D03*
D11*
X247025000Y-196525000D03*
X247025000Y-194125000D03*
X320950000Y-187850000D03*
X320950000Y-185450000D03*
D12*
X106650000Y-70700000D03*
D13*
X106650000Y-70400000D03*
X107650000Y-73400000D03*
D14*
X107650000Y-73100000D03*
D13*
X105650000Y-73400000D03*
D14*
X105650000Y-73100000D03*
D10*
X260250000Y-195425000D03*
X260250000Y-197825000D03*
D11*
X327700000Y-197450000D03*
X327700000Y-195050000D03*
X102550000Y-57625000D03*
X102550000Y-55225000D03*
D10*
X181500000Y-168929200D03*
X181500000Y-171329200D03*
D19*
X309725000Y-172550000D03*
D57*
X334100000Y-187575000D03*
X334100000Y-192075000D03*
D10*
X148525000Y-65075000D03*
X148525000Y-67475000D03*
X249825000Y-155975000D03*
X249825000Y-158375000D03*
D11*
X289077400Y-194062200D03*
X289077400Y-191662200D03*
D10*
X119850000Y-147325000D03*
X119850000Y-149725000D03*
D29*
X345675000Y-177475000D03*
X343275000Y-177475000D03*
D46*
X249825000Y-203300000D03*
X249825000Y-205200000D03*
D10*
X157975000Y-90975000D03*
X157975000Y-93375000D03*
M02*
