M48
; DRILL file {KiCad 7.0.8} date 2023 November 08, Wednesday 11:42:41
; FORMAT={-:-/ absolute / metric / decimal}
; #@! TF.CreationDate,2023-11-08T11:42:41+01:00
; #@! TF.GenerationSoftware,Kicad,Pcbnew,7.0.8
; #@! TF.FileFunction,Plated,1,2,PTH
FMAT,2
METRIC
; #@! TA.AperFunction,Plated,PTH,ViaDrill
T1C0.300
; #@! TA.AperFunction,Plated,PTH,ViaDrill
T2C0.400
; #@! TA.AperFunction,Plated,PTH,ViaDrill
T3C0.800
; #@! TA.AperFunction,Plated,PTH,ComponentDrill
T4C0.800
; #@! TA.AperFunction,Plated,PTH,ComponentDrill
T5C0.900
; #@! TA.AperFunction,Plated,PTH,ComponentDrill
T6C1.000
; #@! TA.AperFunction,Plated,PTH,ComponentDrill
T7C1.100
; #@! TA.AperFunction,Plated,PTH,ComponentDrill
T8C1.200
; #@! TA.AperFunction,Plated,PTH,ComponentDrill
T9C1.250
; #@! TA.AperFunction,Plated,PTH,ComponentDrill
T10C1.500
; #@! TA.AperFunction,Plated,PTH,ComponentDrill
T11C1.600
; #@! TA.AperFunction,Plated,PTH,ComponentDrill
T12C1.700
; #@! TA.AperFunction,Plated,PTH,ComponentDrill
T13C1.750
; #@! TA.AperFunction,Plated,PTH,ComponentDrill
T14C2.000
; #@! TA.AperFunction,Plated,PTH,ComponentDrill
T15C2.400
%
G90
G05
T1
X84.975Y-152.225
X86.2Y-152.225
X88.575Y-121.475
X90.875Y-125.9
X92.675Y-176.55
X93.925Y-176.55
X94.125Y-194.925
X95.2Y-176.55
X96.475Y-176.55
X97.75Y-176.55
X99.025Y-167.025
X99.025Y-176.55
X100.275Y-167.025
X100.275Y-180.375
X101.55Y-167.025
X101.625Y-179.8
X101.85Y-100.225
X102.375Y-99.25
X102.825Y-167.025
X102.85Y-179.075
X105.925Y-166.9
X106.3Y-186.9
X106.675Y-100.225
X106.725Y-167.725
X107.075Y-99.25
X107.125Y-186.1
X107.15Y-187.7
X107.525Y-166.925
X107.825Y-136.225
X107.825Y-137.8
X108.3Y-167.7
X108.625Y-137.025
X108.625Y-138.575
X108.65Y-135.475
X108.85Y-134.275
X109.042Y-70.155
X110.15Y-64.35
X110.15Y-65.925
X112.25Y-160.55
X112.675Y-164.2
X112.675Y-170.125
X112.675Y-171.725
X112.675Y-173.325
X113.45Y-163.35
X113.45Y-169.325
X113.45Y-170.925
X113.45Y-172.525
X113.85Y-159.375
X113.875Y-160.55
X114.25Y-164.2
X115.05Y-160.15
X115.05Y-163.35
X115.85Y-164.2
X115.875Y-161.725
X116.65Y-163.35
X117.05Y-161.775
X119.05Y-160.95
X119.05Y-163.35
X119.375Y-138.575
X119.85Y-161.75
X119.85Y-164.125
X120.175Y-139.0
X120.65Y-160.925
X120.65Y-163.35
X120.95Y-139.425
X121.8Y-107.425
X122.1Y-104.675
X122.15Y-147.4
X122.25Y-163.35
X122.575Y-107.0
X122.6Y-146.575
X123.05Y-164.125
X123.35Y-106.575
X123.35Y-145.825
X123.825Y-101.05
X123.85Y-163.35
X124.175Y-141.475
X124.175Y-150.125
X124.2Y-109.8
X124.225Y-107.025
X124.65Y-164.125
X125.0Y-109.425
X125.0Y-150.5
X125.025Y-152.525
X125.425Y-163.35
X125.45Y-141.475
X125.775Y-109.025
X125.825Y-152.125
X126.15Y-110.325
X126.5Y-166.15
X126.6Y-108.65
X126.625Y-151.3
X126.625Y-152.9
X126.725Y-141.475
X127.05Y-164.525
X127.225Y-196.45
X127.275Y-166.95
X127.35Y-153.4
X127.375Y-140.85
X127.4Y-146.5
X127.425Y-148.125
X127.775Y-110.325
X127.85Y-147.3
X128.0Y-141.475
X128.05Y-166.15
X128.425Y-196.45
X128.475Y-195.325
X128.925Y-166.95
X129.025Y-102.125
X129.05Y-110.325
X129.05Y-141.35
X129.175Y-198.45
X129.225Y-194.9
X129.6Y-194.05
X129.75Y-166.15
X129.9Y-141.625
X130.0Y-199.25
X130.025Y-197.65
X130.275Y-172.075
X130.275Y-180.5
X130.3Y-96.525
X130.3Y-178.9
X130.325Y-110.325
X130.65Y-151.325
X131.075Y-179.7
X131.1Y-181.325
X131.45Y-182.9
X131.575Y-110.325
X131.8Y-141.725
X132.25Y-182.1
X132.3Y-183.675
X132.825Y-96.525
X132.85Y-110.325
X133.075Y-141.725
X133.1Y-184.475
X134.125Y-110.325
X134.35Y-141.725
X135.375Y-96.525
X135.4Y-110.325
X135.475Y-148.9
X135.625Y-141.725
X136.225Y-146.975
X136.35Y-110.125
X136.35Y-149.25
X136.65Y-101.4
X136.7Y-96.425
X137.075Y-146.55
X137.15Y-148.85
X137.425Y-141.725
X137.5Y-169.675
X137.65Y-110.2
X137.875Y-148.475
X137.95Y-146.1
X138.65Y-148.9
X138.66Y-188.09
X139.075Y-152.9
X139.425Y-148.5
X139.45Y-188.85
X139.825Y-152.475
X140.175Y-148.9
X140.275Y-188.125
X140.625Y-152.075
X140.65Y-149.7
X141.05Y-151.325
X141.05Y-188.9
X141.85Y-188.125
X142.2Y-123.375
X142.675Y-188.9
X142.975Y-121.75
X143.0Y-144.125
X143.25Y-154.05
X143.375Y-123.35
X143.45Y-188.125
X143.85Y-144.9
X144.175Y-121.875
X144.2Y-123.725
X144.2Y-144.1
X144.2Y-151.7
X144.25Y-179.625
X144.25Y-188.9
X144.6Y-124.55
X144.6Y-150.9
X144.9Y-149.875
X145.325Y-169.675
X145.425Y-180.05
X145.5Y-184.825
X145.55Y-148.575
X145.625Y-159.1
X146.175Y-144.225
X146.475Y-141.775
X146.55Y-145.0
X146.95Y-124.55
X146.95Y-142.6
X147.025Y-158.5
X147.2Y-168.825
X147.25Y-143.425
X147.3Y-150.2
X147.825Y-169.625
X148.1Y-122.1
X148.15Y-102.575
X148.15Y-158.5
X148.725Y-121.475
X149.325Y-143.8
X149.425Y-176.05
X149.775Y-142.9
X150.15Y-101.8
X150.15Y-142.1
X150.575Y-141.3
X150.6Y-143.275
X150.65Y-122.075
X151.275Y-121.475
X151.35Y-142.475
X151.425Y-141.025
X151.465Y-140.132
X152.175Y-140.5
X152.175Y-141.675
X152.575Y-139.1
X152.975Y-140.9
X153.0Y-158.475
X153.2Y-122.05
X153.825Y-121.4
X154.1Y-67.525
X154.225Y-158.475
X155.35Y-67.55
X155.625Y-148.2
X155.675Y-139.4
X155.7Y-138.5
X155.75Y-122.075
X155.75Y-123.725
X156.35Y-121.15
X156.6Y-142.5
X156.975Y-123.3
X157.0Y-152.875
X158.175Y-122.95
X158.225Y-150.85
X158.95Y-138.5
X159.025Y-140.1
X159.225Y-93.375
X159.35Y-92.175
X159.675Y-137.825
X159.675Y-139.4
X159.675Y-141.0
X159.8Y-150.425
X160.1Y-142.5
X160.175Y-91.025
X161.25Y-92.575
X162.56Y-64.71
X163.5Y-159.25
X163.525Y-163.675
X165.65Y-90.225
X165.875Y-110.625
X166.525Y-98.35
X166.525Y-109.85
X166.6Y-91.8
X166.899Y-90.275
X167.125Y-110.65
X167.2Y-97.725
X167.775Y-109.875
X167.825Y-91.775
X167.825Y-98.4
X168.225Y-90.225
X168.425Y-110.65
X168.45Y-97.725
X169.075Y-91.775
X169.075Y-109.875
X169.1Y-98.4
X169.5Y-90.25
X169.65Y-111.625
X169.7Y-114.625
X170.325Y-91.775
X170.35Y-98.4
X170.35Y-107.475
X170.725Y-90.25
X170.95Y-112.225
X170.95Y-115.05
X171.575Y-108.85
X171.6Y-91.775
X171.65Y-98.4
X172.25Y-107.3
X172.25Y-115.025
X172.275Y-129.7
X172.275Y-176.35
X172.325Y-198.35
X172.325Y-200.4
X172.875Y-92.075
X172.9Y-98.4
X172.9Y-110.85
X173.5Y-124.425
X173.5Y-199.15
X173.525Y-91.275
X173.55Y-115.425
X174.125Y-92.125
X174.175Y-110.6
X174.325Y-199.575
X174.725Y-91.3
X174.8Y-115.5
X175.35Y-91.925
X175.4Y-153.625
X175.425Y-98.4
X175.45Y-107.25
X175.85Y-154.4
X176.05Y-125.725
X176.06Y-115.535
X176.3Y-155.25
X176.525Y-198.45
X176.65Y-107.25
X176.675Y-91.75
X177.325Y-90.425
X177.325Y-114.9
X177.325Y-126.375
X177.45Y-159.25
X177.9Y-107.225
X177.924Y-91.2
X177.975Y-115.525
X178.6Y-90.4
X178.6Y-114.75
X178.6Y-126.975
X178.725Y-198.75
X179.175Y-91.2
X179.175Y-107.225
X179.235Y-115.414
X179.65Y-85.6
X179.87Y-114.855
X179.875Y-128.25
X179.875Y-126.95
X180.475Y-124.4
X180.475Y-126.0
X181.35Y-90.975
X181.775Y-127.45
X182.2Y-98.65
X182.325Y-85.6
X182.4Y-107.225
X182.425Y-124.4
X182.55Y-92.7
X183.075Y-128.1
X183.55Y-92.7
X183.675Y-124.55
X184.275Y-128.275
X184.625Y-98.625
X184.95Y-124.375
X185.1Y-93.125
X185.9Y-92.5
X189.275Y-153.75
X189.6Y-92.725
X189.725Y-158.525
X190.075Y-155.3
X190.075Y-156.525
X190.075Y-159.35
X190.075Y-160.525
X190.075Y-161.725
X190.075Y-162.925
X190.075Y-164.25
X190.075Y-165.3
X190.075Y-166.5
X190.075Y-167.7
X190.1Y-127.375
X190.1Y-149.55
X190.1Y-150.55
X190.1Y-151.525
X190.1Y-152.575
X190.1Y-154.15
X190.1Y-157.725
X190.4Y-93.5
X190.525Y-120.975
X190.6Y-110.05
X190.625Y-115.275
X190.775Y-95.7
X191.45Y-103.525
X191.6Y-96.525
X192.325Y-151.975
X193.45Y-148.0
X193.9Y-148.8
X194.2Y-100.225
X194.3Y-149.575
X194.55Y-128.225
X194.55Y-142.45
X194.575Y-122.6
X194.625Y-96.525
X194.625Y-112.9
X194.65Y-107.3
X194.65Y-109.7
X194.65Y-111.3
X194.675Y-114.5
X194.675Y-150.375
X194.7Y-116.1
X194.7Y-124.1
X194.9Y-144.55
X194.925Y-120.2
X194.95Y-127.4
X195.0Y-113.7
X195.025Y-123.3
X195.05Y-110.5
X195.05Y-112.1
X195.075Y-115.3
X195.075Y-121.65
X195.45Y-120.875
X195.825Y-92.15
X195.875Y-147.975
X196.075Y-173.65
X196.075Y-176.05
X196.1Y-171.3
X196.225Y-148.8
X196.525Y-144.55
X196.725Y-149.575
X197.05Y-96.525
X197.075Y-150.375
X197.35Y-144.975
X197.475Y-153.6
X197.5Y-151.2
X197.85Y-99.725
X197.9Y-152.8
X197.9Y-169.1
X198.275Y-154.025
X198.65Y-99.325
X198.675Y-158.25
X198.682Y-169.535
X199.475Y-99.675
X199.825Y-142.45
X200.25Y-96.95
X201.075Y-97.7
X201.075Y-99.325
X201.375Y-91.375
X201.45Y-150.7
X201.5Y-151.85
X201.875Y-95.35
X202.175Y-99.325
X202.275Y-138.025
X202.425Y-150.475
X202.9Y-187.25
X202.9Y-188.825
X202.925Y-185.625
X203.425Y-97.775
X203.475Y-150.2
X203.7Y-188.075
X203.725Y-186.425
X203.725Y-196.825
X203.75Y-184.85
X203.85Y-164.4
X204.125Y-165.675
X204.225Y-138.025
X204.375Y-150.125
X204.55Y-196.0
X204.625Y-99.7
X205.0Y-98.475
X205.325Y-196.4
X205.825Y-130.45
X206.025Y-95.05
X206.25Y-104.475
X206.55Y-185.65
X206.925Y-197.2
X207.075Y-104.925
X207.175Y-130.05
X207.875Y-104.55
X208.2Y-89.8
X208.337Y-96.22
X208.375Y-97.6
X208.4Y-98.775
X208.65Y-129.625
X209.625Y-88.825
X210.175Y-89.775
X210.35Y-95.225
X210.35Y-96.225
X210.375Y-97.625
X210.375Y-98.8
X210.55Y-107.025
X210.625Y-129.625
X211.625Y-129.625
X211.675Y-189.2
X212.35Y-92.325
X212.525Y-86.575
X212.775Y-129.625
X213.225Y-128.625
X213.325Y-100.0
X213.35Y-88.2
X213.375Y-87.0
X213.825Y-127.875
X214.65Y-188.05
X214.825Y-127.85
X215.875Y-187.175
X216.075Y-53.275
X216.25Y-105.225
X216.6Y-188.025
X216.9Y-97.025
X217.075Y-96.05
X217.075Y-104.825
X217.1Y-87.4
X217.35Y-187.25
X217.875Y-112.775
X218.075Y-188.05
X218.225Y-194.4
X218.275Y-177.15
X218.374Y-113.575
X218.85Y-114.3
X218.925Y-174.425
X218.95Y-187.225
X219.075Y-176.35
X219.725Y-111.4
X220.075Y-166.875
X220.487Y-186.912
X220.55Y-110.6
X220.55Y-112.2
X220.65Y-122.85
X220.65Y-176.35
X220.7Y-124.1
X220.725Y-90.8
X220.75Y-107.375
X220.9Y-158.5
X220.95Y-111.375
X221.1Y-106.55
X221.275Y-177.225
X221.712Y-185.662
X221.725Y-184.25
X221.725Y-188.825
X222.225Y-91.475
X222.275Y-131.6
X222.5Y-175.25
X222.5Y-185.25
X222.55Y-93.6
X222.575Y-92.475
X222.625Y-54.55
X222.7Y-94.825
X222.7Y-96.2
X222.7Y-97.475
X222.725Y-98.725
X222.925Y-191.65
X223.25Y-187.025
X223.3Y-102.775
X223.325Y-183.625
X223.4Y-131.6
X223.475Y-101.575
X223.5Y-99.95
X223.65Y-175.25
X223.75Y-152.95
X223.75Y-192.075
X224.5Y-98.725
X224.5Y-152.55
X224.525Y-191.65
X224.75Y-100.15
X224.9Y-97.475
X225.275Y-173.5
X225.3Y-96.125
X225.35Y-116.1
X225.35Y-152.15
X225.45Y-174.45
X225.5Y-88.375
X225.65Y-188.05
X225.65Y-189.3
X225.675Y-175.425
X225.7Y-94.8
X225.775Y-186.825
X225.8Y-130.425
X225.825Y-128.825
X225.9Y-191.475
X226.0Y-92.5
X226.1Y-151.725
X226.2Y-162.5
X226.275Y-127.3
X226.375Y-163.9
X226.575Y-129.625
X226.625Y-125.25
X226.625Y-126.5
X226.7Y-187.425
X226.7Y-188.675
X226.85Y-123.625
X226.9Y-181.225
X226.925Y-177.575
X226.975Y-151.3
X227.275Y-182.225
X227.325Y-131.2
X227.325Y-140.5
X227.725Y-183.25
X227.775Y-190.425
X227.825Y-150.925
X227.85Y-198.175
X228.325Y-199.2
X228.55Y-150.525
X229.325Y-150.125
X230.025Y-182.825
X230.075Y-149.725
X230.45Y-182.025
X230.925Y-181.25
X231.025Y-187.175
X231.35Y-157.325
X231.7Y-156.525
X232.1Y-155.75
X232.525Y-154.925
X232.9Y-154.15
X232.9Y-196.8
X233.125Y-192.75
X233.25Y-153.275
X233.275Y-199.375
X233.7Y-152.525
X234.1Y-151.75
X234.1Y-193.225
X234.275Y-199.575
X234.95Y-196.675
X236.5Y-199.975
X236.925Y-192.75
X237.25Y-201.0
X237.4Y-196.725
X237.75Y-183.175
X238.05Y-200.35
X238.45Y-192.225
X238.7Y-199.6
X239.65Y-192.25
X239.7Y-196.75
X240.925Y-197.35
X241.15Y-181.775
X242.075Y-181.825
X244.025Y-146.85
X244.25Y-184.875
X244.475Y-187.1
X244.8Y-189.325
X245.175Y-184.3
X245.425Y-188.8
X245.55Y-185.925
X246.05Y-200.925
X246.3Y-186.625
X246.5Y-185.65
X246.875Y-193.025
X246.9Y-213.15
X247.0Y-220.225
X247.025Y-189.05
X247.675Y-186.8
X247.7Y-192.775
X248.5Y-193.0
X248.575Y-188.125
X249.2Y-197.7
X250.825Y-197.175
X250.9Y-206.975
X251.1Y-199.6
X251.175Y-190.475
X251.65Y-214.125
X252.675Y-194.375
X252.925Y-214.15
X255.1Y-198.8
X255.1Y-199.75
X255.275Y-206.0
X255.725Y-203.6
X256.1Y-201.8
X256.3Y-207.475
X258.15Y-200.525
X258.675Y-199.775
X258.725Y-201.275
X259.125Y-204.575
X259.7Y-205.425
X260.5Y-204.75
X260.525Y-213.95
X260.725Y-200.55
X261.35Y-205.35
X261.35Y-206.925
X261.7Y-202.725
X261.725Y-200.575
X261.725Y-201.55
X263.15Y-205.325
X263.15Y-206.575
X265.311Y-182.339
X266.275Y-182.175
X266.975Y-211.725
X267.7Y-202.75
X267.925Y-194.45
X268.075Y-199.925
X268.075Y-200.925
X268.1Y-201.925
X268.475Y-184.9
X269.1Y-202.925
X269.225Y-180.375
X269.425Y-166.05
X269.45Y-184.5
X269.451Y-206.251
X269.825Y-202.375
X270.0Y-181.15
X270.075Y-203.8
X270.45Y-195.9
X270.45Y-196.925
X270.825Y-203.5
X271.0Y-180.75
X271.069Y-210.49
X271.45Y-206.35
X271.7Y-204.125
X271.875Y-181.325
X271.875Y-205.1
X272.475Y-190.225
X273.4Y-181.15
X273.475Y-190.225
X274.375Y-180.15
X274.475Y-190.225
X275.0Y-177.5
X275.05Y-205.725
X275.225Y-179.325
X275.45Y-175.5
X275.475Y-190.225
X276.475Y-190.225
X277.475Y-190.225
X277.475Y-206.525
X277.5Y-220.875
X278.425Y-177.9
X278.475Y-190.225
X278.7Y-194.475
X279.5Y-190.225
X279.625Y-212.25
X279.775Y-194.45
X280.45Y-212.65
X280.475Y-190.225
X280.475Y-206.75
X280.6Y-172.7
X281.5Y-194.7
X281.975Y-195.925
X282.2Y-173.125
X282.2Y-176.925
X283.075Y-190.225
X283.4Y-173.125
X284.175Y-195.925
X284.875Y-190.225
X285.125Y-205.15
X285.471Y-199.441
X285.9Y-204.325
X286.3Y-190.225
X286.8Y-207.175
X286.8Y-208.45
X286.9Y-209.575
X287.025Y-173.125
X287.425Y-190.375
X287.55Y-210.325
X287.625Y-207.8
X288.05Y-209.075
X288.1Y-184.0
X288.125Y-172.85
X289.4Y-172.7
X289.45Y-177.1
X289.45Y-178.325
X289.725Y-200.875
X289.75Y-202.525
X290.175Y-212.375
X290.775Y-178.325
X291.375Y-184.65
X291.44Y-209.067
X291.7Y-195.475
X291.775Y-172.675
X292.075Y-175.925
X292.425Y-209.0
X292.575Y-185.075
X292.575Y-187.25
X292.775Y-172.7
X293.175Y-209.5
X293.8Y-208.65
X294.475Y-174.75
X294.6Y-178.3
X294.8Y-210.65
X294.95Y-192.075
X295.15Y-172.725
X295.25Y-195.275
X295.275Y-186.875
X295.275Y-193.7
X295.475Y-191.35
X295.8Y-185.675
X295.875Y-192.85
X295.925Y-194.5
X296.825Y-211.75
X297.0Y-213.025
X297.35Y-208.85
X297.525Y-186.325
X298.05Y-178.7
X298.075Y-172.75
X298.075Y-177.1
X298.325Y-211.4
X298.375Y-212.425
X298.5Y-176.275
X298.75Y-186.675
X298.875Y-175.525
X299.3Y-178.7
X299.525Y-213.875
X299.8Y-187.875
X300.4Y-186.925
X300.4Y-212.5
X300.95Y-208.95
X300.95Y-210.025
X301.05Y-211.025
X301.3Y-178.75
X303.725Y-178.625
X308.15Y-189.225
X308.425Y-183.475
X309.275Y-201.825
X309.35Y-185.65
X309.65Y-187.475
X309.662Y-188.362
X309.725Y-213.0
X309.95Y-209.825
X310.275Y-203.275
X310.3Y-204.25
X310.925Y-205.875
X311.1Y-204.85
X311.275Y-216.225
X311.55Y-214.45
X311.725Y-215.4
X311.825Y-156.725
X312.3Y-206.25
X312.375Y-185.425
X313.1Y-208.25
X314.55Y-208.11
X314.575Y-206.225
X315.7Y-194.25
X316.475Y-193.875
X317.275Y-193.375
X319.9Y-194.575
X322.3Y-188.375
X323.275Y-198.625
X323.45Y-193.825
X324.05Y-184.525
X324.475Y-193.825
X325.25Y-213.8
X325.475Y-193.825
X326.425Y-184.525
X326.5Y-189.025
X326.5Y-213.8
X326.55Y-193.9
X327.3Y-189.5
X327.35Y-218.175
X327.65Y-193.825
X328.075Y-189.05
X329.275Y-207.025
X330.5Y-218.2
X331.625Y-196.2
X333.25Y-200.625
X333.65Y-206.6
X334.025Y-194.425
X334.125Y-209.775
X334.425Y-205.825
X335.625Y-214.6
X338.0Y-214.6
X339.625Y-207.775
T2
X70.625Y-101.475
X70.625Y-103.475
X71.05Y-45.95
X71.05Y-49.15
X71.05Y-52.375
X71.05Y-68.35
X71.05Y-72.75
X71.05Y-75.95
X71.05Y-81.925
X71.05Y-84.325
X71.4Y-98.925
X71.825Y-122.675
X71.825Y-128.65
X71.825Y-134.675
X71.825Y-140.65
X71.825Y-148.225
X71.825Y-154.625
X71.825Y-161.0
X71.825Y-168.2
X71.825Y-173.75
X71.825Y-180.575
X71.825Y-186.55
X71.825Y-194.5
X71.825Y-200.925
X73.2Y-98.925
X73.2Y-100.425
X74.27Y-78.715
X74.275Y-47.575
X74.625Y-202.55
X75.05Y-196.125
X76.625Y-223.375
X77.45Y-50.75
X77.5Y-44.35
X78.225Y-205.725
X78.308Y-104.648
X78.308Y-106.248
X79.908Y-104.648
X79.908Y-106.248
X80.65Y-122.625
X80.65Y-128.675
X80.65Y-134.675
X80.7Y-47.55
X81.875Y-205.725
X82.245Y-103.454
X82.271Y-81.153
X82.525Y-92.625
X82.6Y-223.375
X83.388Y-118.643
X83.845Y-81.966
X83.9Y-44.35
X84.201Y-104.597
X84.303Y-75.184
X84.6Y-205.725
X84.65Y-86.725
X84.658Y-77.927
X84.658Y-98.704
X85.827Y-107.874
X86.233Y-98.806
X86.25Y-86.725
X87.275Y-166.975
X87.275Y-182.25
X88.265Y-107.493
X88.625Y-146.625
X88.625Y-149.825
X89.002Y-106.248
X89.325Y-223.375
X89.4Y-86.7
X89.433Y-91.923
X90.3Y-44.35
X90.525Y-81.825
X93.475Y-77.925
X95.1Y-60.775
X95.428Y-53.569
X95.75Y-223.375
X96.7Y-44.35
X98.75Y-44.35
X99.475Y-48.75
X99.797Y-63.525
X100.625Y-140.625
X100.625Y-144.625
X100.625Y-148.65
X100.625Y-189.75
X102.032Y-58.572
X102.075Y-223.375
X104.6Y-189.75
X104.6Y-193.675
X104.675Y-162.6
X104.75Y-176.9
X106.275Y-163.375
X106.7Y-116.275
X107.137Y-60.757
X107.8Y-163.375
X108.306Y-54.381
X108.375Y-48.35
X108.525Y-193.675
X108.725Y-44.35
X108.737Y-55.956
X109.25Y-45.95
X109.3Y-223.375
X109.325Y-163.375
X110.525Y-210.1
X111.8Y-197.7
X111.9Y-51.6
X112.95Y-182.9
X113.15Y-176.5
X113.5Y-51.6
X113.525Y-63.575
X113.575Y-44.35
X114.3Y-50.419
X114.935Y-51.55
X114.975Y-223.375
X115.9Y-175.275
X115.9Y-178.525
X115.95Y-187.25
X116.475Y-56.775
X116.5Y-58.2
X116.975Y-197.7
X117.1Y-169.7
X117.975Y-187.25
X118.275Y-178.525
X118.35Y-175.275
X118.65Y-115.9
X118.7Y-169.675
X119.4Y-65.125
X119.475Y-146.25
X119.475Y-187.225
X119.925Y-44.35
X121.437Y-59.588
X122.1Y-223.375
X122.6Y-110.75
X122.657Y-53.569
X123.725Y-59.75
X124.05Y-177.3
X124.05Y-182.9
X126.2Y-59.525
X126.25Y-44.35
X126.275Y-115.85
X126.5Y-55.1
X126.525Y-51.975
X127.6Y-223.375
X129.1Y-214.425
X132.65Y-44.35
X133.475Y-192.425
X135.975Y-218.8
X136.098Y-194.396
X136.175Y-198.825
X136.175Y-204.05
X136.45Y-213.225
X136.725Y-188.8
X137.4Y-172.175
X137.4Y-175.35
X138.5Y-201.225
X138.975Y-115.35
X139.075Y-44.35
X139.525Y-218.825
X139.7Y-173.775
X139.7Y-176.95
X140.225Y-57.95
X140.55Y-223.375
X140.725Y-206.0
X140.975Y-99.35
X141.55Y-211.95
X142.625Y-114.55
X143.9Y-205.975
X143.925Y-212.975
X144.275Y-195.25
X144.475Y-197.625
X145.05Y-44.35
X145.425Y-115.9
X145.725Y-161.275
X145.8Y-121.725
X145.85Y-166.875
X146.175Y-66.325
X146.325Y-212.825
X147.675Y-55.5
X148.05Y-194.85
X148.65Y-212.85
X148.924Y-163.725
X149.0Y-166.775
X149.8Y-158.425
X149.85Y-170.45
X150.2Y-95.725
X150.425Y-195.25
X150.6Y-152.825
X150.65Y-212.075
X151.325Y-170.375
X151.375Y-158.475
X151.375Y-161.275
X151.6Y-185.675
X151.8Y-44.35
X151.875Y-188.8
X152.175Y-95.725
X153.025Y-206.375
X153.25Y-196.05
X153.25Y-201.275
X153.3Y-223.375
X153.425Y-202.8
X153.425Y-204.375
X153.45Y-197.65
X153.45Y-199.2
X153.625Y-212.075
X154.075Y-163.725
X154.25Y-95.725
X154.475Y-61.475
X154.475Y-220.425
X154.8Y-165.975
X155.3Y-60.375
X156.05Y-158.975
X156.125Y-59.075
X156.15Y-217.275
X156.2Y-57.5
X156.2Y-165.975
X156.475Y-55.9
X156.525Y-84.225
X156.525Y-94.95
X156.775Y-214.825
X157.75Y-49.95
X157.8Y-116.125
X157.8Y-158.8
X157.8Y-165.975
X157.825Y-170.425
X158.575Y-44.35
X158.95Y-115.35
X159.2Y-181.65
X159.362Y-170.537
X159.475Y-163.65
X159.475Y-196.375
X159.5Y-202.45
X160.05Y-223.375
X160.2Y-89.925
X160.325Y-191.675
X160.525Y-220.425
X160.6Y-81.15
X160.625Y-176.0
X161.475Y-165.975
X162.25Y-170.4
X163.025Y-49.925
X163.025Y-76.725
X163.025Y-97.025
X163.775Y-181.65
X163.775Y-191.675
X163.775Y-212.45
X164.525Y-220.425
X164.65Y-44.35
X165.425Y-54.65
X165.425Y-57.475
X165.45Y-59.85
X165.85Y-212.45
X165.85Y-217.225
X166.35Y-144.825
X166.375Y-141.225
X166.575Y-223.375
X167.0Y-186.05
X167.525Y-74.225
X167.775Y-178.8
X168.65Y-49.9
X169.3Y-182.0
X170.175Y-55.875
X171.075Y-44.35
X173.05Y-50.325
X173.4Y-55.85
X173.875Y-174.775
X174.275Y-61.85
X174.55Y-138.175
X174.55Y-141.475
X175.0Y-72.275
X175.125Y-50.5
X175.125Y-74.225
X175.35Y-55.85
X177.168Y-50.343
X177.425Y-44.35
X177.575Y-61.85
X177.75Y-147.375
X177.775Y-138.175
X178.175Y-143.4
X178.925Y-63.875
X179.35Y-148.6
X180.325Y-62.85
X180.5Y-146.2
X182.9Y-52.325
X183.8Y-44.35
X184.525Y-56.65
X184.9Y-146.2
X184.975Y-102.875
X185.425Y-107.325
X186.375Y-56.65
X186.9Y-50.275
X187.0Y-86.6
X187.35Y-137.775
X187.5Y-150.35
X187.7Y-140.15
X187.7Y-143.325
X187.731Y-56.694
X187.75Y-102.275
X187.75Y-117.4
X188.125Y-157.725
X188.9Y-50.325
X190.225Y-44.35
X191.75Y-58.65
X191.8Y-87.0
X192.532Y-78.25
X193.525Y-140.025
X194.575Y-51.875
X194.95Y-80.275
X195.075Y-117.275
X195.1Y-118.8
X195.425Y-105.425
X196.675Y-43.875
X197.35Y-223.75
X197.475Y-127.65
X197.475Y-130.0
X197.875Y-107.375
X197.9Y-114.425
X197.9Y-116.425
X198.575Y-104.65
X200.125Y-126.575
X200.975Y-114.825
X201.625Y-220.3
X201.625Y-223.75
X202.125Y-79.05
X202.575Y-130.125
X202.6Y-104.65
X203.025Y-43.875
X203.425Y-58.975
X203.875Y-139.975
X204.0Y-172.95
X204.825Y-211.8
X204.825Y-218.85
X204.925Y-58.975
X204.925Y-114.825
X205.0Y-158.05
X205.0Y-162.975
X205.025Y-167.725
X205.325Y-205.6
X206.275Y-116.875
X206.275Y-119.2
X206.375Y-223.75
X207.075Y-108.5
X207.075Y-111.775
X208.275Y-151.175
X208.85Y-211.8
X208.85Y-218.875
X208.975Y-104.95
X209.1Y-207.9
X209.125Y-201.925
X209.425Y-43.875
X211.9Y-183.95
X211.9Y-202.3
X213.375Y-113.375
X213.475Y-146.95
X213.475Y-157.225
X213.5Y-167.725
X215.675Y-43.875
X216.125Y-106.8
X216.125Y-130.05
X216.4Y-78.2
X216.975Y-98.1
X217.625Y-196.45
X217.95Y-120.025
X218.25Y-108.5
X218.3Y-140.025
X218.75Y-217.275
X218.975Y-163.375
X218.975Y-167.725
X219.075Y-120.9
X219.075Y-130.0
X219.775Y-160.925
X219.975Y-223.85
X220.55Y-194.4
X220.575Y-126.9
X220.625Y-117.275
X220.65Y-157.175
X220.675Y-125.275
X220.95Y-163.35
X221.75Y-173.25
X222.125Y-43.875
X223.375Y-154.375
X223.6Y-104.375
X224.3Y-171.075
X224.325Y-204.275
X226.025Y-157.775
X226.25Y-223.7
X227.175Y-193.675
X228.475Y-43.875
X229.875Y-211.9
X232.5Y-44.625
X232.55Y-223.7
X233.3Y-49.05
X233.3Y-53.05
X233.325Y-207.975
X234.2Y-202.25
X235.7Y-208.775
X235.725Y-205.225
X236.15Y-220.375
X236.55Y-60.775
X236.55Y-62.225
X236.575Y-56.575
X236.575Y-57.975
X236.575Y-59.4
X237.375Y-146.5
X238.475Y-174.425
X238.475Y-176.475
X238.925Y-223.7
X239.1Y-208.775
X240.475Y-51.0
X240.475Y-54.625
X240.475Y-58.625
X240.475Y-64.575
X240.475Y-71.4
X240.475Y-77.4
X240.475Y-84.2
X240.475Y-90.575
X240.475Y-97.0
X240.475Y-103.75
X240.475Y-109.75
X240.475Y-116.575
X240.475Y-122.55
X240.475Y-176.475
X240.9Y-126.95
X242.5Y-128.55
X242.8Y-188.425
X243.35Y-152.325
X243.35Y-156.5
X243.7Y-213.35
X245.6Y-158.05
X246.125Y-223.7
X246.475Y-203.2
X247.2Y-141.275
X248.15Y-203.3
X248.95Y-143.625
X249.275Y-127.7
X249.6Y-141.275
X249.775Y-206.5
X251.725Y-223.7
X251.85Y-150.075
X251.85Y-151.875
X253.25Y-150.475
X254.0Y-154.4
X254.125Y-178.8
X254.225Y-174.725
X255.025Y-169.125
X255.725Y-127.7
X258.175Y-223.7
X258.25Y-190.825
X258.25Y-194.3
X259.3Y-162.8
X259.8Y-174.325
X259.8Y-194.1
X260.25Y-190.75
X261.3Y-162.85
X261.3Y-180.775
X261.4Y-175.125
X261.425Y-193.7
X261.725Y-156.45
X262.25Y-190.725
X262.325Y-127.7
X262.325Y-129.725
X263.05Y-193.125
X263.3Y-162.425
X264.4Y-175.1
X264.525Y-132.5
X264.575Y-223.7
X265.275Y-168.775
X266.7Y-169.025
X266.875Y-166.425
X267.3Y-134.875
X268.9Y-136.475
X269.325Y-211.7
X270.9Y-136.475
X270.9Y-143.3
X271.275Y-149.3
X271.7Y-223.7
X272.25Y-183.55
X272.85Y-201.475
X273.225Y-148.05
X277.3Y-223.7
X279.625Y-201.475
X279.625Y-204.0
X279.65Y-148.05
X282.2Y-183.55
X285.375Y-223.7
X286.025Y-148.05
X289.712Y-199.492
X290.271Y-206.604
X290.625Y-183.475
X290.982Y-196.698
X292.075Y-223.7
X292.525Y-148.05
X294.132Y-207.035
X295.4Y-156.925
X297.025Y-172.675
X299.225Y-148.05
X300.525Y-223.7
X300.55Y-201.85
X301.3Y-169.7
X302.175Y-208.2
X302.875Y-156.925
X304.5Y-202.15
X305.625Y-148.05
X305.775Y-162.35
X307.0Y-223.7
X307.35Y-218.225
X308.925Y-210.65
X312.125Y-179.1
X312.55Y-148.05
X312.9Y-177.9
X313.775Y-217.775
X315.4Y-223.7
X316.225Y-212.2
X317.45Y-197.025
X318.1Y-148.05
X318.575Y-184.2
X320.0Y-199.0
X320.05Y-201.425
X320.075Y-207.875
X320.35Y-217.65
X322.175Y-223.7
X324.2Y-148.05
X324.475Y-201.8
X325.3Y-162.675
X327.275Y-207.85
X327.7Y-198.625
X328.4Y-173.475
X328.45Y-175.45
X328.55Y-223.7
X328.825Y-199.825
X328.825Y-202.2
X329.35Y-166.325
X330.8Y-185.8
X330.825Y-148.05
X331.575Y-157.65
X333.225Y-216.975
X334.375Y-176.2
X334.525Y-204.175
X334.775Y-173.15
X334.9Y-223.7
X335.6Y-176.6
X337.625Y-148.05
X338.85Y-187.4
X339.325Y-202.95
X339.675Y-209.825
X341.025Y-197.2
X341.025Y-201.225
X341.375Y-223.7
X343.65Y-148.05
X344.125Y-206.1
X346.125Y-215.725
X346.5Y-150.275
X347.775Y-223.7
X348.525Y-194.15
X348.575Y-203.75
X350.45Y-155.025
X350.975Y-222.125
X351.05Y-200.125
X352.525Y-196.175
X352.575Y-202.125
X352.6Y-223.325
X353.3Y-155.025
X353.3Y-160.625
X353.3Y-167.825
X353.3Y-174.2
X353.3Y-180.575
X353.3Y-185.775
X353.3Y-193.35
X353.375Y-206.15
X353.375Y-212.125
X353.375Y-218.95
T3
X81.05Y-148.225
X85.4Y-155.4
X89.425Y-94.7
X92.225Y-96.725
X93.325Y-114.825
X97.675Y-128.6
X101.7Y-72.275
X102.286Y-75.921
X105.475Y-131.375
X106.9Y-63.5
X109.15Y-68.325
X112.6Y-133.95
X112.6Y-139.325
X114.725Y-194.95
X114.725Y-200.425
X115.85Y-131.4
X117.475Y-155.7
X118.725Y-51.175
X119.55Y-220.4
X122.625Y-119.45
X129.125Y-212.475
X135.0Y-50.7
X135.0Y-52.35
X135.225Y-77.1
X135.775Y-60.725
X142.625Y-119.3
X148.0Y-204.45
X155.7Y-141.05
X156.85Y-69.575
X157.325Y-76.725
X159.85Y-133.95
X163.025Y-83.675
X163.025Y-89.9
X163.025Y-103.75
X163.025Y-115.125
X165.5Y-131.325
X177.3Y-161.275
X183.6Y-179.4
X183.675Y-174.375
X186.65Y-84.15
X189.375Y-78.25
X189.375Y-88.55
X191.075Y-137.625
X192.6Y-68.7
X194.175Y-84.15
X194.95Y-75.425
X197.875Y-111.8
X200.7Y-196.7
X205.45Y-79.775
X208.275Y-164.125
X209.125Y-205.275
X210.6Y-71.05
X211.0Y-54.95
X211.9Y-207.8
X216.0Y-164.125
X216.625Y-66.6
X218.5Y-205.55
X223.725Y-84.575
X227.675Y-53.875
X231.35Y-69.4
X231.825Y-136.425
X231.825Y-141.725
X232.65Y-217.925
X234.575Y-138.95
X234.575Y-144.1
X235.625Y-187.125
X239.7Y-141.6
X239.725Y-144.55
X242.24Y-162.687
X253.0Y-170.3
X255.125Y-215.9
X255.15Y-218.275
X256.025Y-136.425
X256.975Y-162.45
X257.575Y-159.2
X257.6Y-165.55
X258.05Y-138.95
X262.575Y-142.75
X269.675Y-157.6
X275.575Y-215.9
X275.6Y-218.275
X279.5Y-218.275
X286.9Y-166.175
X287.075Y-163.5
X299.375Y-163.925
X303.275Y-218.275
X305.275Y-215.9
X308.125Y-177.5
X312.225Y-199.85
X312.85Y-161.75
X331.325Y-155.5
X338.0Y-166.325
X343.5Y-161.875
T4
X115.07Y-125.985
X116.34Y-128.525
X117.61Y-125.985
X118.88Y-128.525
X120.15Y-125.985
X121.42Y-128.525
X122.69Y-125.985
X123.96Y-128.525
X125.23Y-125.985
X126.5Y-128.525
X127.77Y-125.985
X129.04Y-128.525
X130.31Y-125.985
X131.58Y-128.525
X132.85Y-125.985
X134.12Y-128.525
X135.39Y-125.985
X136.66Y-128.525
X137.38Y-53.575
X137.93Y-125.985
X138.65Y-51.035
X139.2Y-128.525
X139.92Y-53.575
X140.47Y-125.985
X141.19Y-51.035
X141.74Y-128.525
X142.46Y-53.575
X143.01Y-125.985
X143.73Y-51.035
X144.28Y-128.525
X145.0Y-53.575
X145.55Y-125.985
X146.27Y-51.035
X146.82Y-128.525
X147.54Y-53.575
X148.09Y-125.985
X148.81Y-51.035
X149.36Y-128.525
X150.08Y-53.575
X150.63Y-125.985
X151.35Y-51.035
X151.9Y-128.525
X152.62Y-53.575
X153.17Y-125.985
X153.89Y-51.035
X154.44Y-128.525
X155.71Y-125.985
X156.98Y-128.525
X158.25Y-125.985
X159.52Y-128.525
X160.79Y-125.985
X162.06Y-128.525
X177.61Y-185.275
X177.61Y-192.895
X192.85Y-185.275
X192.85Y-192.895
X229.775Y-179.025
X231.775Y-179.025
X233.775Y-179.025
X235.775Y-179.025
X237.775Y-179.025
X239.775Y-179.025
X241.775Y-179.025
X243.775Y-179.025
X249.45Y-220.7
X251.45Y-220.7
X257.45Y-220.7
X259.45Y-220.7
X261.45Y-220.7
X263.45Y-220.7
X265.45Y-220.7
X267.45Y-220.7
X269.45Y-161.575
X269.45Y-220.7
X271.45Y-161.575
X271.45Y-220.7
X273.45Y-161.575
X273.45Y-220.7
X275.45Y-161.575
X275.45Y-220.7
X277.45Y-161.575
X279.45Y-161.575
X281.45Y-161.575
X282.325Y-220.7
X283.45Y-161.575
X284.325Y-220.7
X286.325Y-220.7
X288.325Y-220.7
X289.05Y-161.575
X290.325Y-220.7
X291.05Y-161.575
X292.325Y-220.7
X293.05Y-161.575
X294.325Y-220.7
X295.05Y-161.575
X296.325Y-220.7
X297.05Y-161.575
X298.325Y-220.7
X299.05Y-161.575
X300.325Y-220.7
X301.05Y-161.575
X303.05Y-161.575
X306.2Y-154.425
X308.0Y-164.55
X308.0Y-166.55
X308.0Y-168.55
X308.0Y-170.55
X308.0Y-172.55
X308.0Y-174.55
X308.2Y-154.425
X314.475Y-158.325
X316.475Y-158.325
X318.475Y-158.325
X320.475Y-158.325
X322.475Y-158.325
X324.475Y-158.325
X326.475Y-158.325
X336.475Y-220.7
X338.475Y-220.7
X340.475Y-220.7
X342.475Y-220.7
X344.475Y-220.7
X346.475Y-220.7
X348.475Y-220.7
T5
X177.7Y-174.35
X177.7Y-179.35
X179.075Y-215.45
X179.075Y-217.95
X181.125Y-217.95
X181.575Y-215.45
X183.775Y-215.45
X183.775Y-217.95
X185.875Y-215.45
X185.875Y-217.95
X207.375Y-51.15
X207.375Y-58.77
X209.915Y-51.15
X209.915Y-58.77
X212.455Y-51.15
X212.455Y-58.77
X214.995Y-51.15
X214.995Y-58.77
X217.535Y-51.15
X217.535Y-58.77
X220.075Y-51.15
X220.075Y-58.77
X222.615Y-51.15
X222.615Y-58.77
X225.155Y-51.15
X225.155Y-58.77
X227.695Y-51.15
X227.695Y-58.77
T6
X90.1Y-48.725
X90.1Y-51.225
X90.1Y-55.925
X90.1Y-58.425
X90.1Y-63.1
X90.1Y-65.6
X95.1Y-48.725
X95.1Y-51.225
X95.1Y-55.925
X95.1Y-58.425
X95.1Y-63.1
X95.1Y-65.6
X144.875Y-176.65
X217.21Y-201.425
X219.75Y-201.425
X252.425Y-159.175
X252.5Y-165.55
X314.08Y-168.65
X316.62Y-168.65
X319.16Y-168.65
X321.7Y-168.65
X324.24Y-168.65
X326.78Y-168.65
X329.32Y-168.65
X331.86Y-168.65
X334.4Y-168.65
X336.94Y-168.65
X339.48Y-168.65
X342.02Y-168.65
X348.3Y-162.185
X348.3Y-164.725
X348.3Y-167.265
X348.3Y-169.805
X348.3Y-172.345
X348.3Y-174.885
X348.3Y-177.425
X348.3Y-179.965
X348.3Y-182.505
X348.3Y-185.045
X348.3Y-187.585
X348.3Y-190.125
T7
X224.05Y-134.45
X224.05Y-136.95
X224.05Y-139.45
T8
X76.975Y-170.425
X76.975Y-191.425
X90.085Y-69.925
X92.625Y-69.925
X95.165Y-69.925
X95.787Y-199.675
X99.025Y-86.325
X100.762Y-199.675
X104.3Y-102.15
X104.3Y-107.125
X111.375Y-69.575
X112.1Y-103.475
X116.35Y-69.575
X117.075Y-103.475
X123.8Y-194.85
X124.6Y-70.65
X124.6Y-75.625
X132.2Y-61.1
X132.2Y-66.075
X135.225Y-73.15
X140.2Y-73.15
X141.875Y-61.4
X141.875Y-66.375
X146.925Y-73.15
X151.9Y-73.15
X177.695Y-203.97
X177.695Y-209.05
X178.045Y-68.7
X182.425Y-203.885
X182.425Y-206.425
X182.425Y-208.965
X183.125Y-68.7
X185.63Y-203.885
X185.63Y-206.425
X185.63Y-208.965
X188.825Y-203.875
X188.825Y-206.415
X188.825Y-208.955
X189.705Y-174.3
X189.705Y-179.38
X192.055Y-203.895
X192.055Y-206.435
X192.055Y-208.975
X192.773Y-216.792
X192.785Y-213.591
X195.305Y-203.895
X195.305Y-206.435
X195.305Y-208.975
X195.313Y-216.792
X195.325Y-213.591
X197.853Y-216.792
X197.865Y-213.591
X232.461Y-169.545
X232.461Y-172.085
X232.461Y-174.625
X238.92Y-217.875
X244.0Y-217.875
X252.4Y-128.375
X271.92Y-154.825
X277.0Y-154.825
X307.175Y-148.975
X315.675Y-173.15
X315.675Y-178.125
X336.75Y-156.525
X336.75Y-159.775
X339.625Y-173.1
X339.625Y-178.075
X340.0Y-156.525
X340.0Y-159.775
T9
X112.11Y-93.475
X114.65Y-93.475
X117.19Y-93.475
X140.06Y-82.725
X142.6Y-82.725
X145.14Y-82.725
T10
X73.628Y-57.876
X73.628Y-62.876
X81.128Y-52.876
X81.128Y-60.376
X81.128Y-67.876
X83.628Y-55.376
X83.628Y-65.376
X199.725Y-72.325
X204.7Y-72.325
T11
X73.44Y-207.795
X73.56Y-216.395
X81.61Y-210.085
X81.61Y-214.085
X85.61Y-210.085
X85.61Y-214.085
X89.61Y-210.085
X89.61Y-214.085
X97.66Y-210.085
X97.66Y-214.085
X105.58Y-207.795
X105.58Y-216.265
T12
X72.344Y-89.003
X75.844Y-89.003
X75.844Y-97.003
T13
X76.975Y-145.85
X76.975Y-165.85
T14
X105.65Y-87.725
X123.65Y-87.725
X133.6Y-88.475
X151.6Y-88.475
T15
X175.825Y-220.95
X182.375Y-221.7
X189.225Y-220.95
T5
X76.025Y-140.25G85X76.325Y-140.25
G05
X78.525Y-140.25G85X78.825Y-140.25
G05
T6
X71.128Y-55.626G85X71.128Y-55.126
G05
X71.128Y-65.626G85X71.128Y-65.126
G05
T0
M30
