%TF.GenerationSoftware,KiCad,Pcbnew,7.0.8*%
%TF.CreationDate,2023-11-08T11:42:42+01:00*%
%TF.ProjectId,PCE,5043452e-6b69-4636-9164-5f7063625858,rev?*%
%TF.SameCoordinates,Original*%
%TF.FileFunction,Drillmap*%
%TF.FilePolarity,Positive*%
%FSLAX45Y45*%
G04 Gerber Fmt 4.5, Leading zero omitted, Abs format (unit mm)*
G04 Created by KiCad (PCBNEW 7.0.8) date 2023-11-08 11:42:42*
%MOMM*%
%LPD*%
G01*
G04 APERTURE LIST*
%ADD10C,0.100000*%
%ADD11C,0.200000*%
G04 APERTURE END LIST*
D10*
X11820000Y-22610000D02*
X6932500Y-22610000D01*
X24200000Y-4275000D02*
X24200000Y-12050000D01*
X23625000Y-5359865D02*
G75*
G03*
X23855000Y-5359865I115000J115000D01*
G01*
X6964680Y-4175000D02*
X24100000Y-4175000D01*
X14015000Y-9267500D02*
G75*
G03*
X14015000Y-9267500I-155000J0D01*
G01*
X13290000Y-8352500D02*
G75*
G03*
X13290000Y-8352500I-155000J0D01*
G01*
X18157461Y-14832480D02*
G75*
G03*
X18157461Y-15062480I115000J-115000D01*
G01*
X23032500Y-22570000D02*
X26077500Y-22570000D01*
X11820000Y-22610000D02*
X11820000Y-22595000D01*
X6873240Y-9631680D02*
X6873240Y-4267500D01*
X9547500Y-14960000D02*
G75*
G03*
X9547500Y-14960000I-115000J0D01*
G01*
X34840000Y-19912500D02*
G75*
G03*
X34840000Y-19912500I-240000J0D01*
G01*
X24100000Y-4175000D02*
X24200000Y-4275000D01*
X11300000Y-8270000D02*
G75*
G03*
X11300000Y-8270000I-155000J0D01*
G01*
X24200000Y-12050000D02*
G75*
G03*
X24700000Y-12550000I500000J0D01*
G01*
X6932500Y-22610000D02*
X6873240Y-22550120D01*
X35257500Y-15127500D02*
G75*
G03*
X35257500Y-15127500I-210000J0D01*
G01*
X6997500Y-11792500D02*
X6997500Y-11892500D01*
X24700000Y-12550000D02*
X27250000Y-12550000D01*
X35550000Y-14750000D02*
X35550000Y-22510000D01*
X27350000Y-14200000D02*
G75*
G03*
X27800000Y-14650000I450000J0D01*
G01*
X23980000Y-4647500D02*
G75*
G03*
X23980000Y-4647500I-240000J0D01*
G01*
X12690000Y-9267500D02*
G75*
G03*
X12690000Y-9267500I-155000J0D01*
G01*
X6997500Y-10755000D02*
X6873240Y-10755000D01*
X18457500Y-14157500D02*
G75*
G03*
X18457500Y-14157500I-187500J0D01*
G01*
X18157461Y-15062480D02*
X18379865Y-15062520D01*
X6997500Y-10755000D02*
X6997500Y-10855000D01*
X11845000Y-22570000D02*
X15355000Y-22570000D01*
X14812500Y-9267500D02*
G75*
G03*
X14812500Y-9267500I-155000J0D01*
G01*
X12022500Y-8912500D02*
G75*
G03*
X12022500Y-8912500I-155000J0D01*
G01*
X6873240Y-22550120D02*
X6873240Y-11892500D01*
X35450000Y-14650000D02*
X35550000Y-14750000D01*
X6997500Y-10855000D02*
X6873240Y-10855000D01*
X18157461Y-14832480D02*
X18379865Y-14832520D01*
X27350000Y-12650000D02*
X27350000Y-14200000D01*
X15380000Y-22595000D02*
X15355000Y-22570000D01*
X13290000Y-9267500D02*
G75*
G03*
X13290000Y-9267500I-155000J0D01*
G01*
X6873240Y-10755000D02*
X6873240Y-9768840D01*
X22992500Y-22610000D02*
X23032500Y-22570000D01*
X21465000Y-22240000D02*
G75*
G03*
X21465000Y-22240000I-115000J0D01*
G01*
X6873240Y-11792500D02*
X6873240Y-10855000D01*
X22992500Y-22610000D02*
X15380000Y-22610000D01*
X35450000Y-22610000D02*
X26102500Y-22610000D01*
X27087500Y-13035000D02*
G75*
G03*
X27087500Y-13035000I-240000J0D01*
G01*
X35550000Y-22510000D02*
X35450000Y-22610000D01*
X23855039Y-5137461D02*
G75*
G03*
X23625039Y-5137461I-115000J-115000D01*
G01*
X18379866Y-15062520D02*
G75*
G03*
X18379865Y-14832520I-114996J115000D01*
G01*
X12690000Y-8352500D02*
G75*
G03*
X12690000Y-8352500I-155000J0D01*
G01*
X6873240Y-9768840D02*
G75*
G03*
X6873240Y-9631680I41200J68580D01*
G01*
X10822500Y-8270000D02*
G75*
G03*
X10822500Y-8270000I-155000J0D01*
G01*
X6997500Y-11792500D02*
X6873240Y-11792500D01*
X26102500Y-22610000D02*
X26102500Y-22595000D01*
X8340000Y-19945000D02*
G75*
G03*
X8340000Y-19945000I-240000J0D01*
G01*
X23625039Y-5137461D02*
X23625000Y-5359865D01*
X26102500Y-22595000D02*
X26077500Y-22570000D01*
X10595000Y-4657500D02*
G75*
G03*
X10595000Y-4657500I-240000J0D01*
G01*
X27250000Y-12550000D02*
X27350000Y-12650000D01*
X6997500Y-11892500D02*
X6873240Y-11892500D01*
X27800000Y-14650000D02*
X35450000Y-14650000D01*
X15380000Y-22610000D02*
X15380000Y-22595000D01*
X23855039Y-5137461D02*
X23855000Y-5359865D01*
X21585000Y-21630000D02*
G75*
G03*
X21585000Y-21630000I-240000J0D01*
G01*
X7570000Y-22155000D02*
G75*
G03*
X7570000Y-22155000I-210000J0D01*
G01*
X6873240Y-4267500D02*
X6964680Y-4175000D01*
X11820000Y-22595000D02*
X11845000Y-22570000D01*
X9620000Y-14157500D02*
G75*
G03*
X9620000Y-14157500I-187500J0D01*
G01*
D11*
X7129017Y-22926484D02*
X7129017Y-22726484D01*
X7129017Y-22726484D02*
X7176636Y-22726484D01*
X7176636Y-22726484D02*
X7205207Y-22736008D01*
X7205207Y-22736008D02*
X7224255Y-22755055D01*
X7224255Y-22755055D02*
X7233779Y-22774103D01*
X7233779Y-22774103D02*
X7243302Y-22812198D01*
X7243302Y-22812198D02*
X7243302Y-22840769D01*
X7243302Y-22840769D02*
X7233779Y-22878865D01*
X7233779Y-22878865D02*
X7224255Y-22897912D01*
X7224255Y-22897912D02*
X7205207Y-22916960D01*
X7205207Y-22916960D02*
X7176636Y-22926484D01*
X7176636Y-22926484D02*
X7129017Y-22926484D01*
X7329017Y-22926484D02*
X7329017Y-22793150D01*
X7329017Y-22831246D02*
X7338541Y-22812198D01*
X7338541Y-22812198D02*
X7348064Y-22802674D01*
X7348064Y-22802674D02*
X7367112Y-22793150D01*
X7367112Y-22793150D02*
X7386160Y-22793150D01*
X7452826Y-22926484D02*
X7452826Y-22793150D01*
X7452826Y-22726484D02*
X7443302Y-22736008D01*
X7443302Y-22736008D02*
X7452826Y-22745531D01*
X7452826Y-22745531D02*
X7462350Y-22736008D01*
X7462350Y-22736008D02*
X7452826Y-22726484D01*
X7452826Y-22726484D02*
X7452826Y-22745531D01*
X7576636Y-22926484D02*
X7557588Y-22916960D01*
X7557588Y-22916960D02*
X7548064Y-22897912D01*
X7548064Y-22897912D02*
X7548064Y-22726484D01*
X7681398Y-22926484D02*
X7662350Y-22916960D01*
X7662350Y-22916960D02*
X7652826Y-22897912D01*
X7652826Y-22897912D02*
X7652826Y-22726484D01*
X7909969Y-22926484D02*
X7909969Y-22726484D01*
X7909969Y-22726484D02*
X7976636Y-22869341D01*
X7976636Y-22869341D02*
X8043302Y-22726484D01*
X8043302Y-22726484D02*
X8043302Y-22926484D01*
X8224255Y-22926484D02*
X8224255Y-22821722D01*
X8224255Y-22821722D02*
X8214731Y-22802674D01*
X8214731Y-22802674D02*
X8195683Y-22793150D01*
X8195683Y-22793150D02*
X8157588Y-22793150D01*
X8157588Y-22793150D02*
X8138541Y-22802674D01*
X8224255Y-22916960D02*
X8205207Y-22926484D01*
X8205207Y-22926484D02*
X8157588Y-22926484D01*
X8157588Y-22926484D02*
X8138541Y-22916960D01*
X8138541Y-22916960D02*
X8129017Y-22897912D01*
X8129017Y-22897912D02*
X8129017Y-22878865D01*
X8129017Y-22878865D02*
X8138541Y-22859817D01*
X8138541Y-22859817D02*
X8157588Y-22850293D01*
X8157588Y-22850293D02*
X8205207Y-22850293D01*
X8205207Y-22850293D02*
X8224255Y-22840769D01*
X8319493Y-22793150D02*
X8319493Y-22993150D01*
X8319493Y-22802674D02*
X8338541Y-22793150D01*
X8338541Y-22793150D02*
X8376636Y-22793150D01*
X8376636Y-22793150D02*
X8395684Y-22802674D01*
X8395684Y-22802674D02*
X8405207Y-22812198D01*
X8405207Y-22812198D02*
X8414731Y-22831246D01*
X8414731Y-22831246D02*
X8414731Y-22888388D01*
X8414731Y-22888388D02*
X8405207Y-22907436D01*
X8405207Y-22907436D02*
X8395684Y-22916960D01*
X8395684Y-22916960D02*
X8376636Y-22926484D01*
X8376636Y-22926484D02*
X8338541Y-22926484D01*
X8338541Y-22926484D02*
X8319493Y-22916960D01*
X8500445Y-22907436D02*
X8509969Y-22916960D01*
X8509969Y-22916960D02*
X8500445Y-22926484D01*
X8500445Y-22926484D02*
X8490922Y-22916960D01*
X8490922Y-22916960D02*
X8500445Y-22907436D01*
X8500445Y-22907436D02*
X8500445Y-22926484D01*
X8500445Y-22802674D02*
X8509969Y-22812198D01*
X8509969Y-22812198D02*
X8500445Y-22821722D01*
X8500445Y-22821722D02*
X8490922Y-22812198D01*
X8490922Y-22812198D02*
X8500445Y-22802674D01*
X8500445Y-22802674D02*
X8500445Y-22821722D01*
M02*
